<?xml version="1.0" standalone="no"?>
<!DOCTYPE svg PUBLIC "-//W3C//DTD SVG 20010904//EN"
 "http://www.w3.org/TR/2001/REC-SVG-20010904/DTD/svg10.dtd">
<svg version="1.0" xmlns="http://www.w3.org/2000/svg"
 width="451.000000pt" height="294.000000pt" viewBox="0 0 451.000000 294.000000"
 preserveAspectRatio="xMidYMid meet">

<g transform="translate(0.000000,294.000000) scale(0.100000,-0.100000)"
fill="#000000" stroke="none">
<path d="M10 1775 l0 -1165 2250 0 2250 0 0 1165 0 1165 -2250 0 -2250 0 0
-1165z m585 317 c40 -7 40 -8 43 -56 4 -68 -6 -91 -21 -47 -20 56 -56 76 -142
76 -58 0 -79 -4 -102 -21 -44 -32 -73 -98 -73 -169 1 -132 87 -226 207 -225
59 1 91 17 115 61 l19 34 -5 -54 c-3 -30 -11 -58 -18 -62 -22 -14 -117 -22
-171 -15 -28 4 -73 17 -100 28 -192 83 -179 372 20 444 41 14 163 17 228 6z
m491 -202 c89 -218 107 -251 145 -261 14 -4 -12 -7 -59 -8 -46 -1 -81 3 -78 8
3 5 -6 41 -21 80 l-26 71 -72 0 -72 0 -22 -56 c-27 -70 -26 -82 2 -94 16 -6
-2 -9 -63 -9 l-85 -1 34 18 c31 16 40 34 124 240 49 122 94 221 100 219 5 -1
47 -95 93 -207z m492 204 c19 -6 22 -13 22 -55 0 -27 -4 -49 -10 -49 -5 0 -10
7 -10 15 0 27 -47 65 -80 65 -34 0 -80 -38 -80 -66 0 -10 40 -56 89 -103 72
-69 91 -93 96 -123 10 -52 -1 -86 -39 -124 -37 -37 -102 -52 -169 -38 l-42 9
-3 63 c-2 43 0 62 7 57 6 -3 11 -15 11 -25 0 -10 11 -31 24 -47 19 -22 32 -28
66 -28 50 0 80 29 80 77 0 30 -36 74 -102 124 -69 53 -98 142 -62 193 37 52
123 76 202 55z m621 -10 c4 -5 5 -36 2 -69 l-6 -60 -14 38 c-28 80 -175 104
-251 40 -47 -39 -63 -79 -64 -158 0 -104 42 -174 126 -210 75 -31 157 -15 186
35 24 42 33 37 26 -12 -10 -68 -20 -73 -137 -73 -81 1 -111 5 -147 21 -55 25
-101 69 -125 120 -26 55 -25 157 3 210 27 52 92 109 140 123 42 12 250 8 261
-5z m446 -179 c92 -228 108 -261 142 -273 23 -9 14 -11 -54 -11 -72 -1 -81 1
-77 17 3 9 -6 44 -20 77 l-24 60 -71 3 -71 3 -20 -46 c-34 -79 -35 -94 -9
-104 18 -7 2 -10 -61 -9 -47 0 -75 3 -63 5 37 7 57 43 134 235 93 236 97 244
113 227 7 -8 43 -90 81 -184z m1550 0 c92 -228 108 -261 142 -273 23 -9 14
-11 -54 -11 -72 -1 -81 1 -77 17 3 9 -6 44 -20 77 l-24 60 -71 3 -71 3 -20
-46 c-34 -79 -35 -94 -9 -104 18 -7 2 -10 -61 -9 -47 0 -75 3 -63 5 37 7 57
43 134 235 93 236 97 244 113 227 7 -8 43 -90 81 -184z m-900 158 c80 -43 115
-105 115 -205 0 -76 -26 -134 -81 -182 -64 -55 -117 -64 -324 -58 -78 3 -94 6
-74 13 35 13 39 40 39 250 0 173 -4 192 -45 202 -11 3 59 5 155 4 158 -2 179
-4 215 -24z m445 18 l-25 -7 -3 -217 -2 -216 32 -10 c26 -7 10 -9 -72 -9 -58
0 -94 3 -80 7 34 9 37 32 39 242 1 184 -3 202 -44 212 -11 3 25 5 80 5 55 0
89 -3 75 -7z m-3121 -777 c4 -5 5 -36 2 -69 l-6 -60 -14 38 c-28 80 -175 104
-251 40 -47 -39 -63 -79 -64 -158 0 -104 42 -174 126 -210 75 -31 157 -15 186
35 24 42 33 37 26 -12 -10 -68 -20 -73 -137 -73 -81 1 -111 5 -147 21 -55 25
-101 69 -125 120 -26 55 -25 157 3 210 27 52 92 109 140 123 42 12 250 8 261
-5z m636 -11 c80 -42 118 -106 118 -203 1 -138 -85 -238 -221 -256 -155 -20
-282 86 -282 237 0 118 52 196 158 235 53 20 176 13 227 -13z m1765 -17 c0
-25 -4 -48 -10 -51 -5 -3 -10 3 -10 15 0 25 -34 40 -91 40 l-39 0 0 -85 0 -85
58 0 c32 0 63 5 70 12 9 9 12 0 12 -40 0 -29 -4 -52 -10 -52 -5 0 -10 7 -10
15 0 19 -40 35 -86 35 l-35 0 3 -97 3 -98 65 0 c62 0 65 1 80 30 l15 30 3 -26
c2 -14 -2 -37 -7 -52 l-11 -27 -147 1 c-107 0 -141 3 -122 10 34 13 39 40 39
241 0 171 -7 207 -42 210 -13 1 40 5 117 8 77 3 143 7 148 8 4 1 7 -18 7 -42z
m693 29 c12 -5 17 -18 17 -50 0 -68 -9 -82 -29 -43 -25 49 -74 73 -151 73
-120 0 -175 -60 -175 -190 1 -139 87 -230 213 -223 l57 3 0 90 0 90 -30 6
c-16 4 15 7 70 7 55 0 91 -3 80 -5 -31 -8 -35 -21 -35 -114 0 -84 -1 -86 -27
-98 -15 -7 -57 -15 -93 -18 -192 -16 -324 83 -323 241 0 118 60 200 173 237
28 10 225 4 253 -6z m599 -32 c-6 -59 -9 -63 -21 -31 -10 28 -36 38 -93 38
l-38 0 0 -86 0 -87 73 5 72 5 -4 -51 c-4 -47 -5 -49 -14 -24 -10 27 -39 38
-99 38 l-29 0 3 -97 3 -98 62 -3 c61 -3 63 -2 83 30 l20 33 0 -30 c0 -16 -3
-40 -6 -52 -6 -23 -9 -23 -153 -22 -80 1 -138 3 -128 6 31 8 37 48 37 242 0
195 -3 209 -45 213 -11 1 45 5 125 8 80 3 148 7 151 8 4 1 4 -19 1 -45z
m-2507 30 c-41 -10 -45 -29 -44 -202 1 -222 -1 -215 82 -219 66 -3 67 -3 87
30 l20 33 0 -37 c0 -70 5 -68 -169 -68 -132 0 -152 2 -131 13 l25 13 0 214 0
214 -25 7 c-14 4 20 7 75 7 55 0 91 -2 80 -5z m550 0 c-41 -10 -45 -29 -44
-202 1 -222 -1 -215 82 -219 66 -3 67 -3 87 30 l20 33 0 -37 c0 -70 5 -68
-169 -68 -132 0 -152 2 -131 13 l25 13 0 214 0 214 -25 7 c-14 4 20 7 75 7 55
0 91 -2 80 -5z"/>
<path d="M947 1897 c-15 -41 -27 -77 -27 -80 0 -4 25 -7 56 -7 63 0 61 -8 20
103 l-21 57 -28 -73z"/>
<path d="M2508 1885 l-27 -75 59 0 59 0 -27 75 c-15 41 -29 75 -32 75 -3 0
-17 -34 -32 -75z"/>
<path d="M4058 1885 l-27 -75 59 0 59 0 -27 75 c-15 41 -29 75 -32 75 -3 0
-17 -34 -32 -75z"/>
<path d="M3050 1865 c0 -227 -4 -220 111 -213 104 6 155 54 166 160 8 77 -11
135 -61 184 -45 46 -93 64 -168 64 l-48 0 0 -195z"/>
<path d="M1044 1276 c-68 -30 -104 -127 -85 -231 16 -84 47 -132 105 -162 41
-21 118 -21 150 0 80 53 96 231 30 330 -43 65 -131 93 -200 63z"/>
</g>
</svg>
