<?xml version="1.0" standalone="no"?>
<!DOCTYPE svg PUBLIC "-//W3C//DTD SVG 20010904//EN"
 "http://www.w3.org/TR/2001/REC-SVG-20010904/DTD/svg10.dtd">
<svg version="1.0" xmlns="http://www.w3.org/2000/svg"
 width="2048.000000pt" height="1535.000000pt" viewBox="0 0 2048.000000 1535.000000"
 preserveAspectRatio="xMidYMid meet">
<metadata>
Created by potrace 1.16, written by Peter Selinger 2001-2019
</metadata>
<g transform="translate(0.000000,1535.000000) scale(0.100000,-0.100000)"
fill="#4A235A" stroke="none">
<path d="M9890 9770 c-76 -13 -159 -50 -223 -99 -67 -50 -177 -180 -220 -260
-38 -70 -53 -186 -39 -310 14 -115 39 -193 93 -284 41 -69 68 -163 72 -254 1
-34 7 -49 22 -57 10 -6 25 -17 33 -23 10 -10 94 -13 347 -13 l333 0 17 98 c23
125 51 195 109 266 56 70 87 129 116 224 42 138 17 341 -55 441 -43 61 -169
182 -210 204 -22 11 -74 29 -115 40 -143 37 -193 42 -280 27z m216 -88 c87
-30 164 -83 221 -152 130 -155 168 -305 123 -484 -22 -87 -58 -154 -125 -233
-48 -57 -61 -92 -71 -195 l-7 -68 -156 -2 c-230 -4 -342 -2 -382 5 -36 7 -37
9 -41 60 -5 57 -47 158 -96 229 -38 55 -82 194 -89 278 -11 143 61 334 166
438 61 62 137 107 210 128 68 18 187 17 247 -4z"/>
<path d="M9743 9575 c-41 -25 -149 -150 -179 -206 -18 -35 -15 -74 5 -74 8 0
30 26 48 58 40 67 89 119 156 165 37 25 48 38 45 55 -4 31 -26 31 -75 2z"/>
<path d="M10643 8465 c-22 -24 -15 -41 47 -119 45 -56 66 -76 84 -76 35 0 52
25 37 53 -17 31 -134 157 -146 157 -6 -1 -16 -7 -22 -15z"/>
<path d="M9701 8443 c-37 -8 -71 -33 -71 -53 0 -10 12 -28 27 -40 26 -20 36
-21 228 -19 110 1 234 -1 276 -5 83 -9 113 0 124 34 10 30 -12 58 -53 70 -39
11 -490 22 -531 13z"/>
<path d="M9773 8281 c-103 -6 -131 -16 -120 -45 8 -20 47 -24 344 -36 275 -11
303 -8 303 34 0 21 -7 27 -37 35 -49 12 -358 20 -490 12z"/>
<path d="M9700 8164 c-52 -10 -52 -12 6 -84 72 -89 91 -95 283 -94 l143 2 74
73 c41 40 74 79 74 87 0 10 -45 12 -222 11 -123 -1 -248 1 -278 4 -30 3 -66 3
-80 1z"/>
<path d="M9700 7739 c-188 -12 -310 -32 -570 -90 -124 -27 -268 -58 -320 -69
-136 -26 -232 -61 -391 -140 -166 -83 -192 -99 -289 -178 -196 -157 -367 -411
-454 -674 -30 -91 -36 -126 -50 -304 -9 -110 -16 -233 -16 -272 0 -157 50
-301 179 -520 117 -197 208 -281 378 -346 110 -43 175 -51 292 -37 145 18 164
29 213 125 30 58 68 108 132 176 129 136 223 225 254 241 15 7 40 24 55 36 31
25 62 31 52 11 -4 -7 2 -3 12 10 25 31 94 50 228 63 117 12 185 7 185 -14 0
-8 4 -7 10 3 5 8 12 12 15 8 3 -3 0 -12 -7 -19 -7 -8 -22 -49 -32 -91 -25
-103 -18 -223 20 -336 33 -96 35 -90 -83 -178 -40 -29 -77 -63 -84 -76 -11
-21 -10 -21 19 4 18 15 58 36 89 47 32 11 70 27 85 35 24 13 28 12 50 -11 27
-29 70 -53 95 -53 12 0 4 8 -20 23 -21 13 -46 36 -56 51 -18 27 -18 29 7 74
14 26 45 68 69 95 52 56 55 90 11 95 -34 4 -80 -41 -113 -112 l-23 -49 -17 54
c-9 30 -19 105 -22 166 -6 113 -6 113 27 180 57 116 115 163 335 273 104 51
231 122 281 156 90 61 124 74 234 88 36 5 70 -2 175 -37 119 -39 131 -45 147
-76 24 -47 31 -51 23 -11 -11 57 -29 74 -113 115 -45 21 -78 43 -75 48 3 5 14
7 24 4 11 -3 17 -1 13 4 -4 8 11 13 19 7 1 -2 20 12 42 29 52 43 61 31 10 -14
l-40 -35 35 17 c37 18 101 82 124 125 16 28 36 148 36 210 0 24 8 53 18 68 10
15 23 34 27 42 19 34 -25 -13 -54 -57 -22 -33 -31 -62 -37 -111 -11 -112 -33
-141 -182 -241 -58 -39 -66 -42 -94 -32 -17 6 -62 11 -99 11 l-69 0 -40 52
c-49 61 -75 110 -84 158 -4 19 -12 48 -18 63 -10 27 -11 27 -30 10 -17 -15
-19 -26 -14 -67 3 -27 15 -78 27 -114 l22 -65 -33 -68 c-24 -48 -45 -77 -74
-97 -49 -36 -365 -206 -371 -200 -6 6 24 118 40 148 8 15 21 32 29 39 24 20
19 30 -13 28 -16 -1 -27 -5 -25 -8 2 -4 -3 -12 -10 -19 -8 -6 -18 -26 -22 -43
-3 -18 -15 -49 -25 -69 -22 -44 -23 -52 -6 -42 6 4 -4 -7 -23 -25 -19 -17 -64
-45 -100 -63 -62 -32 -70 -33 -220 -39 -85 -3 -163 -10 -173 -14 -21 -9 -57
20 -57 46 0 10 15 41 33 70 30 50 32 57 31 143 -1 58 -7 104 -17 126 l-15 35
5 -51 c3 -29 1 -54 -4 -57 -6 -4 -8 4 -5 18 9 49 -7 23 -33 -52 -15 -43 -43
-112 -63 -153 -41 -84 -33 -81 -156 -61 -75 12 -123 37 -156 79 l-20 27 6 -30
c21 -95 100 -175 174 -175 29 0 30 -1 30 -47 0 -41 -4 -50 -38 -78 -20 -18
-57 -60 -82 -94 -24 -33 -49 -61 -54 -61 -6 0 -32 -21 -57 -46 -60 -59 -108
-67 -220 -36 -204 56 -385 176 -428 283 -10 24 -10 24 -10 -4 -1 -15 6 -44 14
-64 8 -19 15 -36 15 -37 0 0 -44 -1 -97 0 l-98 1 -62 121 -63 122 0 89 c0 50
5 112 11 139 12 57 186 416 218 449 43 45 157 130 190 141 64 23 97 16 137
-28 53 -57 121 -100 160 -100 l32 0 -15 -52 c-9 -29 -21 -60 -27 -68 -9 -13
-9 -13 5 -2 9 7 24 38 34 70 10 31 28 70 41 85 27 32 39 83 31 138 l-5 39 71
0 c40 0 109 -9 155 -20 46 -11 104 -20 130 -20 44 1 39 3 -73 40 -132 43 -165
47 -242 27 l-52 -14 -11 27 c-6 15 -26 42 -45 60 -30 29 -32 35 -23 61 20 59
106 117 308 208 21 9 15 10 -35 6 l-60 -5 -1 65 c-2 60 0 67 27 89 33 28 106
46 184 46 64 0 88 -18 104 -77 15 -53 14 -70 -8 -128 -10 -27 -21 -63 -25 -80
-6 -28 -5 -28 14 8 24 44 34 48 20 10 l-10 -28 25 30 c13 16 27 43 31 60 10
48 42 96 97 147 39 35 49 50 40 59 -17 17 -50 2 -94 -42 -34 -34 -40 -37 -45
-22 -28 91 -67 119 -153 110 -88 -10 -159 -35 -199 -71 -36 -32 -38 -33 -62
-17 l-25 16 23 -29 c15 -20 22 -43 23 -75 0 -35 2 -41 9 -26 7 16 9 13 9 -16
1 -34 -2 -37 -60 -64 -71 -35 -133 -97 -149 -153 l-12 -39 -47 14 c-78 24
-220 -3 -259 -50 -12 -14 -9 -14 35 -1 83 25 201 -6 240 -62 25 -36 48 -118
39 -140 -6 -15 -8 -15 -34 1 -15 10 -39 32 -54 50 -15 18 -41 38 -58 45 -40
17 -134 8 -193 -18 -75 -33 -212 -149 -242 -204 -23 -42 -29 -47 -45 -38 -24
13 -40 41 -40 70 0 29 64 152 101 194 37 43 119 104 175 131 25 12 74 56 124
111 86 97 138 130 187 121 26 -5 26 -4 9 9 -19 14 -40 12 -106 -9 -19 -6 -39
-10 -43 -9 -5 1 -5 -3 -1 -9 5 -8 2 -10 -8 -6 -17 6 -48 -21 -48 -41 0 -17
-43 -42 -100 -57 -27 -7 -76 -28 -106 -45 l-57 -32 49 62 c202 257 465 415
803 481 58 11 187 38 286 59 211 46 356 72 363 66 2 -3 -4 -18 -13 -33 -14
-23 -23 -28 -45 -25 -34 5 -76 -16 -115 -58 l-30 -32 45 23 c31 16 63 23 100
24 l54 0 13 45 c7 24 19 50 25 56 7 6 55 15 106 18 l92 7 0 -38 c0 -21 4 -44
9 -51 5 -8 6 8 3 37 l-5 51 270 0 c149 0 291 -3 317 -6 45 -7 46 -8 30 -25
-10 -11 -12 -19 -7 -19 6 0 17 7 24 16 22 27 161 12 294 -31 61 -20 114 -40
119 -45 4 -4 -17 -14 -47 -20 -42 -10 -63 -10 -88 -1 -31 11 -32 11 -15 -8 22
-24 13 -58 -17 -71 -12 -5 -74 -23 -137 -40 -63 -17 -132 -38 -153 -47 -44
-19 -114 -91 -129 -134 -9 -27 -28 -40 -28 -20 0 5 -12 17 -27 26 l-28 18 28
-30 c23 -25 27 -38 27 -87 0 -31 4 -66 10 -76 9 -17 4 -20 -43 -30 -30 -6 -89
-31 -133 -55 -214 -121 -326 -355 -274 -575 13 -56 77 -207 84 -199 3 2 -5 31
-16 64 -44 129 -32 310 26 410 39 66 112 149 175 198 48 38 70 48 122 56 35 6
83 11 107 11 45 0 112 39 112 64 0 7 -13 25 -30 41 -37 36 -64 112 -51 146 16
43 86 97 148 115 80 23 231 102 250 130 8 13 13 33 10 44 -4 17 0 20 34 20 21
0 57 7 80 16 l40 17 136 -68 c140 -70 151 -85 67 -85 -22 0 -62 6 -87 14 -59
18 -60 11 -4 -14 51 -24 108 -25 148 -4 29 15 32 14 97 -21 172 -95 413 -270
472 -344 l30 -39 -93 -4 c-79 -3 -101 -8 -153 -35 l-62 -32 -29 48 c-17 26
-45 58 -64 71 l-34 24 21 -25 c69 -78 71 -165 11 -469 -38 -188 -51 -232 -101
-350 -31 -74 -73 -158 -91 -186 -41 -62 -176 -203 -225 -234 l-35 -22 39 7
c47 8 143 54 209 101 54 39 56 35 27 -59 -35 -113 -132 -222 -295 -330 -70
-47 -70 -47 -35 -47 90 0 194 46 260 114 l45 46 17 -33 c40 -80 269 -142 416
-114 l42 9 0 -74 c0 -126 -19 -245 -50 -326 -17 -43 -36 -85 -44 -95 -13 -16
-15 -16 -57 3 -53 24 -139 26 -251 6 -110 -20 -171 -5 -277 67 -64 44 -163 61
-233 41 -80 -24 -116 -26 -203 -12 l-80 13 5 35 c8 61 5 120 -5 120 -5 1 -16
-25 -23 -57 -7 -32 -17 -61 -21 -66 -4 -4 -54 -10 -112 -13 -57 -2 -113 -6
-124 -7 -17 -2 -20 5 -23 46 -2 29 3 60 12 79 9 17 16 37 16 45 0 22 -27 15
-50 -14 -20 -25 -22 -36 -17 -101 4 -51 2 -74 -6 -77 -83 -29 -127 -49 -152
-70 l-30 -26 35 17 c26 13 64 17 155 18 l120 1 7 -55 c6 -50 11 -59 61 -106
l54 -51 -80 -48 c-85 -51 -208 -87 -417 -122 -128 -21 -396 -21 -510 1 -47 9
-121 21 -164 27 -85 11 -120 25 -179 73 -54 43 -75 82 -92 172 -19 98 -19 104
0 77 8 -11 46 -44 84 -72 53 -39 77 -51 105 -51 42 0 48 15 9 24 -18 4 -55 37
-101 89 -70 79 -111 150 -179 307 -23 53 -23 54 -17 15 4 -22 15 -73 25 -114
11 -41 23 -133 29 -205 5 -72 17 -153 26 -180 28 -84 135 -175 224 -190 19 -3
97 -17 173 -31 180 -32 419 -35 607 -5 69 10 132 21 141 25 11 4 18 -9 31 -55
9 -33 14 -60 11 -60 -2 0 -14 5 -26 10 -20 9 -20 9 -3 -2 24 -16 36 -29 91
-100 36 -45 56 -61 100 -77 31 -12 66 -21 78 -21 36 -1 157 -81 195 -130 l36
-45 -50 49 c-27 26 -61 54 -76 62 -19 10 -11 -2 26 -39 36 -36 60 -73 80 -122
55 -134 145 -265 182 -265 7 0 26 -12 43 -26 89 -74 254 -70 346 9 30 26 38
41 42 78 9 75 -31 146 -143 255 -52 50 -94 97 -94 105 0 12 20 14 109 11 179
-7 356 42 541 148 194 112 270 203 270 328 l0 65 68 -7 c59 -5 64 -4 43 8 -22
12 -20 14 40 20 35 4 103 20 151 36 164 55 255 113 318 205 36 53 87 222 96
317 6 74 -11 220 -43 358 -8 36 -19 117 -23 180 -13 168 -35 276 -91 446 -46
139 -57 163 -141 290 -72 110 -117 165 -215 263 -68 68 -151 156 -183 196 -95
117 -411 345 -622 451 -51 25 -118 61 -148 79 -95 57 -406 143 -650 180 -130
19 -440 27 -620 14z m2118 -981 c104 -103 172 -181 215 -248 l17 -26 -41 -1
c-50 -2 -105 -34 -188 -107 -74 -67 -126 -102 -162 -111 -32 -8 -35 -4 -44 56
-7 46 -6 47 22 53 35 8 97 69 113 109 10 29 1 85 -20 117 -7 11 -10 -1 -10
-41 0 -48 -5 -65 -33 -105 -41 -59 -64 -75 -77 -54 -5 8 -10 24 -10 36 0 26
-37 82 -69 103 l-24 15 17 -31 c21 -42 21 -55 -10 -154 -41 -135 -22 -214 62
-254 44 -20 116 -14 173 14 52 27 144 127 180 197 17 32 36 66 43 74 20 25 61
50 80 50 27 0 81 -91 123 -207 37 -99 37 -103 21 -128 -21 -32 -88 -64 -133
-65 -17 0 -39 -7 -47 -16 -22 -22 -20 -66 4 -87 15 -13 20 -29 20 -71 0 -68
-12 -99 -55 -148 -42 -46 -45 -79 -9 -115 21 -21 31 -24 57 -18 18 5 48 8 67
9 l35 1 0 -118 c0 -64 1 -117 3 -117 2 0 12 19 22 43 24 51 25 91 5 147 -19
53 -19 50 5 50 26 0 96 -35 104 -52 3 -7 4 0 0 16 -8 42 -38 81 -74 96 -16 7
-30 14 -30 17 0 2 7 27 16 54 21 64 15 159 -15 217 l-22 43 25 29 c13 17 27
39 31 50 3 11 10 20 14 20 12 0 52 -220 62 -340 4 -58 13 -121 18 -140 29
-100 49 -322 35 -377 -6 -22 -8 -21 -35 13 -16 20 -29 41 -29 47 0 20 -43 57
-66 57 -50 0 -40 -25 54 -140 41 -50 51 -85 36 -123 -5 -13 -10 -14 -39 -1
-54 22 -129 18 -183 -11 -26 -14 -53 -25 -61 -25 -7 0 -40 -12 -73 -27 -51
-22 -64 -25 -89 -16 -27 11 -28 10 -17 -10 13 -26 34 -40 67 -47 24 -5 24 -5
-13 -49 -20 -24 -35 -46 -32 -48 7 -7 65 26 104 61 20 18 56 38 80 45 23 6 58
26 77 43 l35 30 35 -38 c19 -21 35 -43 35 -49 0 -40 -221 -170 -364 -214 -65
-20 -72 -21 -116 -6 -26 9 -82 38 -126 66 -43 27 -98 55 -121 62 -24 6 -43 14
-43 17 1 3 18 17 39 31 70 49 120 133 121 206 0 31 0 31 29 17 16 -8 54 -20
84 -26 66 -14 115 1 191 59 58 45 83 76 96 121 l9 33 -40 -36 c-23 -20 -82
-56 -132 -81 -72 -35 -101 -44 -143 -44 -66 0 -104 14 -104 38 0 19 -33 153
-45 183 -4 12 13 25 70 54 50 26 83 50 96 71 26 43 24 46 -13 25 -54 -31 -255
-61 -409 -61 -147 0 -189 9 -213 45 -14 21 -13 28 6 76 14 37 22 86 25 154 5
92 8 103 33 130 52 57 78 100 112 182 l34 82 23 -77 c21 -72 27 -81 94 -145
88 -82 136 -107 205 -107 l52 0 -21 -41 c-11 -23 -39 -61 -61 -85 -44 -48 -40
-57 12 -21 42 28 67 62 85 113 11 33 19 40 52 48 26 6 55 26 93 66 l56 56 -7
-55 c-29 -235 -52 -350 -79 -409 l-29 -63 30 22 c39 27 84 89 101 137 13 38
16 194 7 388 l-4 100 -36 -51 c-53 -73 -113 -99 -213 -93 -64 4 -85 10 -133
40 -32 19 -70 39 -85 46 -33 14 -81 77 -104 139 -16 42 -16 49 -1 116 17 75
41 228 52 333 4 33 1 97 -5 143 -6 46 -10 85 -8 87 2 2 49 8 104 15 104 12
216 26 223 28 2 0 56 -50 119 -111z m-3910 -305 c2 -1 -5 -21 -16 -46 -21 -46
-79 -228 -93 -287 -5 -21 -7 33 -5 131 4 162 5 167 31 208 l28 42 26 -23 c14
-13 28 -24 29 -25z m268 -905 c72 -80 71 -76 33 -92 -19 -8 -58 -19 -87 -24
l-53 -9 -32 41 c-34 42 -67 92 -67 100 0 6 52 12 121 14 50 2 58 -1 85 -30z
m210 -145 c56 -21 86 -26 164 -27 52 -1 109 3 125 7 l30 8 -30 -26 c-16 -15
-68 -45 -115 -68 l-84 -41 -76 16 c-91 19 -190 56 -190 70 0 16 76 88 93 88 8
0 46 -12 83 -27z m2364 -439 c14 -7 40 -25 58 -41 31 -26 32 -29 17 -50 -11
-16 -30 -23 -73 -28 -31 -4 -109 -18 -172 -32 -110 -23 -117 -23 -190 -9 -119
25 -191 56 -213 94 -11 18 -18 35 -16 37 2 2 42 -2 89 -8 47 -6 132 -12 190
-11 103 0 107 1 170 36 67 38 87 40 140 12z m604 -148 c28 -13 71 -27 96 -31
25 -4 88 -25 142 -46 53 -22 101 -39 107 -39 6 0 11 -3 11 -6 0 -17 -23 -94
-29 -94 -3 0 -19 14 -36 31 -43 44 -182 106 -304 136 -90 21 -120 25 -196 19
-49 -3 -115 -12 -145 -21 -30 -9 -61 -17 -67 -18 -7 -2 -34 -34 -61 -73 -71
-103 -202 -197 -357 -256 l-50 -19 93 5 c88 6 92 5 92 -15 0 -35 29 -77 75
-109 25 -17 45 -34 45 -37 0 -3 -33 -3 -72 0 -76 7 -192 37 -171 44 8 3 -11
32 -48 76 -140 168 -132 156 -112 163 10 4 46 20 81 36 64 30 91 64 113 143 7
26 7 28 -5 13 -7 -10 -15 -15 -18 -13 -3 3 -11 -7 -17 -23 -19 -45 -142 -152
-176 -152 -6 0 -23 19 -39 43 l-28 42 5 -40 c4 -22 22 -70 41 -107 19 -38 32
-68 30 -68 -12 0 -105 52 -130 73 -16 13 -48 36 -71 51 -24 14 -43 30 -43 34
0 9 281 132 300 132 6 0 27 9 48 19 50 25 242 59 377 65 61 3 126 10 145 16
69 22 216 48 269 49 37 1 70 -6 105 -23z m-81 -106 c56 -17 143 -42 192 -56
117 -33 167 -51 191 -68 18 -14 18 -15 0 -35 -11 -12 -34 -31 -52 -42 l-33
-20 -58 47 c-78 64 -168 103 -259 113 -75 9 -106 8 -254 -10 -90 -11 -145 -29
-63 -22 55 6 52 8 180 -149 47 -58 75 -82 118 -103 58 -29 59 -45 3 -45 -23 0
-389 177 -411 199 -4 4 3 24 17 43 13 20 27 47 31 59 4 13 17 42 28 64 12 22
20 44 19 48 -1 5 1 6 5 4 5 -2 17 -1 28 4 38 17 210 0 318 -31z m-50 -116 c89
-13 309 -82 330 -103 5 -5 -7 -18 -27 -30 l-35 -22 -77 36 c-43 20 -98 51
-123 68 l-46 31 35 -43 c24 -29 57 -53 104 -76 l68 -32 -57 -32 -58 -31 -41
24 c-23 13 -75 55 -117 94 -42 38 -97 84 -123 101 -25 18 -46 34 -46 37 0 6
78 -2 213 -22z m-1088 -90 c59 -84 105 -120 164 -133 29 -6 62 -11 75 -11 12
0 30 -6 40 -13 17 -13 16 -15 -15 -28 -78 -32 -198 -5 -321 74 -54 34 -127
121 -113 135 8 9 84 30 110 31 13 0 34 -19 60 -55z m791 -75 c63 -56 115 -88
189 -114 36 -12 63 -25 58 -28 -24 -13 -113 -29 -136 -23 -33 8 -197 118 -237
159 -39 40 -39 16 0 -46 19 -30 52 -62 89 -86 l60 -39 -37 -6 c-92 -15 -106
-10 -165 53 -30 33 -59 73 -65 89 -10 29 -9 31 47 66 32 19 64 42 71 51 11 14
17 12 49 -12 20 -14 55 -43 77 -64z m-421 -148 c37 -30 144 -78 210 -95 46
-12 50 -16 59 -51 6 -26 32 -62 85 -119 52 -55 85 -101 104 -144 27 -59 28
-65 13 -87 -9 -14 -35 -34 -58 -46 -36 -18 -53 -21 -117 -16 -49 4 -83 12 -99
24 -13 10 -49 59 -79 108 -98 161 -256 335 -346 382 l-42 22 56 1 c48 0 65 5
105 34 53 36 48 37 109 -13z"/>
<path d="M9917 7560 c-14 -16 -30 -30 -36 -30 -17 0 -33 -78 -25 -127 7 -45 6
-46 -17 -39 -68 22 -78 20 -119 -22 -46 -46 -54 -73 -12 -44 66 46 141 36 203
-28 54 -55 75 -51 72 16 -2 46 0 51 32 73 42 28 156 71 191 71 14 0 22 4 19
10 -10 17 -117 11 -160 -9 -22 -10 -54 -34 -71 -53 -26 -29 -34 -33 -47 -23
-22 16 -37 58 -37 106 0 42 31 114 52 122 9 4 7 6 -4 6 -9 1 -28 -12 -41 -29z"/>
<path d="M9491 7319 c19 -36 1 -113 -39 -164 -47 -60 -48 -107 -4 -198 18 -36
32 -68 32 -72 0 -3 -15 -14 -32 -25 -21 -12 -27 -20 -16 -20 26 0 284 139 325
176 l38 34 -77 -34 c-107 -48 -160 -76 -181 -94 -9 -8 -19 -13 -22 -10 -3 3
-8 41 -12 85 -5 75 -4 83 22 127 23 40 27 55 22 96 -7 56 -29 105 -52 114 -13
5 -14 2 -4 -15z"/>
<path d="M10865 7096 c-5 -2 -36 -9 -68 -16 -32 -6 -70 -22 -87 -36 l-29 -25
-11 21 c-6 12 -27 28 -45 36 -49 20 -55 17 -17 -7 36 -24 47 -53 38 -103 -5
-26 -28 -54 -96 -119 -50 -47 -90 -90 -90 -95 0 -5 -21 -12 -46 -16 -60 -8
-210 -49 -197 -53 6 -2 52 5 104 17 128 28 130 27 118 -12 -21 -75 -2 -202 29
-196 14 3 16 14 14 69 -6 108 9 143 94 222 79 74 114 132 114 190 0 27 6 40
23 51 31 20 231 58 264 50 23 -5 26 -4 16 6 -12 12 -106 24 -128 16z"/>
<path d="M9220 7023 c75 -52 132 -146 151 -248 15 -82 5 -187 -23 -243 -22
-44 -26 -47 -88 -62 -36 -8 -108 -39 -160 -67 -84 -45 -106 -52 -188 -62 -152
-19 -294 -72 -455 -172 -83 -52 -110 -55 -151 -20 -18 15 -18 15 -7 -7 7 -13
25 -25 41 -29 l30 -5 -28 -35 c-58 -73 -80 -92 -123 -103 -53 -14 -174 -18
-209 -7 -19 6 -17 3 10 -15 31 -21 46 -23 140 -22 58 0 116 3 130 5 23 4 25 1
26 -32 2 -129 154 -240 304 -222 53 6 54 7 25 16 -48 16 -188 94 -217 122 -25
23 -28 33 -28 85 l0 60 72 76 c92 97 193 148 388 198 179 45 346 100 395 131
80 49 82 49 111 31 22 -15 46 -57 80 -141 7 -19 8 -19 11 3 3 12 -1 48 -7 79
-9 42 -21 66 -46 91 -23 23 -31 38 -25 46 18 22 41 121 41 175 0 75 -25 176
-57 230 -35 60 -100 129 -137 147 l-31 14 25 -17z"/>
<path d="M8220 6508 c0 -4 4 -17 9 -31 8 -21 6 -24 -32 -35 -70 -18 -158 -105
-178 -174 l-9 -32 38 37 c20 19 64 52 97 72 54 33 66 36 120 33 50 -2 60 0 63
14 2 11 -11 26 -37 42 -22 14 -47 38 -55 53 -8 16 -15 25 -16 21z"/>
<path d="M9992 5583 c58 -57 110 -118 124 -146 23 -44 68 -199 76 -257 l3 -25
15 25 c9 16 14 57 14 117 l1 93 43 0 c51 0 80 -14 147 -69 27 -22 51 -38 53
-36 3 3 -7 23 -22 46 -19 29 -44 48 -82 66 -53 24 -66 25 -126 7 -12 -3 -18 3
-23 26 -4 16 -21 51 -39 78 l-33 47 76 0 c87 1 157 28 226 89 35 31 37 36 18
36 -12 0 -81 -16 -155 -36 -242 -66 -218 -66 -319 -11 -48 26 -90 47 -92 47
-2 0 41 -44 95 -97z"/>
<path d="M9391 5536 c-11 -18 -55 -62 -97 -97 -108 -91 -155 -154 -169 -231
l-7 -37 -31 20 c-48 29 -100 25 -139 -11 l-33 -30 37 15 c48 19 74 19 124 -4
39 -18 41 -21 47 -74 6 -66 36 -137 78 -190 17 -21 35 -52 40 -70 12 -43 11
-123 -2 -150 -8 -18 -5 -17 15 6 25 27 46 82 46 122 0 14 7 9 23 -20 27 -47
85 -74 162 -74 l50 0 -85 29 c-67 23 -92 37 -117 66 -18 21 -33 45 -33 54 0 9
-11 39 -25 66 -35 69 -53 129 -60 204 -9 87 15 149 109 282 64 92 103 158 92
158 -3 0 -14 -15 -25 -34z"/>
<path d="M11140 5253 c-44 -7 -124 -36 -170 -60 -37 -21 -54 -24 -100 -19
l-55 5 50 -24 c67 -33 105 -31 205 11 133 56 149 60 171 45 18 -11 19 -10 10
7 -9 17 -63 44 -80 41 -3 -1 -17 -4 -31 -6z"/>
</g>
</svg>
