<?xml version="1.0" standalone="no"?>
<!DOCTYPE svg PUBLIC "-//W3C//DTD SVG 20010904//EN"
 "http://www.w3.org/TR/2001/REC-SVG-20010904/DTD/svg10.dtd">
<svg version="1.0" xmlns="http://www.w3.org/2000/svg"
 width="1536.000000pt" height="700.000000pt" viewBox="0 0 1536.000000 700.000000"
 preserveAspectRatio="xMidYMid meet">
<metadata>
Created by potrace 1.16, written by Peter Selinger 2001-2019
</metadata>
<g transform="translate(0.000000,700.000000) scale(0.100000,-0.100000)"
fill="#4d4c7d" stroke="none">
<path d="M12330 6087 c-70 -16 -76 -20 -102 -70 -19 -37 -23 -65 -29 -235 -4
-107 -9 -196 -11 -198 -2 -2 -100 -4 -216 -4 -210 -1 -212 -2 -241 -26 -16
-13 -39 -45 -51 -70 -19 -39 -22 -58 -18 -142 3 -78 8 -107 28 -147 39 -79 59
-85 280 -85 102 0 195 -3 208 -6 22 -6 23 -10 20 -98 -2 -50 -2 -139 0 -197 2
-114 16 -149 72 -190 57 -42 270 -42 328 0 62 44 73 83 72 254 -1 84 -1 169
-1 190 l1 37 143 0 c240 0 324 23 351 94 42 113 42 217 -1 300 -39 77 -65 84
-340 89 l-133 2 -5 30 c-2 17 -6 95 -8 175 -3 99 -10 163 -21 203 -15 51 -22
60 -59 79 -51 26 -186 34 -267 15z m229 -106 l33 -24 -3 -217 c-3 -177 -1
-220 10 -234 12 -14 31 -17 110 -16 53 1 155 -1 226 -5 172 -10 175 -12 175
-144 0 -79 -4 -100 -20 -121 l-19 -25 -229 0 c-212 0 -230 -1 -248 -19 -17
-18 -19 -39 -24 -247 -3 -125 -9 -231 -13 -236 -5 -4 -67 -8 -138 -8 l-129 0
0 236 c0 208 -2 238 -17 250 -10 9 -45 14 -102 15 -47 0 -152 4 -232 8 l-147
8 -18 41 c-28 60 -26 186 2 224 l21 28 234 0 c129 0 240 4 247 8 9 6 12 48 12
150 0 78 3 180 7 226 l6 83 51 25 c67 32 155 29 205 -6z"/>
<path d="M6564 6045 c-17 -12 -19 -55 -25 -551 -4 -297 -10 -655 -13 -796 l-4
-258 -39 -44 c-21 -24 -127 -128 -235 -231 l-198 -186 0 -45 0 -44 1833 2
1832 3 3 37 c3 35 -3 43 -186 230 -104 106 -211 217 -238 247 l-49 53 -3 767
c-4 757 -4 766 -25 788 -11 13 -34 25 -51 27 -17 3 -606 7 -1308 10 -1026 3
-1280 1 -1294 -9z m2456 -602 c0 -225 -3 -523 -6 -664 l-7 -256 -1116 -6
c-778 -4 -1119 -3 -1128 5 -10 8 -13 148 -13 669 l0 659 1135 0 1134 0 1 -407z"/>
<path d="M6870 5180 l0 -550 1025 0 1025 0 0 550 0 550 -1025 0 -1025 0 0
-550z m1880 5 l0 -405 -867 2 -868 3 -3 397 -2 397 67 4 c38 2 429 4 871 5
l802 2 0 -405z"/>
<path d="M2129 5997 c-167 -47 -308 -231 -433 -569 -20 -53 -36 -104 -36 -112
0 -27 -18 -27 -120 -1 -373 95 -676 66 -804 -75 -107 -119 -109 -269 -6 -476
58 -119 135 -226 261 -365 l90 -99 -77 -84 c-174 -191 -326 -436 -355 -574
-34 -167 36 -321 175 -383 173 -76 452 -63 787 37 12 3 19 -9 29 -53 19 -87
76 -246 125 -350 88 -188 214 -332 324 -374 147 -55 317 14 440 180 93 126
187 342 241 557 l10 41 86 -23 c138 -37 290 -58 424 -58 185 -1 303 33 388
109 100 90 132 237 82 385 -51 153 -196 364 -364 529 l-75 74 73 81 c157 173
274 354 322 496 26 78 25 201 -3 261 -27 59 -88 121 -152 154 -150 75 -399 74
-700 -5 -63 -17 -115 -29 -116 -28 -1 2 -21 59 -44 128 -52 154 -134 325 -196
407 -116 155 -252 224 -376 190z m136 -110 c112 -58 225 -242 298 -487 57
-190 58 -173 -15 -200 -35 -12 -125 -49 -201 -82 l-139 -59 -131 59 c-73 33
-172 75 -220 93 l-89 33 6 39 c4 22 23 89 42 151 102 316 247 491 389 470 22
-4 49 -11 60 -17z m-915 -682 c112 -21 243 -55 253 -64 4 -4 -1 -59 -12 -122
-12 -63 -28 -168 -36 -234 -11 -83 -20 -122 -30 -128 -9 -4 -84 -62 -168 -128
l-152 -119 -85 88 c-211 217 -336 445 -315 572 12 74 79 127 188 150 58 13
254 4 357 -15z m2029 4 c82 -13 156 -44 181 -77 94 -119 -3 -357 -262 -643
-39 -43 -76 -79 -80 -79 -5 0 -52 35 -106 78 -53 42 -134 103 -179 135 -79 56
-82 59 -88 105 -7 54 -53 334 -62 374 -7 34 5 39 159 74 181 41 323 52 437 33z
m-1475 -165 c80 -31 143 -61 140 -65 -3 -5 -24 -19 -47 -30 -23 -12 -102 -57
-175 -101 -73 -44 -135 -78 -136 -77 -4 5 20 190 35 267 7 40 16 62 25 62 7 0
79 -25 158 -56z m740 19 c9 -30 38 -255 33 -259 -2 -2 -44 20 -93 49 -49 29
-117 68 -152 87 -34 18 -59 37 -55 41 12 12 225 98 245 98 9 1 19 -7 22 -16z
m-300 -223 c171 -93 330 -195 343 -221 14 -26 18 -384 7 -545 l-7 -90 -51 -34
c-75 -49 -260 -161 -342 -204 l-70 -38 -60 30 c-89 45 -265 149 -385 227
l-107 69 -6 59 c-8 77 -8 357 0 433 6 58 8 60 58 94 163 109 465 280 495 280
8 0 64 -27 125 -60z m588 -382 c29 -23 81 -66 116 -96 l63 -54 -38 -33 c-21
-18 -73 -60 -115 -94 l-78 -61 -1 32 c-1 18 -4 104 -7 191 -4 86 -4 157 0 157
3 0 30 -19 60 -42z m-1410 -147 l-7 -164 -97 78 c-54 43 -98 81 -98 85 0 8
201 172 205 168 2 -2 0 -77 -3 -167z m1774 -183 c87 -94 206 -249 252 -329 72
-127 92 -257 49 -320 -75 -111 -312 -128 -642 -45 -75 19 -139 36 -140 38 -2
2 4 41 11 88 8 47 20 150 28 228 8 79 18 147 22 151 5 4 54 42 109 84 55 42
127 101 160 131 33 31 63 55 67 56 3 0 41 -37 84 -82z m-1869 -121 l102 -78 6
-67 c6 -57 17 -140 51 -377 l6 -41 -113 -26 c-193 -45 -239 -52 -374 -52 -150
0 -225 17 -279 64 -47 42 -60 78 -53 153 11 139 103 290 294 487 l125 129 66
-57 c37 -31 113 -92 169 -135z m512 -337 c79 -45 91 -54 75 -63 -33 -18 -256
-107 -269 -107 -7 0 -16 12 -19 28 -12 55 -36 228 -36 259 l0 32 78 -48 c42
-26 119 -72 171 -101z m731 109 c0 -32 -34 -225 -41 -233 -8 -9 -229 73 -229
86 0 3 30 23 68 44 37 21 94 55 127 76 64 40 75 44 75 27z m-374 -295 c54 -26
142 -64 194 -85 52 -21 96 -43 98 -48 11 -33 -118 -381 -180 -486 -103 -173
-197 -227 -305 -174 -110 53 -228 261 -308 543 -14 48 -25 94 -25 101 0 7 53
33 118 59 64 26 158 67 207 91 50 24 93 44 96 44 3 1 51 -20 105 -45z"/>
<path d="M2101 4540 c-180 -66 -227 -285 -91 -421 48 -48 119 -79 180 -79 92
0 196 68 236 154 96 207 -110 426 -325 346z"/>
<path d="M14277 5970 c-88 -27 -152 -129 -145 -231 13 -184 230 -254 347 -113
55 67 65 149 27 229 -47 100 -134 143 -229 115z m129 -101 c70 -66 17 -229
-75 -229 -128 0 -165 186 -50 248 33 18 96 8 125 -19z"/>
<path d="M13545 5691 c-62 -38 -87 -79 -134 -223 -48 -145 13 -208 284 -292
135 -42 310 -103 433 -152 64 -26 153 -59 197 -74 44 -15 125 -45 180 -65 79
-29 116 -37 174 -39 l73 -1 38 44 c21 24 40 58 43 76 3 18 15 54 27 81 27 59
28 120 1 173 -27 53 -63 76 -173 113 -51 17 -101 35 -111 40 -10 5 -151 56
-315 112 -163 57 -367 131 -454 165 -168 66 -214 73 -263 42z m145 -93 c19 -6
64 -21 100 -34 77 -28 415 -145 731 -254 124 -43 235 -83 247 -89 19 -10 22
-20 22 -76 0 -66 -21 -130 -61 -186 -38 -54 -73 -46 -470 107 -195 75 -444
169 -554 210 l-200 73 1 63 c1 112 70 219 129 202 11 -3 36 -10 55 -16z"/>
<path d="M13912 4979 c-44 -13 -108 -79 -121 -126 -14 -49 -14 -134 0 -170 23
-62 109 -123 174 -123 45 0 106 32 146 77 139 154 -3 398 -199 342z m128 -98
c79 -57 53 -204 -40 -232 -74 -22 -138 27 -147 114 -6 52 25 103 77 130 39 19
71 16 110 -12z"/>
<path d="M12880 4654 c-72 -25 -93 -41 -132 -98 -73 -108 -238 -297 -251 -289
-35 22 -239 161 -282 193 -150 108 -255 73 -388 -130 -104 -160 -71 -233 181
-398 75 -50 148 -99 161 -110 l24 -18 -43 -65 c-39 -57 -90 -127 -123 -169
-84 -106 -117 -168 -117 -217 0 -54 41 -114 112 -163 36 -25 86 -63 113 -85
43 -35 52 -39 100 -38 62 2 121 26 137 57 19 37 261 356 270 356 16 0 53 -25
204 -137 149 -112 209 -143 277 -143 38 0 139 96 214 204 44 63 56 87 56 118
0 52 -34 99 -115 162 -37 28 -119 91 -183 140 -64 49 -119 95 -122 101 -2 7
39 73 93 146 139 190 174 254 174 317 0 40 -5 57 -27 83 -32 37 -162 143 -202
163 -30 16 -109 28 -131 20z m147 -143 c134 -94 146 -140 61 -241 -68 -82
-238 -339 -238 -360 0 -20 117 -122 305 -264 72 -55 132 -101 134 -103 3 -2
-102 -145 -186 -252 -3 -4 -167 104 -369 243 -65 45 -116 75 -125 71 -8 -3
-79 -94 -159 -201 -139 -190 -163 -214 -212 -214 -11 0 -65 32 -119 70 -118
84 -120 92 -54 183 25 34 80 114 122 177 42 63 89 131 104 150 19 25 25 40 18
51 -4 9 -105 88 -223 175 -249 184 -250 185 -194 271 18 28 44 70 58 94 28 47
73 79 110 79 24 0 192 -118 370 -260 41 -33 83 -60 92 -60 20 0 79 69 178 210
105 148 149 203 174 217 42 24 80 15 153 -36z"/>
<path d="M13800 4247 c-70 -33 -154 -122 -177 -189 -12 -35 -11 -44 5 -81 22
-49 37 -66 425 -477 165 -173 313 -323 330 -333 24 -14 45 -17 87 -13 51 5 58
9 112 66 76 81 98 119 98 167 0 42 -31 101 -74 138 -13 11 -47 47 -76 80 -30
33 -131 141 -225 240 -94 99 -205 216 -245 260 -133 144 -189 174 -260 142z
m367 -374 c378 -403 408 -436 422 -472 12 -28 11 -33 -18 -73 -17 -24 -46 -55
-65 -70 -54 -43 -78 -32 -182 80 -49 54 -150 160 -225 237 -296 305 -389 408
-389 431 0 54 105 164 156 164 16 0 96 -79 301 -297z"/>
<path d="M4960 4001 c-55 -11 -59 -16 -57 -84 1 -84 -6 -99 -58 -121 l-45 -18
-75 71 -75 71 -51 -37 c-28 -20 -53 -42 -55 -48 -3 -7 12 -39 34 -71 66 -100
64 -92 24 -150 -37 -52 -38 -53 -77 -46 -22 4 -67 7 -100 7 -53 0 -60 -2 -62
-20 -1 -11 -4 -43 -7 -71 l-6 -51 47 -20 c27 -12 64 -26 83 -32 35 -11 35 -12
34 -63 -2 -59 -17 -75 -94 -104 -65 -24 -71 -31 -59 -62 6 -15 14 -45 18 -67
8 -51 28 -53 131 -14 41 16 78 29 81 29 9 0 59 -85 59 -99 0 -18 -60 -140 -77
-157 -9 -9 -12 -19 -7 -24 17 -16 103 -60 118 -60 8 0 38 28 67 63 l52 64 51
-15 52 -14 22 -91 c12 -50 26 -95 31 -100 10 -10 108 9 129 26 7 6 12 34 12
72 0 34 3 76 6 93 6 28 11 32 50 38 52 7 75 -5 143 -77 l45 -48 38 20 c21 11
48 29 59 40 l20 20 -30 47 c-16 26 -40 68 -52 94 l-23 48 30 31 c26 28 33 30
69 23 155 -27 167 -23 186 61 13 56 4 85 -26 85 -7 0 -44 14 -84 31 l-71 32 0
48 c0 27 -1 52 -1 57 -1 6 92 50 170 79 27 10 30 15 22 30 -6 10 -19 39 -30
66 -23 55 -24 55 -147 30 l-84 -18 -36 36 c-33 33 -35 39 -24 60 7 13 18 27
25 31 7 4 20 29 30 55 10 26 25 53 32 58 8 6 11 18 8 27 -8 21 -93 61 -117 55
-10 -3 -18 0 -18 6 0 7 -21 -23 -46 -66 l-46 -77 -37 6 c-20 3 -43 8 -52 10
-20 5 -46 64 -54 124 -7 50 -29 91 -48 89 -6 -1 -28 -4 -47 -8z m182 -343 c75
-35 128 -85 169 -160 32 -59 34 -69 34 -158 0 -84 -3 -102 -28 -152 -32 -65
-103 -134 -174 -169 -41 -21 -63 -24 -153 -24 -91 0 -111 3 -148 23 -67 36
-129 98 -159 161 -25 50 -28 67 -28 161 0 91 3 111 23 149 50 92 142 168 236
192 59 15 168 4 228 -23z"/>
<path d="M10571 3986 c-6 -7 -15 -41 -20 -77 -16 -113 -23 -121 -101 -134 -33
-5 -37 -3 -72 51 -21 30 -38 58 -38 62 0 14 -57 5 -96 -16 -45 -23 -63 -49
-40 -58 8 -3 24 -30 36 -60 12 -29 25 -52 29 -49 4 2 15 -10 25 -27 l18 -30
-35 -35 -35 -35 -83 14 c-46 7 -92 12 -101 10 -18 -3 -62 -107 -54 -126 2 -6
45 -24 95 -41 l91 -29 0 -56 0 -57 -84 -39 c-47 -21 -87 -44 -90 -51 -6 -14
21 -101 37 -121 11 -14 50 -11 138 10 42 10 50 9 78 -11 17 -12 31 -30 31 -38
0 -9 -19 -54 -42 -99 -47 -93 -46 -94 30 -133 l42 -21 17 22 c10 13 39 44 65
70 48 48 61 52 125 33 13 -4 33 -90 33 -145 0 -45 11 -54 82 -64 30 -5 49 -3
53 4 9 14 35 138 35 166 0 15 11 24 50 36 l50 16 60 -61 c53 -56 61 -61 80
-49 11 6 30 18 43 25 56 31 58 36 33 71 -13 17 -36 55 -50 84 l-26 52 20 41
c12 22 27 42 35 45 8 3 45 -4 83 -16 95 -30 115 -26 123 25 3 22 9 49 12 61 9
27 -3 37 -75 64 -68 25 -74 32 -80 92 -5 42 -3 48 16 54 11 3 47 17 78 31 63
28 60 21 43 120 -9 53 -27 58 -123 37 -40 -9 -74 -15 -76 -13 -1 2 -19 25 -39
50 l-36 45 39 68 c22 37 41 74 42 83 2 10 -17 30 -45 51 -59 42 -76 38 -133
-37 -46 -60 -60 -66 -114 -50 -33 10 -42 18 -50 48 -5 20 -10 57 -10 83 0 41
-3 48 -22 52 -69 14 -87 14 -97 2z m204 -327 c28 -13 73 -46 101 -74 152 -152
116 -421 -72 -526 -169 -95 -391 -28 -473 144 -39 81 -47 148 -27 226 31 120
114 209 231 248 59 19 179 11 240 -18z"/>
<path d="M5930 3220 c-8 -5 -15 -32 -18 -69 -4 -50 -8 -61 -22 -61 -10 0 -24
-2 -32 -5 -8 -3 -24 14 -41 45 -16 27 -34 50 -41 50 -19 0 -83 -28 -90 -39 -3
-5 5 -34 19 -65 14 -31 25 -59 25 -61 0 -2 -12 -11 -28 -19 -24 -12 -32 -12
-73 4 -56 21 -74 13 -96 -37 -8 -19 -13 -36 -11 -38 2 -1 23 -15 48 -30 25
-15 46 -29 48 -30 2 -2 -2 -21 -9 -44 -12 -40 -13 -41 -58 -41 -58 0 -76 -22
-66 -84 10 -55 10 -55 52 -46 21 5 56 10 77 12 33 2 40 -1 47 -20 7 -18 0 -31
-36 -72 -25 -28 -45 -53 -45 -55 0 -11 63 -75 74 -75 7 0 21 10 32 21 26 29
55 38 82 26 19 -9 22 -18 22 -73 0 -75 14 -94 71 -94 36 0 41 3 55 35 7 19 14
44 14 55 0 21 32 60 50 60 5 0 23 -27 40 -60 25 -49 35 -60 55 -60 32 0 95 26
95 38 0 6 -9 40 -21 77 l-21 68 21 20 c19 19 25 20 66 9 25 -7 52 -12 59 -12
14 0 76 75 76 91 0 5 -29 25 -66 45 -42 24 -64 42 -62 52 2 9 32 25 76 40 72
24 81 34 63 70 -5 9 -14 30 -20 45 -8 20 -16 27 -27 23 -9 -3 -33 -9 -54 -12
-35 -6 -40 -4 -53 22 -14 27 -14 30 24 73 44 50 44 72 1 108 -37 32 -52 28
-92 -22 -38 -47 -47 -52 -73 -32 -12 8 -18 32 -21 82 l-5 70 -38 3 c-21 2 -42
7 -48 12 -6 5 -17 5 -25 0z m77 -235 c88 -37 139 -103 150 -193 11 -96 -44
-193 -132 -233 -76 -35 -184 -20 -249 32 -100 83 -107 259 -14 346 61 57 171
79 245 48z"/>
<path d="M9727 3194 c-4 -4 -24 -10 -44 -13 l-38 -6 -7 -74 c-6 -67 -16 -90
-40 -91 -4 0 -27 21 -51 46 l-44 45 -31 -26 c-18 -15 -32 -33 -32 -41 0 -8 -5
-14 -12 -14 -7 0 8 -21 33 -47 43 -45 45 -50 35 -77 -10 -28 -12 -28 -66 -23
l-56 6 -17 -50 c-19 -52 -16 -69 10 -69 8 0 39 -7 69 -16 68 -20 71 -40 9 -74
-25 -14 -45 -28 -45 -32 0 -5 -7 -8 -15 -8 -24 0 -17 -22 20 -65 l34 -39 51
18 c51 18 51 18 74 -4 23 -21 23 -23 10 -73 -16 -61 -18 -94 -5 -101 5 -4 30
-9 55 -12 l45 -7 28 59 c34 70 57 80 77 32 46 -110 45 -108 74 -108 15 0 38 7
50 16 19 13 22 24 22 79 0 92 19 100 107 45 20 -13 25 -12 47 9 43 41 43 58
-4 106 -62 64 -54 80 40 80 82 0 88 5 89 60 1 47 -19 65 -71 65 -43 0 -45 2
-56 38 -11 34 -10 38 10 52 12 8 33 24 46 36 24 20 24 21 8 53 -22 42 -36 46
-91 25 -36 -13 -51 -15 -70 -6 -30 14 -30 18 -5 82 11 28 20 53 20 56 0 8 -67
34 -88 34 -13 0 -28 -16 -43 -45 -21 -39 -28 -45 -55 -45 -30 0 -31 2 -37 52
-6 50 -26 86 -40 72z m152 -240 c71 -36 104 -86 109 -169 5 -76 -10 -125 -51
-172 -41 -47 -99 -73 -165 -73 -128 0 -221 91 -222 218 0 172 171 274 329 196z"/>
<path d="M10346 2627 c-14 -10 -15 -17 -7 -40 14 -36 14 -34 -6 -41 -9 -4 -32
1 -50 11 -33 17 -33 17 -59 -9 l-26 -26 21 -21 c35 -35 28 -54 -18 -49 l-39 3
-4 -47 c-3 -50 8 -64 42 -53 13 4 21 -2 28 -25 10 -27 8 -32 -13 -46 -29 -19
-32 -46 -9 -68 14 -14 18 -14 45 0 43 22 63 4 54 -47 -5 -31 -3 -39 14 -48 36
-20 62 -13 74 19 15 38 32 38 46 -1 9 -25 14 -29 32 -24 15 5 19 4 14 -5 -5
-8 -1 -11 11 -8 14 2 19 12 19 38 0 27 5 37 24 46 21 10 27 7 50 -19 l27 -29
33 38 33 38 -31 25 c-42 35 -34 55 27 67 39 7 48 13 50 33 5 30 -20 51 -59 51
-38 0 -46 43 -13 65 30 20 30 36 -1 65 -20 19 -27 21 -39 11 -20 -17 -62 -10
-57 9 15 56 13 70 -12 81 -34 15 -56 6 -70 -31 -13 -34 -57 -44 -57 -12 0 23
-28 62 -44 62 -7 0 -20 -6 -30 -13z m159 -130 c22 -12 50 -38 63 -57 20 -30
23 -44 20 -94 -4 -54 -8 -62 -46 -97 -38 -36 -46 -39 -97 -39 -111 0 -186 66
-187 165 -2 118 135 186 247 122z"/>
<path d="M5282 2597 c-6 -6 -13 -24 -17 -40 -9 -32 -50 -39 -60 -8 -3 10 -14
26 -24 35 -15 14 -23 15 -44 5 -31 -14 -39 -38 -21 -70 7 -13 13 -27 14 -30 0
-13 -43 -17 -67 -6 -22 10 -28 8 -44 -12 -26 -32 -24 -56 6 -69 26 -12 37 -62
13 -62 -7 0 -30 -5 -50 -11 -29 -8 -38 -15 -38 -32 0 -36 15 -48 59 -49 31 0
44 -5 52 -20 9 -17 6 -24 -22 -47 l-32 -28 36 -39 37 -39 29 35 c26 31 31 33
55 22 17 -7 24 -17 20 -27 -4 -8 -3 -26 0 -40 13 -50 85 -23 86 32 0 33 23 33
40 -1 13 -26 20 -31 49 -29 47 2 58 16 43 55 -10 28 -10 35 7 51 15 15 23 17
39 8 33 -17 52 -13 64 15 11 24 9 29 -16 50 -23 20 -26 30 -21 54 5 24 11 29
28 25 37 -9 48 6 41 56 l-6 44 -39 -3 c-47 -5 -61 16 -30 47 26 26 26 34 4 53
-32 27 -40 28 -67 7 -37 -29 -70 -18 -61 22 11 47 -35 81 -63 46z m75 -127
c55 -24 83 -70 83 -133 0 -105 -82 -177 -200 -177 -43 0 -55 5 -89 36 -74 66
-79 155 -12 226 61 65 142 83 218 48z"/>
</g>
</svg>
