<?xml version="1.0" standalone="no"?>
<!DOCTYPE svg PUBLIC "-//W3C//DTD SVG 20010904//EN"
 "http://www.w3.org/TR/2001/REC-SVG-20010904/DTD/svg10.dtd">
<svg version="1.0" xmlns="http://www.w3.org/2000/svg"
 width="2048.000000pt" height="1535.000000pt" viewBox="0 0 2048.000000 1535.000000"
 preserveAspectRatio="xMidYMid meet">
<metadata>
Created by potrace 1.16, written by Peter Selinger 2001-2019
</metadata>
<g transform="translate(0.000000,1535.000000) scale(0.100000,-0.100000)"
fill="#000000" stroke="none">
<path d="M9867 9740 c-64 -11 -185 -82 -262 -152 -100 -92 -171 -255 -182
-419 -9 -140 34 -288 121 -408 26 -37 35 -63 45 -131 20 -137 23 -150 31 -155
4 -2 133 -4 286 -3 154 0 306 0 340 -1 l61 -1 22 114 c11 63 21 125 21 139 0
14 16 48 36 77 91 132 130 267 121 415 -10 166 -99 320 -250 432 -99 73 -273
114 -390 93z m299 -85 c84 -41 175 -123 218 -197 31 -53 56 -166 56 -252 0
-107 -70 -322 -135 -417 -31 -44 -55 -126 -55 -191 l0 -48 -162 -2 c-235 -4
-338 -2 -379 5 -36 7 -37 9 -41 60 -5 57 -48 161 -97 230 -37 53 -82 193 -88
277 -11 145 61 335 166 439 106 104 204 142 349 137 83 -3 100 -7 168 -41z"/>
<path d="M9739 9571 c-44 -28 -145 -145 -175 -204 -18 -34 -15 -72 5 -72 8 0
30 26 48 58 40 67 89 119 156 165 37 25 48 38 45 55 -4 32 -27 31 -79 -2z"/>
<path d="M10652 8447 l-22 -24 36 -49 c58 -77 86 -104 109 -104 23 0 45 17 45
35 0 13 -128 165 -139 165 -4 0 -17 -10 -29 -23z"/>
<path d="M9650 8360 l0 -30 300 0 300 0 0 30 0 30 -300 0 -300 0 0 -30z"/>
<path d="M9797 8293 l-148 -4 3 -42 3 -42 298 -3 297 -2 0 50 0 50 -152 -2
c-84 -1 -220 -4 -301 -5z"/>
<path d="M9644 8166 c-3 -8 23 -49 58 -94 l63 -80 120 -3 c66 -1 156 -2 199
-1 l79 1 28 52 c16 28 40 67 54 85 25 32 25 33 6 44 -12 6 -128 10 -311 10
-239 0 -292 -2 -296 -14z"/>
<path d="M9760 7744 c-317 -26 -366 -34 -680 -105 -96 -22 -221 -49 -276 -60
-157 -30 -295 -84 -486 -190 -234 -130 -418 -324 -546 -577 -111 -218 -126
-275 -147 -527 -27 -332 -19 -416 54 -583 93 -215 239 -420 349 -491 64 -40
190 -90 264 -103 75 -13 241 4 302 31 35 15 47 28 70 76 15 32 29 55 32 53 2
-3 7 -23 9 -44 3 -21 14 -73 25 -114 11 -40 25 -137 30 -215 9 -116 15 -149
36 -192 38 -79 133 -153 214 -167 19 -3 98 -18 175 -32 180 -33 413 -35 605
-5 69 10 132 22 140 25 12 5 19 -7 32 -54 9 -33 14 -60 11 -60 -2 0 -14 5 -26
10 -20 9 -20 9 -3 -2 25 -17 38 -32 88 -96 22 -29 57 -61 77 -72 40 -20 130
-41 172 -41 14 1 34 -6 45 -14 18 -14 17 -14 -9 -5 -50 18 -53 10 -7 -16 51
-29 97 -69 112 -99 6 -11 -3 -6 -18 12 -32 34 -111 93 -127 93 -6 0 8 -13 30
-29 55 -40 84 -81 126 -178 20 -45 48 -101 63 -125 32 -52 94 -118 110 -118 6
0 28 -13 49 -30 49 -39 105 -53 187 -48 112 8 198 73 198 149 0 74 -43 146
-145 245 -52 50 -95 97 -95 105 0 11 28 14 148 14 112 1 161 5 205 19 115 36
232 86 321 140 183 110 246 190 246 315 l0 63 73 -6 c66 -6 70 -5 42 7 -30 14
-29 14 39 21 143 16 323 94 412 178 62 58 87 105 120 225 44 162 43 234 -12
511 -13 68 -24 151 -24 185 0 98 -44 310 -94 455 -71 209 -162 345 -385 579
-75 78 -163 170 -196 205 -51 54 -155 137 -290 233 -76 53 -227 143 -334 198
-64 32 -132 68 -151 78 -81 42 -400 124 -602 155 -98 15 -458 26 -558 18z
m-40 -181 c0 -21 4 -44 9 -51 5 -8 6 8 3 37 l-5 51 255 0 c140 0 283 -3 317
-6 59 -7 61 -8 45 -25 -10 -11 -12 -19 -7 -19 6 0 16 6 23 14 22 28 161 14
291 -29 63 -20 118 -41 123 -45 4 -4 -17 -14 -48 -21 -43 -9 -62 -9 -81 -1
-36 17 -41 15 -20 -8 15 -16 16 -25 8 -43 -9 -20 -34 -30 -145 -61 -73 -20
-146 -42 -163 -49 -44 -17 -122 -94 -135 -133 l-12 -34 -36 27 -37 27 26 -29
c23 -26 27 -42 31 -107 5 -81 2 -88 -42 -88 -32 0 -177 -80 -229 -126 -58 -52
-134 -162 -156 -225 -30 -84 -36 -173 -19 -257 14 -71 79 -231 88 -221 3 2 -5
31 -16 64 -44 129 -32 310 26 410 39 66 112 149 175 198 51 40 69 48 128 57
37 5 85 10 106 10 38 0 107 40 107 62 0 5 -15 27 -33 49 -41 47 -61 107 -48
141 16 42 86 96 148 114 80 23 231 102 250 130 8 13 13 33 10 44 -4 17 0 20
34 20 21 0 57 7 80 16 l40 17 136 -68 c94 -47 131 -70 121 -76 -19 -13 -77
-11 -136 5 -29 7 -52 11 -52 9 0 -2 19 -13 43 -23 51 -24 108 -25 148 -5 28
15 32 14 82 -12 l52 -28 -1 -85 c-1 -47 0 -67 2 -45 8 78 15 105 28 105 39 0
351 -230 406 -299 l30 -39 -93 -4 c-79 -3 -101 -8 -153 -35 l-62 -32 -29 48
c-17 26 -45 58 -64 71 l-34 24 21 -25 c70 -79 71 -161 10 -466 -44 -219 -68
-293 -150 -465 -49 -104 -193 -266 -281 -316 -19 -11 -19 -11 5 -12 30 0 152
57 216 101 25 17 47 29 50 27 8 -9 -28 -125 -53 -168 -36 -63 -146 -168 -239
-230 -104 -69 -103 -68 -42 -59 118 16 183 46 248 113 l45 46 17 -33 c41 -81
281 -145 421 -113 l37 8 0 -73 c0 -127 -18 -246 -50 -327 -17 -43 -36 -85 -44
-95 -13 -16 -15 -16 -57 3 -53 24 -151 26 -254 6 -103 -21 -170 -4 -274 67
-28 19 -69 35 -111 43 -71 13 -83 12 -164 -13 -41 -13 -62 -14 -142 -3 -52 7
-96 15 -98 19 -2 3 1 33 7 67 18 106 -13 129 -33 24 -6 -30 -14 -58 -18 -62
-5 -5 -55 -11 -113 -14 -57 -2 -113 -6 -124 -7 -17 -2 -20 5 -23 46 -2 29 3
60 12 79 9 17 16 37 16 45 0 22 -27 15 -50 -14 -20 -25 -22 -36 -17 -101 4
-51 2 -74 -6 -77 -83 -29 -127 -49 -152 -70 l-30 -26 33 16 c20 10 74 18 145
22 128 7 131 5 140 -67 5 -38 14 -52 60 -96 l54 -51 -80 -48 c-85 -51 -210
-87 -417 -121 -127 -21 -396 -21 -510 0 -47 9 -121 21 -164 27 -85 11 -120 25
-179 73 -54 43 -75 82 -92 172 -19 98 -19 104 0 77 8 -11 46 -44 84 -72 53
-39 77 -51 105 -51 20 0 36 5 36 10 0 6 -9 10 -19 10 -11 0 -52 36 -98 84 -63
67 -90 107 -132 193 -68 138 -84 188 -69 216 25 48 301 325 346 348 15 7 40
24 55 36 31 25 62 31 52 11 -4 -7 2 -3 12 10 10 12 39 29 63 36 66 20 254 39
306 31 42 -6 44 -8 44 -39 0 -18 -7 -57 -16 -87 -24 -80 -14 -226 22 -329 28
-78 28 -79 9 -101 -11 -12 -52 -46 -92 -75 -40 -29 -77 -63 -84 -76 -11 -21
-10 -21 19 4 18 15 58 36 89 47 32 11 70 27 85 35 24 13 28 12 50 -11 27 -29
70 -53 95 -53 11 0 1 10 -25 26 -23 14 -48 37 -56 52 -13 24 -12 30 5 51 10
13 19 29 19 37 0 8 23 39 51 70 57 63 63 97 17 102 -34 4 -80 -41 -113 -112
l-23 -49 -17 54 c-23 74 -31 254 -15 305 17 51 79 142 125 183 20 17 122 75
227 127 105 53 226 120 268 150 93 65 124 78 216 94 70 11 72 11 198 -30 120
-39 166 -66 166 -96 0 -7 5 -16 11 -20 14 -8 2 53 -16 81 -7 12 -43 36 -81 54
l-68 33 34 12 c19 7 47 19 62 27 30 16 114 110 122 137 10 34 26 148 26 190 0
26 7 55 18 70 33 48 34 58 3 22 -47 -52 -59 -80 -67 -151 -12 -110 -34 -138
-182 -238 -58 -39 -66 -42 -94 -32 -17 6 -62 11 -99 11 l-69 0 -40 52 c-49 61
-75 110 -84 158 -4 19 -12 48 -18 63 -10 27 -11 27 -30 10 -17 -15 -19 -26
-14 -67 3 -27 15 -78 27 -114 l22 -65 -33 -68 c-24 -48 -45 -76 -74 -97 -50
-35 -366 -206 -371 -200 -6 6 25 118 40 148 8 15 21 32 29 39 24 20 19 30 -13
28 -16 -1 -28 -4 -25 -6 2 -2 -6 -15 -16 -29 -11 -13 -20 -33 -20 -42 0 -40
-53 -132 -92 -160 -74 -54 -136 -70 -266 -70 -64 0 -137 -5 -161 -11 -36 -8
-47 -7 -62 7 -27 24 -24 45 14 105 30 49 32 58 31 138 -1 54 -7 99 -17 121
l-15 35 5 -46 c3 -26 1 -49 -5 -53 -5 -3 -7 6 -5 22 3 23 2 24 -6 7 -5 -11
-21 -51 -36 -90 -14 -38 -40 -99 -58 -135 -36 -72 -30 -70 -143 -52 -78 13
-139 44 -165 85 l-20 32 6 -35 c8 -35 34 -92 57 -121 23 -29 82 -59 116 -59
32 0 32 -1 32 -47 0 -41 -4 -50 -38 -78 -20 -18 -57 -60 -82 -94 -24 -33 -49
-61 -54 -61 -6 0 -32 -21 -59 -47 l-48 -48 -72 1 c-82 0 -152 22 -292 88 -99
47 -203 137 -230 197 l-14 34 -1 -28 c0 -15 7 -44 15 -64 8 -19 15 -36 15 -37
0 0 -44 -1 -97 0 l-98 1 -62 121 -63 122 0 92 c0 51 5 113 11 138 14 65 191
420 225 454 47 47 141 116 178 131 63 27 101 20 142 -25 53 -57 121 -100 160
-100 l32 0 -15 -52 c-9 -29 -21 -60 -27 -68 -9 -13 -9 -13 5 -2 9 7 24 38 34
70 10 31 28 70 41 85 27 32 39 83 31 138 l-5 39 71 0 c40 0 109 -9 155 -20 46
-11 107 -20 135 -19 l52 0 -50 14 c-27 7 -74 23 -104 34 -72 29 -154 36 -218
18 l-52 -14 -11 27 c-6 15 -26 42 -45 60 -30 29 -32 35 -23 61 20 59 106 117
308 208 21 9 15 10 -35 6 l-60 -5 -1 65 c-2 60 0 67 27 89 33 28 106 46 184
46 65 0 88 -18 105 -81 13 -48 11 -69 -19 -153 -24 -69 -27 -93 -5 -53 16 30
29 37 20 10 -3 -10 5 -5 19 12 13 16 27 43 31 60 10 48 42 96 97 147 39 35 49
50 40 59 -17 17 -50 2 -94 -42 -34 -34 -40 -37 -45 -22 -16 53 -37 84 -65 99
-66 34 -246 -8 -300 -70 -21 -24 -22 -24 -48 -8 l-26 17 23 -32 c14 -20 22
-46 22 -73 0 -25 4 -39 10 -35 6 3 10 -4 10 -18 0 -19 -12 -29 -61 -52 -71
-35 -133 -97 -149 -153 l-12 -39 -47 14 c-78 24 -220 -3 -259 -50 -12 -14 -9
-14 35 -1 82 25 201 -6 240 -63 20 -29 43 -97 43 -127 0 -30 -38 -16 -88 33
-27 28 -62 53 -77 57 -30 8 -113 0 -165 -15 -56 -17 -220 -153 -253 -211 -25
-43 -31 -48 -48 -40 -10 6 -25 23 -34 39 -13 27 -12 33 24 107 21 44 50 94 66
112 37 44 136 119 168 127 28 7 109 83 170 158 46 56 107 91 150 84 27 -4 28
-3 12 9 -18 14 -40 12 -105 -9 -19 -6 -39 -10 -43 -9 -5 1 -5 -3 -1 -9 5 -8 2
-10 -8 -6 -17 6 -48 -21 -48 -41 0 -17 -43 -42 -100 -57 -27 -7 -76 -28 -108
-45 -40 -23 -52 -27 -41 -14 105 128 150 177 202 223 73 63 197 146 282 189
75 37 258 97 345 112 36 6 169 33 295 60 242 52 356 72 363 65 2 -2 -4 -17
-13 -32 -14 -23 -23 -28 -45 -25 -35 5 -75 -16 -120 -63 l-35 -36 50 28 c38
21 63 28 105 28 52 0 55 1 63 30 22 75 27 80 102 86 137 11 125 14 125 -28z
m2111 -820 c106 -107 209 -229 209 -247 0 -2 -18 -7 -39 -11 -48 -8 -110 -46
-185 -114 -87 -79 -175 -127 -189 -104 -3 4 -8 29 -12 56 -7 43 -6 47 14 47
28 0 100 66 118 108 10 25 11 42 3 70 -19 68 -30 72 -30 11 0 -48 -5 -65 -33
-105 -41 -59 -64 -75 -77 -54 -5 8 -10 24 -10 36 0 26 -37 82 -68 102 l-23 15
17 -36 c16 -34 16 -39 -1 -104 -47 -180 -45 -217 11 -270 42 -40 85 -48 159
-33 49 10 66 21 125 76 45 43 80 87 104 133 38 73 94 131 126 131 29 0 82 -87
125 -207 37 -99 37 -103 21 -128 -21 -32 -88 -64 -133 -65 -17 0 -39 -7 -47
-16 -22 -22 -20 -67 4 -89 15 -14 20 -31 20 -71 0 -66 -12 -98 -55 -146 -42
-46 -45 -79 -9 -115 21 -21 31 -24 57 -18 18 5 48 8 67 9 l35 1 0 -118 c0 -98
2 -115 13 -100 35 49 38 134 7 206 -6 13 -2 17 16 17 24 0 87 -33 102 -54 5
-6 6 2 2 18 -9 42 -40 81 -75 96 -35 14 -34 13 -15 65 23 64 19 151 -10 213
l-25 54 30 36 c17 20 30 42 30 49 0 7 4 13 9 13 12 0 52 -217 62 -340 4 -58
13 -121 18 -140 29 -100 49 -322 35 -377 -6 -22 -8 -21 -35 13 -16 20 -29 41
-29 47 0 20 -44 57 -67 57 -39 0 -38 -27 3 -76 81 -95 94 -116 94 -155 0 -46
-10 -53 -46 -34 -46 24 -127 19 -182 -10 -26 -14 -53 -25 -61 -25 -7 0 -40
-12 -73 -27 -51 -22 -65 -25 -89 -16 l-29 11 15 -29 c9 -17 26 -31 43 -35 15
-3 31 -7 36 -8 4 -1 -8 -21 -28 -45 -20 -24 -35 -46 -32 -48 7 -7 65 26 104
61 20 18 56 38 80 45 23 6 58 26 77 43 l35 30 35 -38 c19 -21 35 -43 35 -49 0
-36 -223 -169 -354 -211 -76 -24 -81 -24 -126 -9 -25 8 -82 38 -126 66 -43 27
-98 55 -121 62 -38 10 -59 27 -34 27 18 0 103 85 122 122 11 22 23 62 26 89 4
34 9 46 17 40 16 -13 115 -41 146 -41 35 0 117 42 168 86 42 36 62 66 77 114
7 23 4 22 -34 -13 -24 -21 -84 -58 -134 -83 -72 -35 -101 -44 -143 -44 -66 0
-104 14 -104 38 0 19 -33 153 -45 183 -4 12 13 25 70 54 50 26 83 50 96 71 26
43 24 46 -13 25 -54 -31 -255 -61 -409 -61 -146 0 -189 9 -212 44 -13 20 -12
29 9 92 17 50 24 91 24 153 l0 83 45 50 c38 43 63 86 119 213 l13 29 22 -74
c21 -69 29 -81 94 -143 86 -82 133 -106 205 -107 l52 0 -21 -41 c-11 -23 -39
-61 -61 -85 -23 -25 -39 -46 -37 -48 2 -3 22 8 44 23 45 30 84 83 92 124 6 30
8 31 57 42 17 3 53 31 86 64 65 67 62 80 30 -129 -10 -69 -22 -146 -25 -171
-3 -25 -19 -73 -35 -108 l-30 -62 31 22 c39 27 84 89 101 137 13 37 16 197 7
393 l-4 95 -36 -51 c-53 -73 -113 -99 -212 -93 -53 3 -84 11 -108 26 -19 12
-58 33 -86 47 -58 27 -101 78 -129 152 -15 38 -16 52 -6 91 17 67 39 201 52
320 9 79 9 122 0 183 -6 45 -10 83 -8 85 2 2 49 8 104 15 99 11 214 25 224 28
3 0 62 -56 131 -126z m-3928 -303 c-18 -45 -96 -281 -104 -315 -5 -27 -7 18
-4 133 4 137 8 176 20 188 8 9 20 24 26 35 10 19 11 19 39 -3 18 -15 27 -29
23 -38z m295 -917 l45 -53 -34 -14 c-19 -8 -57 -18 -86 -24 -59 -10 -62 -8
-122 81 -23 34 -28 48 -19 52 27 9 65 13 117 11 52 -1 55 -3 99 -53z m188
-120 c56 -21 86 -26 164 -27 52 -1 109 2 125 7 l30 7 -30 -26 c-16 -14 -68
-44 -115 -67 l-84 -41 -76 16 c-91 19 -190 56 -190 70 0 16 76 88 93 88 8 0
46 -12 83 -27z m2359 -438 c17 -7 45 -26 63 -41 31 -27 32 -30 17 -51 -11 -16
-30 -23 -73 -28 -31 -4 -107 -18 -169 -31 -107 -23 -115 -23 -190 -9 -120 23
-194 55 -216 93 -11 18 -18 34 -16 36 2 2 40 -1 84 -7 44 -6 130 -11 190 -11
109 -1 111 -1 175 36 66 38 74 39 135 13z m598 -145 c21 -11 68 -27 105 -35
37 -8 105 -30 152 -49 47 -20 91 -36 98 -36 6 0 12 -3 12 -6 0 -17 -23 -94
-29 -94 -3 0 -19 15 -36 32 -42 43 -181 105 -305 135 -89 21 -119 25 -195 19
-49 -3 -115 -12 -145 -21 -30 -9 -61 -17 -67 -18 -7 -2 -34 -34 -61 -73 -71
-103 -202 -197 -357 -256 l-50 -19 93 5 c88 6 92 5 92 -15 0 -35 29 -77 75
-109 25 -17 45 -34 45 -37 0 -3 -33 -3 -72 0 -77 7 -192 37 -170 44 8 3 -8 27
-41 66 -30 34 -60 72 -69 85 -8 12 -32 40 -52 62 -20 21 -48 56 -62 77 l-27
38 6 -40 c4 -22 22 -70 41 -107 19 -38 32 -68 30 -68 -12 0 -105 52 -130 73
-16 13 -48 36 -71 51 -24 14 -43 30 -43 35 0 5 26 19 58 31 31 13 95 41 140
62 46 21 91 38 101 38 9 0 32 8 51 19 48 25 240 61 331 61 72 1 126 9 314 49
122 26 191 26 238 1z m-70 -110 c56 -17 143 -42 192 -56 116 -33 165 -51 189
-69 19 -14 19 -15 1 -35 -10 -11 -33 -30 -51 -41 l-33 -20 -58 47 c-128 104
-245 132 -461 110 -139 -15 -200 -32 -110 -31 51 0 51 0 105 -65 30 -36 72
-86 94 -112 23 -28 61 -57 95 -74 39 -19 51 -29 42 -35 -35 -23 -93 -1 -346
133 l-112 60 22 39 c12 21 26 39 30 39 5 0 7 3 4 8 -9 15 49 117 74 130 40 21
201 7 323 -28z m-50 -116 c89 -13 309 -82 330 -103 5 -5 -7 -18 -27 -30 l-35
-22 -77 36 c-43 20 -98 51 -123 68 l-46 31 35 -43 c24 -29 57 -53 104 -76 l68
-32 -57 -32 -58 -31 -41 24 c-23 13 -75 55 -117 94 -42 38 -97 84 -123 101
-25 18 -46 34 -46 37 0 6 78 -2 213 -22z m-1123 -44 c0 -20 124 -153 155 -166
17 -7 56 -16 86 -20 30 -4 63 -11 73 -17 18 -9 18 -11 -10 -25 -70 -38 -210
-7 -331 73 -54 36 -121 121 -107 135 9 8 84 27 117 29 9 1 17 -3 17 -9z m826
-121 c63 -56 115 -88 189 -114 36 -12 63 -25 58 -28 -24 -14 -113 -29 -136
-23 -37 9 -215 130 -250 169 l-28 32 15 -38 c25 -61 55 -97 117 -137 l58 -38
-37 -6 c-92 -15 -106 -10 -165 53 -30 33 -59 73 -65 89 -10 29 -9 31 47 66 32
19 64 42 71 51 11 14 17 12 49 -12 20 -14 55 -43 77 -64z m-421 -147 c46 -36
137 -78 209 -96 47 -12 51 -16 60 -51 6 -26 32 -62 85 -119 52 -55 85 -101
104 -144 27 -59 28 -65 13 -87 -51 -78 -232 -89 -294 -18 -13 16 -42 58 -63
95 -81 138 -256 330 -342 375 l-42 22 56 1 c47 0 65 6 105 33 27 19 54 31 59
27 6 -4 28 -21 50 -38z"/>
<path d="M9917 7560 c-14 -16 -30 -30 -36 -30 -17 0 -33 -78 -25 -127 7 -45 6
-46 -17 -39 -68 22 -78 20 -119 -22 -48 -48 -53 -73 -8 -40 26 18 45 22 91 21
56 -1 61 -3 103 -48 59 -61 80 -58 77 11 -2 46 0 51 32 73 42 28 156 71 191
71 14 0 22 4 19 10 -10 17 -117 11 -160 -9 -22 -10 -54 -34 -71 -53 -26 -29
-34 -33 -47 -23 -22 16 -37 58 -37 106 0 42 31 114 52 122 9 4 7 6 -4 6 -9 1
-28 -12 -41 -29z"/>
<path d="M9491 7313 c16 -44 0 -108 -40 -159 -47 -62 -48 -113 0 -204 l33 -63
-22 -18 c-12 -9 -28 -19 -35 -22 -6 -2 -9 -7 -6 -11 7 -7 243 113 305 155 77
53 67 59 -27 17 -52 -22 -114 -54 -139 -69 l-45 -28 -7 37 c-15 78 -9 132 18
178 22 38 26 53 21 94 -7 55 -29 105 -51 113 -13 5 -13 1 -5 -20z"/>
<path d="M10865 7096 c-5 -2 -36 -9 -68 -16 -32 -6 -70 -22 -87 -36 l-29 -25
-11 21 c-6 12 -27 28 -45 36 -49 20 -55 17 -17 -7 36 -24 47 -53 38 -103 -5
-26 -28 -54 -96 -119 -50 -47 -90 -90 -90 -95 0 -5 -21 -12 -46 -16 -60 -8
-210 -49 -197 -53 6 -2 52 5 104 17 128 28 130 27 118 -12 -21 -75 -2 -202 29
-196 14 3 16 14 14 69 -6 108 9 143 94 222 79 74 114 132 114 190 0 27 6 40
23 51 30 20 235 59 266 51 21 -5 23 -4 14 6 -12 12 -106 23 -128 15z"/>
<path d="M9200 7036 c0 -2 16 -14 35 -26 38 -24 97 -108 123 -174 10 -27 15
-78 16 -146 1 -93 -2 -111 -24 -155 -24 -48 -27 -50 -90 -65 -62 -15 -167 -63
-220 -100 -15 -11 -62 -22 -122 -29 -160 -18 -348 -92 -496 -193 -38 -26 -46
-28 -74 -19 -18 6 -41 19 -51 29 -20 17 -20 17 -2 -11 9 -15 28 -30 41 -33 13
-3 24 -8 24 -10 0 -13 -85 -113 -104 -122 -48 -22 -183 -36 -223 -24 -54 17
-53 6 1 -19 41 -18 62 -20 144 -16 54 3 106 6 117 8 17 3 20 -1 20 -34 0 -20
3 -37 8 -37 4 0 7 -10 7 -22 0 -53 106 -139 195 -158 31 -6 69 -7 100 -1 28 5
43 9 33 10 -21 1 -161 75 -215 114 -43 30 -43 31 -43 94 l0 63 72 76 c59 62
88 83 163 120 52 25 137 56 196 70 235 57 387 112 480 171 47 30 80 -6 135
-142 7 -19 8 -19 11 3 3 12 -1 48 -7 79 -9 42 -21 66 -46 91 -23 23 -31 38
-25 46 19 23 41 122 41 180 0 34 -7 86 -15 116 -11 42 -12 56 -2 62 8 5 7 8
-5 8 -9 0 -19 8 -23 18 -8 27 -78 118 -106 141 -28 21 -69 44 -69 37z"/>
<path d="M8220 6508 c0 -4 4 -17 9 -31 8 -21 6 -24 -32 -35 -70 -18 -158 -105
-178 -174 l-9 -32 38 37 c20 19 64 52 97 72 54 33 66 36 120 33 50 -2 60 0 63
14 2 11 -11 26 -37 42 -22 14 -47 38 -55 53 -8 16 -15 25 -16 21z"/>
<path d="M9992 5583 c58 -57 110 -118 124 -146 23 -44 68 -199 76 -257 l3 -25
14 25 c9 16 15 58 15 117 l1 93 43 0 c51 0 80 -14 147 -69 27 -22 51 -39 53
-37 2 2 -8 23 -23 46 -19 30 -41 49 -81 67 -53 24 -66 25 -125 7 -11 -3 -19 7
-27 34 -7 22 -25 56 -42 77 -16 21 -30 38 -30 39 0 0 35 1 78 1 89 1 159 28
226 89 35 32 37 36 17 36 -12 0 -95 -20 -185 -45 -90 -25 -174 -45 -187 -45
-12 0 -60 20 -106 45 -45 25 -84 45 -87 45 -2 0 42 -44 96 -97z"/>
<path d="M9396 5542 c-8 -16 -54 -62 -103 -104 -49 -42 -101 -94 -117 -116
-29 -42 -55 -104 -56 -134 0 -16 -3 -15 -35 4 -47 27 -107 20 -144 -17 l-26
-26 37 16 c48 20 74 19 124 -4 39 -18 41 -21 47 -72 6 -63 42 -150 81 -196 15
-18 31 -47 37 -65 12 -44 12 -124 -2 -151 -8 -18 -5 -17 15 6 25 27 46 82 46
122 0 14 7 9 23 -20 27 -47 85 -74 162 -74 l50 0 -85 29 c-67 23 -92 37 -117
66 -18 21 -33 45 -33 54 0 9 -11 39 -25 66 -35 69 -53 129 -60 204 -9 86 15
151 99 267 60 83 112 173 101 173 -2 0 -11 -13 -19 -28z"/>
<path d="M11145 5252 c-44 -4 -123 -32 -175 -59 -37 -20 -55 -24 -100 -19
l-55 5 55 -26 c71 -32 107 -28 235 26 57 25 108 41 122 38 23 -4 31 7 13 18
-20 12 -65 21 -95 17z"/>
</g>
</svg>
