<?xml version="1.0" standalone="no"?>
<!DOCTYPE svg PUBLIC "-//W3C//DTD SVG 20010904//EN"
 "http://www.w3.org/TR/2001/REC-SVG-20010904/DTD/svg10.dtd">
<svg version="1.0" xmlns="http://www.w3.org/2000/svg"
 width="1536.000000pt" height="700.000000pt" viewBox="0 0 1536.000000 700.000000"
 preserveAspectRatio="xMidYMid meet">
<metadata>
Created by potrace 1.16, written by Peter Selinger 2001-2019
</metadata>
<g transform="translate(0.000000,700.000000) scale(0.100000,-0.100000)"
fill="#000000" stroke="none">
<path d="M6559 6044 c-13 -16 -14 -54 -34 -1199 l-7 -410 -156 -150 c-325
-312 -322 -309 -322 -355 l0 -40 1839 0 c1798 0 1839 0 1844 19 12 48 -8 75
-172 240 -92 91 -197 200 -234 242 l-67 76 -6 769 c-4 508 -10 773 -17 782
-28 35 -35 36 -1353 39 -1182 3 -1303 2 -1315 -13z m2451 -211 c8 -7 2 -1294
-5 -1301 -11 -11 -2226 -15 -2237 -4 -6 6 -12 258 -15 661 l-6 651 274 2 c378
4 1983 -4 1989 -9z"/>
<path d="M6867 5733 c-4 -3 -7 -253 -7 -555 l0 -548 1030 0 1030 0 0 555 0
555 -1023 0 c-563 0 -1027 -3 -1030 -7z m1878 -224 c4 -39 4 -219 0 -401 l-8
-330 -852 4 c-470 1 -856 6 -860 9 -8 9 -20 752 -12 773 6 15 81 16 866 16
l859 0 7 -71z"/>
<path d="M10911 5846 c-12 -92 -16 -105 -35 -110 -47 -13 -64 -5 -118 54 -32
35 -63 60 -75 60 -21 0 -113 -57 -113 -70 0 -5 24 -44 54 -87 l54 -78 -32 -38
-31 -37 -85 15 c-47 8 -89 15 -93 15 -13 0 -47 -82 -47 -113 0 -26 7 -32 79
-65 73 -33 80 -38 86 -71 8 -42 -8 -57 -103 -97 -70 -30 -73 -40 -36 -117 17
-35 21 -38 49 -33 16 4 59 9 95 12 60 6 67 4 88 -19 l24 -25 -21 -47 c-11 -25
-29 -59 -41 -74 -11 -16 -20 -35 -20 -43 0 -16 71 -88 87 -88 6 0 40 27 75 59
52 49 67 59 88 54 65 -15 67 -18 74 -89 10 -96 13 -99 89 -102 l64 -3 6 79 c3
43 9 85 12 93 3 9 25 25 49 37 l44 21 47 -65 c60 -82 78 -87 133 -36 23 21 42
45 42 51 0 7 -16 40 -37 72 -38 63 -38 69 2 123 13 18 16 18 84 1 39 -9 77
-15 84 -12 8 3 24 30 37 61 27 68 23 77 -67 117 l-61 28 -4 57 -3 57 60 28
c33 15 68 30 79 34 22 6 19 45 -8 109 -16 38 -17 38 -59 32 -23 -3 -63 -11
-89 -18 -44 -11 -48 -10 -67 13 -37 44 -37 65 3 123 20 29 36 57 36 62 0 18
-65 74 -86 74 -11 0 -38 -18 -59 -41 -22 -22 -52 -49 -66 -60 -25 -18 -28 -18
-68 -1 l-42 17 3 81 3 82 -31 11 c-17 6 -51 11 -75 11 l-45 0 -13 -104z m205
-225 c62 -28 138 -103 165 -164 35 -79 34 -192 -4 -269 -52 -107 -146 -169
-267 -176 -136 -7 -244 58 -307 186 -23 48 -28 70 -28 137 0 67 4 88 27 130
82 157 260 224 414 156z"/>
<path d="M9886 5765 c-16 -12 -18 -22 -12 -65 11 -83 -26 -106 -79 -50 -16 17
-32 30 -36 30 -13 0 -89 -53 -89 -62 0 -5 18 -33 40 -62 22 -29 40 -58 40 -65
0 -9 -20 -12 -72 -9 l-73 3 -3 -49 c-4 -56 2 -64 61 -86 33 -12 43 -21 45 -41
2 -21 -7 -35 -47 -69 -28 -23 -51 -46 -51 -52 0 -20 53 -78 72 -78 10 0 40 11
67 25 27 13 51 21 55 18 10 -11 7 -46 -10 -93 -15 -44 -15 -45 11 -67 14 -13
39 -23 55 -23 27 0 46 20 95 97 0 1 11 0 22 -3 15 -4 27 -20 36 -48 12 -35 18
-41 45 -44 17 -2 41 2 53 8 20 11 21 17 15 75 -5 55 -4 65 11 74 14 7 28 0 69
-35 29 -24 56 -44 61 -43 13 0 51 53 58 81 5 20 0 29 -29 49 -32 21 -35 28
-30 54 9 44 11 45 66 42 48 -2 52 0 61 26 14 42 1 76 -31 83 -47 10 -70 22
-82 43 -9 19 -5 24 40 52 55 34 57 37 36 78 -27 50 -39 55 -92 32 -38 -17 -50
-19 -63 -9 -9 7 -17 13 -19 14 -2 1 8 25 23 53 14 29 23 56 20 61 -3 5 -27 19
-53 30 -44 20 -48 20 -57 4 -23 -40 -79 -95 -94 -92 -11 2 -19 22 -26 63 l-10
60 -40 2 c-23 2 -48 -3 -59 -12z m205 -222 c75 -39 114 -102 113 -185 -1 -48
-6 -66 -30 -101 -83 -117 -221 -136 -321 -44 -139 128 -51 355 138 357 30 0
63 -9 100 -27z"/>
<path d="M10193 4944 c-7 -3 -9 -18 -6 -40 4 -25 2 -34 -8 -34 -23 1 -52 28
-44 41 14 22 -22 -5 -49 -38 -28 -33 -26 -58 4 -68 16 -5 17 -10 8 -31 -8 -17
-19 -24 -40 -24 -56 0 -62 -74 -6 -82 12 -2 26 -11 32 -20 8 -13 5 -21 -17
-38 -33 -26 -34 -40 -4 -68 28 -26 40 -27 74 -5 25 17 26 17 17 -7 -16 -50
-11 -74 19 -84 23 -8 31 -7 38 4 22 38 27 42 47 36 15 -5 22 -17 24 -44 3 -33
6 -37 28 -35 69 7 73 11 67 58 -8 53 4 60 55 31 36 -20 37 -20 57 -2 27 25 26
34 -6 68 -33 35 -23 62 23 63 27 0 29 3 29 40 0 33 -4 41 -22 43 -12 2 -27 10
-34 18 -9 11 -7 18 15 35 59 46 1 118 -61 74 -18 -13 -22 -13 -33 0 -8 10 -8
19 -1 34 15 27 14 37 -5 55 -25 26 -54 20 -65 -13 -13 -36 -41 -32 -56 10 -9
23 -17 29 -40 28 -15 0 -33 -3 -40 -5z m107 -104 c41 -11 94 -61 109 -103 25
-67 3 -146 -52 -182 -14 -9 -47 -17 -74 -18 -88 -4 -157 70 -157 168 0 60 29
110 78 131 38 16 51 17 96 4z"/>
<path d="M2148 4475 c-153 -56 -292 -253 -404 -570 -49 -139 -31 -131 -198
-92 -273 65 -525 59 -669 -15 -65 -32 -132 -107 -153 -169 -64 -190 38 -437
304 -734 l99 -110 -89 -100 c-167 -189 -283 -374 -328 -523 -53 -176 7 -343
150 -417 103 -53 297 -69 492 -40 89 14 268 54 311 71 11 4 16 -5 22 -33 13
-71 84 -274 129 -369 84 -177 197 -313 303 -365 39 -19 64 -23 133 -24 115 0
177 29 280 134 117 118 215 314 277 552 26 98 27 101 52 96 14 -3 78 -17 143
-30 361 -78 616 -49 749 84 53 53 81 117 87 201 7 96 -13 176 -74 296 -67 132
-139 228 -277 369 l-110 113 74 77 c280 295 401 590 315 767 -102 208 -396
259 -844 146 -64 -16 -118 -28 -120 -26 -2 3 -22 58 -43 123 -101 301 -232
498 -380 572 -52 26 -74 31 -128 30 -36 0 -83 -7 -103 -14z m190 -121 c106
-62 235 -299 297 -547 9 -34 18 -69 21 -79 4 -12 -9 -21 -53 -38 -32 -12 -122
-48 -201 -82 l-142 -60 -133 60 c-72 33 -171 74 -218 92 l-86 32 14 57 c75
296 200 517 328 578 60 28 108 25 173 -13z m-1028 -654 c41 -5 137 -24 213
-42 l139 -32 -6 -35 c-9 -51 -53 -337 -61 -392 -5 -42 -11 -49 -63 -86 -31
-22 -106 -80 -167 -128 l-110 -88 -68 74 c-258 278 -370 501 -311 624 44 93
211 133 434 105z m2197 -25 c67 -20 118 -67 133 -124 33 -123 -82 -348 -298
-581 l-70 -75 -39 32 c-63 50 -292 222 -309 231 -12 7 -22 53 -39 168 -13 87
-28 179 -34 204 -20 84 -20 85 67 108 79 21 216 48 287 56 75 8 250 -3 302
-19z m-1535 -156 l129 -51 -148 -85 c-81 -47 -160 -94 -175 -104 -14 -11 -29
-19 -33 -19 -7 0 -2 39 21 185 23 142 21 138 50 131 15 -4 84 -30 156 -57z
m722 24 c8 -26 37 -245 33 -249 -2 -2 -39 18 -82 44 -44 27 -108 63 -142 82
-35 18 -63 37 -63 41 0 5 1 9 3 9 1 0 52 20 112 45 125 50 132 52 139 28z
m-346 -197 c37 -19 128 -71 202 -116 74 -45 147 -90 162 -98 15 -9 29 -26 32
-37 8 -28 7 -443 -1 -543 l-6 -82 -116 -74 c-64 -40 -167 -101 -229 -136
l-113 -63 -47 22 c-79 39 -301 170 -409 243 l-103 68 0 258 c0 191 3 262 13
274 30 39 499 318 535 318 7 0 43 -15 80 -34z m679 -443 c43 -34 89 -74 103
-88 l25 -27 -35 -29 c-19 -16 -70 -56 -112 -90 l-78 -60 0 139 c0 77 -3 161
-7 187 -7 57 -10 58 104 -32z m-1454 -100 c-2 -82 -5 -151 -6 -156 -2 -7 -171
125 -181 142 -6 9 169 161 185 161 4 0 5 -66 2 -147z m1913 -360 c134 -177
190 -305 182 -408 -4 -46 -10 -62 -38 -90 -54 -55 -112 -70 -275 -70 -94 1
-168 7 -225 19 -87 18 -248 61 -255 67 -2 2 5 61 15 130 10 69 22 169 26 223
l7 97 101 78 c56 43 133 106 171 140 l70 62 83 -87 c45 -48 107 -120 138 -161z
m-2133 144 c56 -46 130 -104 164 -130 60 -46 62 -48 68 -105 3 -31 17 -137 30
-234 14 -97 25 -179 25 -182 0 -7 -249 -64 -333 -75 -224 -31 -397 3 -455 90
-21 30 -23 43 -20 111 8 137 93 280 298 499 56 60 106 109 111 109 6 0 56 -37
112 -83z m516 -365 c64 -38 135 -80 159 -92 23 -13 42 -27 42 -31 0 -3 -62
-31 -137 -61 -93 -38 -140 -52 -145 -44 -3 6 -13 61 -21 121 -22 157 -24 175
-19 175 3 0 57 -31 121 -68z m848 16 c-4 -18 -11 -70 -18 -116 -6 -46 -17 -86
-23 -88 -10 -4 -164 52 -204 75 -10 6 22 30 109 83 68 42 128 76 133 77 4 0 6
-14 3 -31z m-342 -286 c72 -33 159 -70 194 -83 35 -13 65 -29 68 -35 7 -18
-94 -313 -141 -409 -52 -107 -122 -200 -178 -237 -162 -109 -353 119 -476 568
l-20 71 107 42 c81 32 314 135 316 140 1 1 59 -25 130 -57z"/>
<path d="M2170 3034 c-225 -60 -256 -365 -49 -479 45 -24 65 -29 124 -29 60 0
79 4 125 30 93 52 148 157 137 257 -13 103 -89 192 -191 222 -60 18 -75 18
-146 -1z"/>
<path d="M11628 4429 c-80 -12 -96 -23 -124 -83 -22 -48 -24 -68 -28 -234 -2
-101 -5 -184 -7 -187 -2 -2 -100 -5 -217 -8 -242 -5 -246 -6 -290 -88 -21 -40
-23 -54 -20 -149 2 -88 7 -113 28 -155 39 -79 59 -85 280 -85 102 0 194 -3
205 -6 19 -5 20 -14 22 -198 1 -106 6 -204 11 -217 15 -37 60 -78 101 -89 20
-5 83 -10 141 -10 90 0 111 4 145 23 70 39 77 66 75 292 l-1 195 93 0 c167 1
326 17 361 37 75 43 103 262 47 362 -46 82 -53 84 -279 89 l-198 4 -8 184 c-9
228 -20 268 -86 301 -52 25 -166 35 -251 22z m161 -95 c17 -4 43 -18 57 -31
l27 -25 -6 -214 c-4 -170 -3 -217 8 -228 10 -9 72 -14 241 -19 283 -8 269 -1
269 -148 0 -145 12 -139 -274 -139 l-227 0 -17 -29 c-14 -25 -17 -59 -18 -228
-1 -109 -4 -209 -8 -223 -7 -25 -7 -25 -133 -25 l-126 0 -7 157 c-4 86 -4 190
0 232 l7 75 -32 19 c-28 17 -45 19 -129 15 -53 -2 -152 2 -220 9 l-124 13 -19
35 c-15 28 -19 51 -16 117 3 71 6 85 28 108 l25 26 227 -4 c203 -3 230 -2 243
13 12 14 15 54 15 227 0 189 2 212 18 226 44 40 118 55 191 41z"/>
<path d="M13556 4305 c-59 -21 -88 -46 -119 -106 -25 -47 -28 -63 -25 -121 3
-55 9 -75 33 -110 78 -112 226 -116 318 -8 40 47 63 127 51 176 -20 82 -83
154 -151 173 -48 14 -59 13 -107 -4z m123 -101 c80 -67 27 -224 -76 -224 -27
0 -43 8 -69 34 -29 29 -34 41 -34 81 0 110 103 173 179 109z"/>
<path d="M4690 4044 c-8 -3 -22 -8 -30 -11 -8 -4 -19 -5 -24 -4 -5 1 -6 -33
-3 -81 l7 -83 -42 -18 c-39 -16 -43 -16 -67 0 -14 9 -45 36 -69 60 -24 24 -51
43 -61 43 -20 0 -81 -60 -81 -80 0 -7 11 -28 25 -46 43 -57 48 -80 22 -120
-24 -38 -25 -38 -136 -15 -64 13 -84 2 -103 -57 -19 -62 -14 -70 62 -102 77
-31 80 -35 80 -95 l0 -53 -71 -33 c-78 -36 -94 -54 -73 -84 8 -10 14 -26 14
-34 0 -9 9 -27 19 -40 l18 -24 77 18 c43 9 78 15 79 13 1 -1 12 -18 25 -35 22
-32 22 -34 6 -65 -10 -18 -28 -50 -42 -71 l-25 -38 47 -46 c52 -50 85 -53 107
-10 7 12 26 40 43 62 17 22 31 41 32 43 1 2 22 -7 46 -19 44 -21 45 -23 57
-90 7 -37 10 -77 6 -89 -9 -28 13 -34 82 -24 63 10 63 9 78 125 6 45 8 47 47
57 42 11 42 11 103 -42 85 -74 81 -74 126 -30 38 37 50 76 29 89 -13 8 -60
100 -60 117 1 7 10 24 20 37 18 21 25 23 83 18 34 -4 76 -9 94 -13 28 -5 33
-3 48 27 10 18 21 46 26 61 8 28 6 29 -77 70 -46 22 -87 44 -89 48 -3 5 1 25
7 45 11 32 21 40 64 56 29 11 63 30 78 44 25 23 25 24 11 71 -21 70 -33 79
-92 66 -123 -28 -127 -27 -157 17 l-28 41 55 77 c31 42 54 80 51 84 -8 14 -98
69 -112 69 -8 0 -44 -28 -80 -63 -59 -56 -71 -63 -97 -58 -27 6 -31 11 -42 66
-7 33 -14 80 -15 105 l-3 45 -40 2 c-22 1 -47 0 -55 -3z m122 -315 c88 -22
184 -119 209 -212 15 -57 6 -162 -18 -218 -49 -110 -165 -189 -278 -189 -103
0 -160 23 -230 93 -71 72 -95 127 -95 223 0 217 191 358 412 303z"/>
<path d="M12835 4038 c-64 -35 -93 -79 -136 -207 -35 -102 -36 -122 -7 -172
35 -62 92 -93 283 -153 100 -31 329 -112 455 -161 303 -116 483 -175 532 -175
91 0 127 37 178 184 35 99 37 135 11 191 -27 60 -68 89 -183 128 -57 20 -123
43 -148 52 -25 10 -136 48 -247 86 -112 38 -302 107 -422 154 -220 85 -272 97
-316 73z m160 -117 c17 -4 68 -22 115 -39 107 -40 919 -322 927 -322 1 0 9 -7
17 -16 36 -35 12 -165 -45 -245 -39 -55 -72 -47 -506 120 -214 82 -461 175
-550 207 -90 33 -164 64 -167 69 -9 23 17 132 42 179 32 61 61 78 106 64 17
-5 45 -13 61 -17z"/>
<path d="M5717 3873 c-3 -5 -8 -34 -11 -65 -6 -47 -11 -58 -26 -58 -18 0 -90
72 -90 90 0 14 -19 12 -67 -7 -50 -21 -53 -37 -21 -94 20 -37 21 -41 6 -56
-16 -15 -20 -15 -65 3 -26 10 -51 20 -55 22 -8 4 -58 -68 -58 -84 0 -6 22 -25
50 -42 47 -30 49 -32 38 -57 -6 -14 -22 -28 -35 -30 -13 -3 -34 -7 -47 -10
-28 -6 -36 -31 -27 -77 7 -32 8 -33 60 -33 45 0 55 -3 62 -20 14 -37 9 -53
-25 -75 -29 -17 -34 -25 -30 -48 3 -15 18 -40 34 -56 l29 -29 56 47 c47 41 58
46 71 35 12 -10 14 -25 8 -76 -6 -62 -6 -63 22 -73 48 -19 78 -9 90 29 10 31
37 61 54 61 4 0 21 -22 38 -50 26 -42 36 -50 61 -50 17 0 42 10 56 23 26 22
26 23 11 67 -18 51 -20 86 -7 94 5 3 29 -5 53 -19 58 -34 80 -32 112 9 14 19
26 39 26 44 0 6 -23 29 -51 52 -40 34 -49 48 -47 69 2 22 11 28 51 40 52 16
61 30 55 97 l-3 39 -72 -3 c-50 -3 -73 0 -73 8 0 6 18 35 40 64 22 29 40 57
40 62 -1 5 -21 22 -46 38 l-46 29 -36 -36 c-32 -30 -40 -33 -59 -24 -25 11
-26 20 -14 85 8 40 7 44 -20 57 -30 16 -85 20 -92 8z m107 -240 c58 -41 91
-104 90 -173 0 -93 -59 -169 -151 -196 -133 -39 -263 59 -263 197 0 61 19 104
64 148 70 68 183 78 260 24z"/>
<path d="M13208 3320 c-83 -25 -130 -80 -147 -173 -17 -92 1 -151 63 -205 130
-114 326 -12 326 169 0 96 -37 159 -114 195 -53 25 -82 28 -128 14z m112 -109
c14 -10 31 -36 39 -58 13 -37 13 -45 -3 -88 -29 -74 -92 -103 -156 -70 -85 44
-77 184 13 229 36 18 70 14 107 -13z"/>
<path d="M5427 3020 c-14 -37 -40 -39 -55 -5 -12 25 -36 32 -60 16 -9 -5 -13
-23 -10 -52 3 -48 6 -46 -64 -32 -20 4 -30 -1 -42 -20 -19 -27 -13 -53 15 -68
29 -15 23 -34 -13 -44 -26 -8 -34 -16 -36 -38 -4 -36 15 -60 43 -53 13 3 25
-1 32 -13 10 -16 7 -23 -18 -47 -34 -33 -36 -45 -8 -70 20 -18 21 -18 60 4 49
29 62 22 54 -29 -6 -36 -4 -40 20 -49 14 -5 37 -10 50 -10 20 0 24 6 27 37 4
49 32 56 63 17 20 -26 25 -27 49 -16 28 12 34 39 15 74 -15 28 -7 31 29 11 30
-17 31 -17 56 6 32 31 33 54 2 75 -31 20 -25 56 9 56 34 0 51 25 37 55 -9 18
-19 25 -41 25 -28 0 -41 14 -41 46 0 8 6 14 14 14 19 0 28 27 17 48 -5 9 -21
28 -35 41 -21 20 -26 21 -26 8 0 -19 -35 -41 -50 -32 -6 3 -7 18 -4 32 8 29
-7 43 -49 43 -23 0 -31 -6 -40 -30z m73 -85 c111 -58 101 -223 -19 -284 -68
-35 -157 -2 -185 70 -20 51 -20 75 3 125 38 83 132 125 201 89z"/>
<path d="M12160 2994 c-74 -26 -94 -42 -139 -105 -50 -73 -188 -244 -217 -271
-18 -16 -27 -11 -189 101 -176 122 -214 141 -273 141 -81 0 -194 -102 -262
-237 -70 -137 -29 -207 215 -367 72 -47 140 -93 153 -103 l23 -18 -75 -105
c-41 -58 -91 -126 -113 -152 -126 -154 -123 -258 13 -354 38 -26 90 -65 115
-86 42 -35 50 -38 111 -38 70 0 122 24 143 66 12 24 244 332 255 339 11 7 74
-30 140 -82 279 -216 330 -232 439 -136 58 51 161 190 178 240 24 66 -7 115
-128 207 -82 62 -219 167 -267 206 l-32 25 35 45 c71 90 173 236 203 290 18
33 33 77 37 110 6 50 4 58 -22 92 -31 41 -136 127 -198 163 -40 24 -117 39
-145 29z m127 -139 c83 -56 133 -108 133 -139 0 -36 -9 -51 -95 -165 -88 -116
-190 -268 -199 -296 -4 -16 3 -30 31 -56 52 -49 178 -150 301 -243 56 -42 102
-81 102 -85 0 -9 -127 -179 -162 -218 l-21 -22 -194 132 c-271 184 -280 190
-297 180 -13 -7 -59 -68 -240 -317 -68 -94 -70 -96 -115 -96 -25 0 -56 16
-132 72 -54 39 -99 77 -99 84 0 12 31 59 213 320 49 71 87 134 85 144 -2 10
-102 92 -225 184 -188 140 -223 170 -223 192 0 31 92 187 127 214 35 28 67 34
94 19 28 -14 330 -240 377 -280 66 -58 76 -50 268 220 145 205 174 221 271
156z"/>
<path d="M13074 2581 c-79 -36 -183 -164 -184 -226 0 -39 61 -122 192 -261
290 -309 552 -580 577 -596 30 -21 103 -23 142 -5 32 15 130 120 153 164 37
73 12 130 -117 265 -115 121 -318 337 -462 492 -116 125 -193 186 -235 186
-14 0 -43 -9 -66 -19z m236 -233 c78 -84 175 -187 215 -228 177 -183 335 -363
341 -387 9 -35 -20 -86 -73 -130 -57 -47 -75 -41 -166 55 -280 293 -538 566
-584 619 l-54 62 20 38 c30 59 103 122 142 123 9 0 81 -69 159 -152z"/>
</g>
</svg>
