<?xml version="1.0" standalone="no"?>
<!DOCTYPE svg PUBLIC "-//W3C//DTD SVG 20010904//EN"
 "http://www.w3.org/TR/2001/REC-SVG-20010904/DTD/svg10.dtd">
<svg version="1.0" xmlns="http://www.w3.org/2000/svg"
 width="1536.000000pt" height="700.000000pt" viewBox="0 0 1536.000000 700.000000"
 preserveAspectRatio="xMidYMid meet">
<metadata>
Created by potrace 1.16, written by Peter Selinger 2001-2019
</metadata>
<g transform="translate(0.000000,700.000000) scale(0.100000,-0.100000)"
fill="#000000" stroke="none">
<path d="M12367 6098 c-94 -11 -120 -27 -148 -90 -21 -48 -23 -70 -26 -233 -2
-100 -8 -182 -13 -185 -5 -3 -103 -7 -216 -8 -237 -3 -244 -6 -285 -90 -32
-65 -30 -205 3 -290 35 -86 60 -95 252 -93 83 1 174 -1 202 -5 l51 -6 7 -201
c7 -221 12 -242 74 -283 63 -43 260 -43 334 0 61 34 68 66 68 291 l0 195 168
0 c176 1 268 15 303 45 54 50 75 261 32 340 -39 74 -56 83 -178 95 -61 5 -153
10 -206 10 l-96 0 -7 92 c-3 50 -6 130 -6 177 0 96 -22 173 -60 203 -42 34
-148 50 -253 36z m176 -116 c44 -25 49 -56 41 -278 -5 -168 -4 -192 11 -204
12 -10 66 -14 220 -16 227 -2 260 -7 276 -35 6 -11 10 -63 10 -116 -1 -141 14
-133 -259 -133 -297 0 -272 23 -273 -244 -1 -111 -4 -214 -8 -231 l-6 -30
-126 -3 -127 -3 -7 66 c-3 36 -5 142 -4 235 2 126 0 173 -9 182 -12 12 -186
23 -424 27 -57 1 -58 2 -78 41 -15 30 -20 59 -20 119 0 69 3 83 23 105 l22 26
231 1 c128 1 238 5 245 10 11 6 15 58 19 231 l5 223 55 28 c46 24 63 28 103
23 27 -3 63 -13 80 -24z"/>
<path d="M6559 6044 c-13 -16 -14 -54 -34 -1199 l-7 -410 -156 -150 c-325
-312 -322 -309 -322 -355 l0 -40 1839 0 c1798 0 1839 0 1844 19 12 48 -8 75
-172 240 -92 91 -197 200 -234 242 l-67 76 -6 769 c-4 508 -10 773 -17 782
-28 35 -35 36 -1353 39 -1182 3 -1303 2 -1315 -13z m2451 -211 c8 -7 2 -1294
-5 -1301 -11 -11 -2226 -15 -2237 -4 -6 6 -12 258 -15 661 l-6 651 274 2 c378
4 1983 -4 1989 -9z"/>
<path d="M6867 5733 c-4 -3 -7 -253 -7 -555 l0 -548 1030 0 1030 0 0 555 0
555 -1023 0 c-563 0 -1027 -3 -1030 -7z m1878 -224 c4 -39 4 -219 0 -401 l-8
-330 -852 4 c-470 1 -856 6 -860 9 -8 9 -20 752 -12 773 6 15 81 16 866 16
l859 0 7 -71z"/>
<path d="M2120 6001 c-168 -52 -322 -262 -436 -597 -21 -60 -38 -110 -38 -111
-1 -1 -33 7 -71 18 -211 59 -487 79 -628 46 -184 -45 -280 -144 -294 -303 -14
-171 94 -388 322 -643 50 -56 90 -105 90 -110 0 -5 -38 -52 -84 -104 -148
-168 -280 -374 -320 -498 -62 -193 -5 -359 150 -439 143 -74 405 -72 707 6 94
24 112 24 112 0 0 -32 86 -280 130 -372 108 -231 223 -352 368 -389 245 -63
499 209 622 667 16 61 31 112 33 114 2 2 39 -5 81 -16 128 -33 244 -50 371
-57 310 -15 492 75 541 269 49 191 -70 440 -356 741 l-92 97 73 78 c155 162
296 388 328 524 49 209 -52 367 -272 425 -128 34 -359 17 -592 -42 -55 -14
-105 -25 -111 -25 -7 0 -16 15 -19 33 -4 17 -27 86 -52 152 -112 297 -239 468
-391 525 -53 20 -126 25 -172 11z m147 -122 c113 -55 235 -265 308 -532 14
-51 25 -99 25 -107 0 -10 -27 -25 -75 -43 -42 -16 -130 -52 -196 -81 l-122
-53 -101 47 c-55 26 -150 66 -211 90 -60 24 -113 46 -118 50 -9 8 43 194 83
296 88 221 210 354 324 354 22 0 59 -9 83 -21z m-975 -670 c72 -9 304 -62 312
-70 2 -2 -4 -49 -14 -104 -10 -55 -26 -159 -35 -232 l-18 -131 -66 -49 c-36
-26 -110 -83 -165 -127 l-98 -78 -70 68 c-84 83 -181 205 -242 304 -92 149
-112 286 -50 351 73 79 208 99 446 68z m2193 -34 c74 -38 97 -68 103 -139 11
-135 -85 -313 -295 -544 l-75 -82 -51 41 c-29 23 -111 86 -184 141 l-132 98
-6 58 c-9 71 -53 341 -61 364 -4 13 6 20 46 32 45 13 191 46 270 60 14 2 93 4
175 3 145 -2 152 -3 210 -32z m-1538 -152 c51 -20 90 -40 87 -45 -3 -4 -24
-18 -47 -30 -23 -11 -98 -54 -165 -94 -68 -41 -126 -74 -129 -74 -8 0 28 268
42 307 5 14 53 -1 212 -64z m708 -56 c26 -174 34 -169 -132 -74 -78 45 -139
85 -135 88 8 7 233 99 243 99 4 0 15 -51 24 -113z m-315 -130 c63 -35 167 -96
231 -136 l116 -72 7 -76 c8 -97 8 -220 -1 -412 l-6 -153 -81 -52 c-87 -56
-238 -145 -323 -191 -34 -18 -60 -25 -75 -22 -34 9 -275 148 -414 238 l-121
79 -7 127 c-3 70 -3 191 0 270 l7 143 106 68 c161 105 418 251 441 252 3 0 57
-28 120 -63z m696 -470 c34 -28 63 -55 63 -59 1 -7 -211 -180 -215 -175 -1 1
-5 85 -8 186 l-7 184 52 -42 c28 -22 80 -65 115 -94z m-1518 -136 l-3 -80 -90
74 c-49 40 -90 79 -90 85 0 6 41 45 90 85 l90 74 3 -80 c2 -43 2 -115 0 -158z
m1769 -103 c262 -272 387 -540 306 -653 -10 -14 -43 -37 -73 -52 -50 -25 -67
-28 -181 -31 -70 -2 -160 1 -200 7 -67 11 -309 68 -317 75 -1 2 6 75 17 162
11 87 23 189 26 227 l7 68 96 73 c53 41 129 101 167 135 39 33 73 60 76 61 3
0 37 -33 76 -72z m-1986 -26 c58 -48 132 -108 165 -133 l61 -46 12 -119 c7
-66 21 -171 31 -234 11 -63 17 -116 15 -118 -8 -9 -238 -61 -315 -73 -44 -6
-138 -10 -208 -7 -116 3 -133 6 -186 32 -90 44 -119 109 -96 215 16 77 69 181
139 274 60 80 257 297 269 297 4 0 55 -40 113 -88z m597 -413 c88 -51 120 -74
110 -80 -21 -14 -269 -111 -273 -107 -4 4 -45 274 -45 297 0 9 13 5 43 -13 23
-14 98 -58 165 -97z m752 -22 c-10 -65 -20 -120 -22 -123 -7 -6 -218 80 -215
88 2 7 250 158 254 154 0 0 -7 -54 -17 -119z m-291 -216 c86 -38 173 -74 193
-82 44 -15 45 -6 -14 -184 -95 -289 -212 -474 -319 -507 -133 -39 -285 144
-394 475 -23 73 -46 146 -49 162 l-6 30 123 48 c67 26 158 65 202 87 44 21 86
39 94 39 8 1 85 -30 170 -68z"/>
<path d="M2095 4544 c-162 -57 -218 -267 -109 -409 37 -49 133 -95 199 -95
109 0 195 52 240 145 86 174 -39 377 -229 374 -34 0 -79 -7 -101 -15z"/>
<path d="M14255 5966 c-77 -34 -124 -114 -125 -212 0 -81 30 -139 93 -178 137
-84 307 21 307 189 0 150 -147 258 -275 201z m149 -106 c25 -25 30 -37 29 -79
-1 -60 -26 -105 -71 -127 -113 -53 -200 118 -105 208 49 46 99 45 147 -2z"/>
<path d="M13558 5703 c-68 -29 -108 -89 -147 -219 -32 -110 -26 -148 36 -205
39 -37 55 -44 206 -93 169 -56 378 -130 687 -245 330 -123 399 -131 457 -54
29 38 93 212 93 253 -1 37 -33 101 -68 133 -31 30 -49 37 -502 193 -135 47
-333 119 -440 161 -213 83 -271 97 -322 76z m124 -107 c29 -8 73 -22 98 -31
45 -17 286 -101 740 -259 142 -49 250 -92 257 -102 32 -44 -1 -184 -57 -244
-21 -22 -37 -30 -62 -30 -19 0 -153 46 -309 106 -328 126 -729 276 -784 294
-63 20 -68 27 -60 85 6 53 45 147 72 177 19 22 36 22 105 4z"/>
<path d="M13895 4976 c-115 -50 -160 -230 -84 -336 115 -158 359 -61 359 142
0 47 -25 117 -53 146 -53 57 -152 78 -222 48z m145 -103 c82 -73 35 -223 -70
-223 -51 0 -96 38 -111 93 -10 37 -9 47 12 85 39 75 113 95 169 45z"/>
<path d="M12822 4637 c-26 -14 -56 -42 -79 -77 -39 -58 -215 -274 -232 -284
-9 -6 -210 124 -303 197 -21 15 -62 35 -91 44 -85 24 -126 8 -212 -81 -156
-162 -175 -292 -58 -397 35 -31 168 -123 281 -193 24 -15 45 -33 48 -41 6 -13
-98 -167 -174 -258 -67 -80 -96 -147 -90 -208 6 -63 25 -89 119 -162 156 -121
182 -131 271 -107 40 12 52 25 166 180 43 58 99 133 126 166 l48 62 37 -22
c20 -11 98 -67 172 -122 149 -113 190 -134 259 -134 44 0 53 4 105 52 31 28
84 90 118 137 56 78 62 91 62 136 0 60 -22 93 -98 151 -119 90 -317 245 -321
253 -3 4 12 28 32 54 142 178 227 320 236 393 6 45 3 55 -23 91 -33 46 -173
157 -226 179 -52 21 -123 18 -173 -9z m221 -144 c62 -46 79 -64 89 -95 13 -43
5 -58 -106 -204 -86 -114 -174 -248 -181 -277 -6 -22 4 -34 87 -102 51 -43
150 -121 220 -174 75 -56 125 -101 123 -109 -7 -20 -169 -232 -178 -232 -7 0
-169 108 -367 244 -52 36 -102 66 -112 66 -20 0 -33 -15 -193 -233 l-130 -177
-45 1 c-39 0 -56 9 -129 62 -93 69 -111 90 -96 111 6 8 48 70 94 138 46 67
111 160 143 205 32 44 58 88 58 96 0 8 -95 86 -211 173 -116 87 -217 164 -225
170 -25 20 -15 64 37 150 57 94 111 141 149 129 12 -4 115 -77 228 -163 114
-85 215 -155 226 -154 29 2 51 27 155 172 138 195 169 233 204 253 43 24 67
16 160 -50z"/>
<path d="M13785 4246 c-47 -21 -151 -136 -165 -183 -25 -83 -7 -109 326 -458
147 -154 299 -314 338 -355 87 -92 128 -114 194 -104 41 6 55 15 110 73 84 88
106 131 97 188 -5 37 -21 60 -112 161 -59 64 -161 173 -227 242 -67 69 -177
185 -246 259 -151 162 -188 191 -244 191 -23 -1 -54 -7 -71 -14z m193 -176
c31 -36 154 -168 273 -295 333 -355 339 -363 339 -402 0 -13 -21 -44 -54 -78
-75 -77 -90 -75 -180 19 -506 529 -646 679 -646 694 0 35 71 118 124 146 27
14 32 13 59 -2 16 -9 54 -46 85 -82z"/>
<path d="M4940 4001 l-35 -6 -3 -65 c-3 -96 -8 -108 -48 -125 -20 -8 -42 -15
-49 -15 -8 0 -36 24 -64 53 -80 84 -89 86 -150 41 -28 -21 -51 -46 -51 -55 0
-10 20 -48 45 -86 25 -37 45 -72 45 -76 0 -4 -15 -28 -32 -52 -36 -49 -45 -51
-132 -34 -83 17 -102 6 -111 -67 -4 -31 -9 -63 -11 -69 -5 -12 51 -40 129 -65
36 -11 37 -13 37 -60 0 -55 -17 -73 -102 -105 -26 -9 -49 -24 -52 -32 -4 -8 1
-38 11 -66 9 -29 18 -58 19 -64 5 -20 55 -15 123 13 35 14 70 24 77 22 8 -2
25 -21 38 -43 l24 -40 -21 -50 c-12 -28 -32 -68 -45 -89 -22 -36 -22 -40 -6
-57 9 -11 23 -19 29 -19 7 0 24 -9 39 -21 35 -28 54 -20 112 51 27 33 51 60
54 60 3 0 25 -6 49 -13 47 -15 43 -6 85 -178 3 -15 12 -29 19 -32 13 -5 107
16 127 28 6 3 10 32 11 63 1 103 10 135 44 144 47 13 71 2 136 -63 l61 -61 38
17 c21 10 48 29 61 43 22 25 22 26 4 56 -10 17 -33 58 -51 92 l-34 61 33 31
c29 28 36 31 67 23 19 -5 60 -12 91 -15 67 -7 73 -2 93 75 14 57 8 89 -19 89
-8 0 -48 16 -90 35 l-76 34 3 53 3 53 90 37 c50 21 94 39 98 40 13 5 -31 111
-53 129 -15 13 -28 15 -57 9 -162 -34 -152 -33 -178 -8 -14 13 -25 28 -25 33
0 19 69 170 80 173 16 6 12 38 -7 53 -30 24 -92 49 -108 43 -9 -4 -15 -1 -15
7 0 14 -27 -26 -70 -103 -21 -39 -29 -42 -90 -32 -30 5 -38 12 -53 48 -9 22
-17 54 -17 69 0 15 -7 43 -14 62 -16 37 -27 40 -106 26z m200 -347 c176 -80
255 -287 176 -460 -29 -63 -101 -133 -175 -170 -49 -25 -68 -28 -146 -29 -114
0 -172 24 -245 101 -66 70 -91 127 -97 223 -4 61 -1 87 16 131 74 197 285 288
471 204z"/>
<path d="M10560 3975 c-5 -14 -12 -45 -15 -68 -12 -90 -25 -115 -62 -122 -19
-3 -40 -8 -47 -11 -8 -3 -26 14 -44 43 -58 90 -62 93 -104 79 -77 -27 -116
-68 -86 -90 8 -6 31 -46 52 -90 l38 -79 -28 -27 -29 -27 -88 15 c-68 11 -90
12 -102 2 -19 -16 -58 -121 -48 -130 4 -4 26 -13 48 -20 22 -7 64 -21 93 -32
l52 -19 0 -50 0 -49 -87 -43 c-88 -43 -88 -44 -86 -80 1 -20 9 -52 17 -71 14
-32 19 -36 54 -36 21 0 62 7 91 16 52 15 53 15 87 -11 19 -14 34 -28 34 -31 0
-7 -64 -134 -81 -162 -11 -18 -10 -23 12 -41 13 -11 41 -27 61 -37 l37 -16 63
66 c51 53 69 66 94 66 51 0 63 -17 76 -110 7 -47 17 -88 22 -92 22 -14 118
-21 126 -9 4 7 13 45 19 84 16 93 19 98 69 115 l42 14 59 -63 59 -62 39 24
c98 59 95 53 55 108 -49 68 -66 116 -53 148 28 65 30 66 113 39 41 -14 83 -23
94 -21 10 2 22 4 25 4 4 1 9 18 13 39 3 20 9 51 12 69 5 29 3 34 -22 44 -16 7
-52 22 -80 34 l-51 23 -1 49 -2 49 48 17 c70 26 117 56 104 69 -6 6 -9 16 -6
22 2 6 -2 31 -10 56 -11 39 -17 45 -44 48 -16 2 -56 -4 -89 -12 l-58 -15 -37
42 c-20 23 -37 47 -38 52 0 6 18 41 40 79 22 37 40 74 40 81 0 7 -23 30 -51
50 -62 44 -70 41 -139 -41 -25 -29 -51 -55 -57 -58 -15 -6 -85 22 -95 38 -4 6
-8 39 -8 72 0 37 -5 66 -12 72 -7 5 -37 13 -65 17 -51 7 -53 6 -63 -20z m212
-322 c68 -30 139 -102 171 -171 28 -61 29 -174 4 -249 -23 -66 -94 -146 -161
-181 -45 -24 -62 -27 -146 -27 -79 0 -103 4 -142 24 -69 33 -135 96 -165 155
-35 69 -43 185 -18 254 72 191 274 277 457 195z"/>
<path d="M5922 3218 c-6 -6 -12 -24 -12 -39 0 -14 -3 -41 -6 -58 -5 -25 -11
-31 -33 -31 -21 0 -32 10 -54 50 -16 28 -34 50 -40 50 -26 -1 -97 -40 -97 -53
0 -8 9 -34 20 -58 25 -57 25 -67 -4 -81 -20 -8 -34 -7 -66 6 -52 21 -74 14
-94 -28 -21 -45 -20 -53 9 -71 14 -8 36 -22 49 -30 22 -13 23 -17 13 -50 -8
-26 -16 -35 -32 -35 -84 0 -103 -22 -90 -106 6 -41 9 -45 28 -41 12 3 47 9 79
12 52 7 57 5 63 -15 5 -16 -3 -33 -34 -70 -23 -27 -41 -53 -41 -59 0 -20 52
-71 73 -71 11 0 34 12 49 27 24 23 32 25 55 17 24 -8 26 -13 27 -70 1 -81 14
-96 80 -92 51 3 51 3 59 43 22 104 54 120 91 46 34 -66 51 -75 111 -55 44 16
47 18 42 48 -2 17 -10 52 -18 79 -12 44 -12 48 8 68 20 21 23 21 69 5 26 -9
51 -16 55 -16 4 0 21 19 38 42 31 41 40 78 21 78 -5 0 -35 16 -66 36 -66 43
-63 50 35 80 64 19 81 34 63 57 -5 6 -15 29 -22 50 -12 38 -12 38 -54 32 -22
-4 -48 -8 -57 -11 -10 -3 -20 5 -27 21 -16 34 -18 29 29 80 l41 45 -26 35
c-15 19 -36 40 -48 46 -20 11 -27 6 -67 -39 -37 -42 -49 -50 -63 -42 -19 12
-30 52 -30 115 0 48 8 42 -86 60 -15 3 -33 0 -40 -7z m99 -244 c174 -90 178
-323 8 -408 -93 -46 -185 -30 -259 44 -130 129 -73 335 105 381 38 10 112 1
146 -17z"/>
<path d="M9681 3187 l-44 -12 -3 -70 c-3 -52 -8 -73 -21 -83 -16 -12 -23 -8
-60 32 -23 25 -46 46 -51 46 -18 0 -63 -43 -73 -68 -9 -22 -5 -30 31 -67 37
-37 40 -44 31 -68 -11 -27 -14 -28 -93 -12 -20 4 -28 -5 -45 -55 -22 -60 -19
-64 59 -85 39 -11 73 -25 75 -31 2 -6 -24 -28 -57 -48 -33 -20 -60 -43 -60
-50 0 -7 12 -29 28 -50 28 -39 34 -40 122 -21 14 3 33 -1 44 -10 19 -14 19
-17 2 -86 -9 -39 -14 -74 -11 -77 4 -4 25 -12 48 -19 54 -16 78 -1 102 62 12
30 24 45 36 45 22 0 30 -12 49 -75 15 -49 17 -50 57 -53 32 -2 47 2 63 18 19
19 21 29 15 80 -7 58 -6 59 20 66 19 5 35 1 53 -13 46 -33 50 -34 81 -7 39 33
42 75 6 98 -34 23 -57 60 -49 81 6 16 16 17 86 11 l78 -6 0 58 c0 32 -5 63
-11 69 -6 6 -30 8 -54 5 -41 -4 -45 -2 -55 22 -16 44 -12 53 35 86 l45 31 -20
38 c-25 50 -40 55 -96 31 -42 -19 -65 -17 -92 5 -1 1 7 26 18 55 12 29 19 59
16 67 -6 15 -65 43 -91 43 -8 0 -26 -23 -40 -51 -23 -44 -29 -50 -53 -47 -24
3 -28 8 -33 54 -10 80 -11 81 -88 61z m201 -239 c23 -13 56 -43 73 -66 27 -39
30 -51 30 -115 -1 -80 -14 -115 -66 -165 -157 -153 -416 4 -359 218 14 53 87
130 140 147 50 17 133 8 182 -19z"/>
<path d="M10340 2625 c-7 -8 -9 -26 -5 -43 7 -35 -11 -47 -40 -26 -29 22 -63
17 -81 -11 -16 -25 -16 -27 6 -50 12 -13 19 -28 15 -34 -9 -15 -62 -14 -68 2
-2 6 -8 -9 -12 -35 -10 -64 -2 -81 34 -76 25 4 31 0 36 -20 4 -17 0 -31 -14
-46 -25 -26 -27 -59 -6 -76 12 -10 21 -10 46 0 25 11 33 11 45 -2 12 -11 13
-21 4 -42 -14 -38 2 -56 50 -56 32 0 39 4 50 30 14 34 30 40 30 11 0 -10 8
-29 18 -41 13 -17 24 -20 45 -15 23 6 27 12 27 45 0 51 31 64 61 26 27 -34 42
-33 73 5 33 38 32 48 -1 75 -35 28 -26 54 19 54 42 0 53 8 62 42 7 32 -14 48
-63 48 -26 0 -31 4 -31 24 0 13 10 30 22 38 20 13 21 19 13 43 -14 40 -38 52
-70 35 -32 -17 -49 -3 -37 31 12 36 4 56 -27 67 -34 12 -55 1 -70 -37 -15 -35
-51 -33 -51 3 0 42 -53 63 -80 31z m145 -124 c109 -49 136 -164 59 -246 -122
-130 -360 48 -261 196 43 66 124 86 202 50z"/>
<path d="M5282 2604 c-11 -8 -22 -27 -24 -42 -5 -40 -32 -39 -56 3 -23 39 -45
44 -81 19 -23 -17 -24 -38 -5 -88 6 -17 3 -18 -44 -11 -50 7 -51 6 -68 -26
-16 -32 -16 -33 10 -54 41 -32 34 -59 -16 -71 -38 -8 -43 -13 -46 -39 -4 -36
18 -55 65 -55 46 0 55 -26 20 -54 -33 -27 -34 -37 -1 -75 32 -38 52 -39 79 -5
30 38 63 26 67 -24 3 -32 7 -37 31 -40 35 -4 53 10 61 48 7 38 19 38 33 0 9
-25 17 -30 45 -30 18 0 41 7 50 14 15 11 16 18 7 45 -10 27 -9 36 4 48 14 14
20 14 48 3 28 -12 33 -12 45 5 21 28 17 61 -10 78 -17 12 -22 22 -19 41 4 21
11 26 34 26 36 0 43 16 35 75 -7 43 -8 44 -33 34 -50 -19 -69 7 -33 46 l20 21
-30 29 -31 29 -33 -18 c-46 -24 -60 -18 -60 28 -1 46 -30 64 -64 40z m83 -143
c41 -23 75 -77 75 -118 0 -103 -108 -194 -214 -180 -32 5 -50 16 -83 51 -38
40 -43 50 -43 91 0 62 25 111 71 142 67 44 132 49 194 14z"/>
</g>
</svg>
