<?xml version="1.0" standalone="no"?>
<!DOCTYPE svg PUBLIC "-//W3C//DTD SVG 20010904//EN"
 "http://www.w3.org/TR/2001/REC-SVG-20010904/DTD/svg10.dtd">
<svg version="1.0" xmlns="http://www.w3.org/2000/svg"
 width="2048.000000pt" height="1535.000000pt" viewBox="0 0 2048.000000 1535.000000"
 preserveAspectRatio="xMidYMid meet">
<metadata>
Created by potrace 1.16, written by Peter Selinger 2001-2019
</metadata>
<g transform="translate(0.000000,1535.000000) scale(0.100000,-0.100000)"
fill="#000000" stroke="none">
<path d="M9890 9770 c-76 -13 -159 -50 -223 -99 -67 -50 -177 -180 -220 -260
-38 -70 -53 -186 -39 -310 14 -115 39 -193 93 -284 41 -69 68 -163 72 -254 1
-34 7 -49 22 -57 10 -6 25 -17 33 -23 10 -10 94 -13 347 -13 l333 0 17 98 c23
125 51 195 109 266 56 70 87 129 116 224 42 138 17 341 -55 441 -43 61 -169
182 -210 204 -22 11 -74 29 -115 40 -143 37 -193 42 -280 27z m216 -88 c87
-30 164 -83 221 -152 130 -155 168 -305 123 -484 -22 -87 -58 -154 -125 -233
-48 -57 -61 -92 -71 -195 l-7 -68 -156 -2 c-230 -4 -342 -2 -382 5 -36 7 -37
9 -41 60 -5 57 -47 158 -96 229 -38 55 -82 194 -89 278 -11 143 61 334 166
438 61 62 137 107 210 128 68 18 187 17 247 -4z"/>
<path d="M9743 9575 c-41 -25 -149 -150 -179 -206 -18 -35 -15 -74 5 -74 8 0
30 26 48 58 40 67 89 119 156 165 37 25 48 38 45 55 -4 31 -26 31 -75 2z"/>
<path d="M10643 8465 c-22 -24 -15 -41 47 -119 45 -56 66 -76 84 -76 35 0 52
25 37 53 -17 31 -134 157 -146 157 -6 -1 -16 -7 -22 -15z"/>
<path d="M9701 8443 c-37 -8 -71 -33 -71 -53 0 -10 12 -28 27 -40 26 -20 36
-21 228 -19 110 1 234 -1 276 -5 83 -9 113 0 124 34 10 30 -12 58 -53 70 -39
11 -490 22 -531 13z"/>
<path d="M9773 8281 c-103 -6 -131 -16 -120 -45 8 -20 47 -24 344 -36 275 -11
303 -8 303 34 0 21 -7 27 -37 35 -49 12 -358 20 -490 12z"/>
<path d="M9700 8164 c-52 -10 -52 -12 6 -84 72 -89 91 -95 283 -94 l143 2 74
73 c41 40 74 79 74 87 0 10 -45 12 -222 11 -123 -1 -248 1 -278 4 -30 3 -66 3
-80 1z"/>
<path d="M9695 7740 c-181 -13 -308 -33 -540 -85 -110 -25 -255 -56 -322 -70
-163 -32 -251 -63 -413 -145 -164 -81 -193 -99 -292 -179 -195 -157 -365 -410
-452 -673 -30 -90 -36 -128 -50 -299 -20 -243 -20 -338 -1 -427 19 -93 76
-222 164 -370 118 -199 207 -280 378 -346 110 -43 175 -51 292 -37 144 18 164
29 212 121 30 59 71 111 161 207 116 124 223 223 241 223 4 0 24 12 43 27 28
21 37 24 44 13 6 -10 11 -8 19 8 29 54 384 95 413 49 6 -9 8 -9 8 1 0 6 5 12
11 12 8 0 7 -6 -2 -16 -23 -28 -48 -146 -49 -224 0 -81 17 -167 46 -243 l19
-49 -41 -36 c-22 -20 -62 -53 -89 -72 -26 -19 -55 -46 -64 -60 l-15 -25 26 23
c14 13 61 37 104 54 44 16 84 34 90 39 7 5 20 -1 35 -17 28 -30 71 -54 96 -54
11 0 1 10 -25 26 -23 14 -48 37 -56 52 -13 24 -12 30 5 51 10 13 19 29 19 37
0 8 23 39 51 70 59 65 63 97 14 102 -25 2 -36 -5 -68 -43 -21 -25 -44 -62 -51
-83 l-13 -37 -17 55 c-23 74 -32 235 -17 295 14 56 74 148 126 194 20 17 123
75 228 127 106 53 227 121 269 150 94 66 123 79 215 93 69 11 77 10 165 -19
169 -55 175 -58 193 -96 21 -45 29 -38 15 14 -12 45 -40 70 -115 102 -49 21
-53 28 -18 35 71 13 163 100 190 176 7 22 16 78 19 126 5 66 13 99 31 133 l24
45 -31 -35 c-46 -51 -60 -82 -67 -152 -10 -108 -33 -138 -181 -237 -44 -30
-68 -40 -80 -35 -9 4 -55 10 -102 13 l-85 6 -47 62 c-28 37 -54 86 -64 120 -9
32 -21 71 -27 86 -9 27 -10 27 -29 10 -17 -15 -19 -26 -14 -71 3 -29 16 -80
27 -114 l22 -61 -34 -69 c-27 -55 -43 -75 -84 -102 -61 -41 -355 -199 -360
-194 -6 6 25 119 40 148 8 15 21 32 29 39 23 19 19 34 -7 28 -33 -9 -47 4 -69
69 -29 86 -35 215 -13 303 26 107 104 218 214 304 48 38 67 46 128 56 40 6 88
11 108 11 38 0 105 41 105 64 0 7 -11 23 -24 35 -34 32 -68 115 -60 146 10 41
86 102 151 121 74 21 208 88 239 119 13 13 24 36 24 50 0 22 4 25 35 25 19 0
53 7 75 16 l41 16 135 -67 c109 -55 132 -70 118 -78 -20 -11 -126 -2 -155 14
-12 6 -23 8 -26 5 -11 -10 82 -46 120 -46 21 0 52 7 68 16 29 15 33 14 82 -14
l52 -29 -1 -84 c-1 -46 0 -66 2 -44 8 78 15 105 28 105 39 0 351 -230 406
-299 l30 -39 -94 -4 c-81 -3 -103 -8 -154 -35 l-60 -31 -30 47 c-16 26 -43 58
-61 70 l-32 23 33 -47 c51 -72 51 -152 -2 -420 -22 -115 -52 -239 -65 -275
-41 -112 -104 -250 -136 -296 -41 -59 -176 -197 -219 -223 -33 -20 -34 -21
-10 -21 30 0 152 57 216 101 25 17 47 29 50 27 2 -3 -5 -35 -15 -72 -33 -118
-120 -220 -281 -328 -41 -28 -79 -54 -83 -58 -4 -4 23 -3 60 2 91 12 181 55
237 113 l45 48 7 -27 c20 -81 281 -156 427 -122 l37 8 0 -66 c0 -169 -42 -361
-94 -429 -13 -16 -15 -16 -57 3 -53 24 -151 26 -254 6 -103 -21 -170 -4 -273
67 -26 17 -71 35 -112 43 -69 15 -81 14 -185 -17 -31 -9 -59 -8 -130 3 l-90
14 4 30 c15 96 -5 174 -22 89 -21 -96 -19 -95 -137 -101 -58 -2 -114 -6 -125
-7 -17 -2 -20 5 -23 40 -2 22 4 58 12 78 9 21 16 44 16 51 0 23 -27 16 -50
-13 -19 -25 -22 -37 -18 -101 4 -49 1 -75 -6 -78 -85 -29 -132 -50 -154 -70
l-27 -24 37 15 c41 17 212 31 252 21 23 -6 26 -11 26 -47 0 -51 20 -84 75
-129 24 -19 43 -35 42 -36 -1 -1 -37 -23 -80 -48 -84 -51 -226 -92 -417 -122
-140 -21 -389 -19 -530 5 -63 10 -140 22 -170 26 -62 8 -98 24 -153 69 -48 39
-73 87 -92 176 -19 89 -19 100 0 73 8 -11 46 -44 84 -72 52 -39 77 -51 104
-51 20 0 39 5 42 10 3 6 -5 10 -19 10 -44 0 -166 144 -233 274 -31 61 -62 129
-70 151 l-13 40 6 -45 c3 -25 15 -76 25 -115 11 -38 24 -130 29 -204 5 -74 17
-157 26 -185 28 -84 135 -175 224 -190 19 -3 98 -18 175 -32 113 -20 171 -25
305 -25 154 0 330 17 419 41 19 5 36 8 37 7 5 -5 32 -117 27 -117 -2 0 -14 5
-26 10 -20 9 -20 9 -3 -2 25 -17 38 -32 88 -96 44 -58 93 -88 160 -98 55 -9
166 -72 207 -119 44 -51 39 -55 -8 -7 -22 23 -53 48 -70 56 -24 13 -20 6 23
-37 36 -36 60 -73 80 -122 55 -134 145 -265 182 -265 7 0 26 -12 43 -26 92
-77 262 -69 352 16 33 31 39 43 39 78 0 77 -42 148 -145 248 -52 50 -95 97
-95 105 0 12 21 13 115 11 183 -6 368 48 558 162 182 109 247 192 247 314 l0
65 68 -7 c59 -5 64 -4 43 8 -22 12 -20 14 39 20 162 18 350 105 436 199 47 53
59 74 85 157 59 188 60 274 7 535 -11 55 -24 150 -28 210 -31 415 -167 715
-453 1000 -61 61 -139 145 -174 187 -129 155 -406 344 -823 559 -83 43 -393
122 -600 154 -127 19 -447 27 -625 15z m23 -174 c0 -19 5 -42 11 -53 8 -13 9
-5 4 35 l-6 52 240 0 c132 0 275 -3 317 -6 71 -6 75 -8 61 -24 -24 -26 -18
-34 10 -12 40 31 143 23 290 -22 66 -21 124 -41 129 -46 4 -4 -17 -14 -48 -21
-43 -9 -62 -9 -81 -1 -36 17 -41 15 -20 -8 14 -16 16 -25 8 -43 -9 -19 -32
-29 -129 -56 -66 -18 -139 -40 -164 -48 -54 -20 -135 -93 -151 -138 l-12 -33
-36 26 -36 26 26 -29 c23 -26 27 -42 31 -107 5 -81 2 -88 -42 -88 -32 0 -177
-80 -229 -126 -101 -90 -169 -222 -185 -356 -12 -98 61 -336 110 -355 13 -5
13 -7 0 -22 -8 -9 -23 -41 -34 -71 -10 -30 -23 -64 -27 -74 -6 -15 -5 -17 5
-11 9 5 11 4 6 -4 -4 -6 -11 -9 -16 -6 -4 3 -10 -2 -13 -10 -9 -21 -84 -66
-146 -87 -39 -13 -85 -18 -165 -18 -61 0 -131 -5 -156 -11 -41 -9 -46 -8 -62
12 -24 29 -23 40 15 100 30 50 32 57 31 143 -1 59 -7 103 -17 126 l-16 35 4
-50 c3 -30 2 -43 -3 -31 -6 15 -15 -1 -41 -70 -17 -49 -46 -118 -64 -154 -36
-72 -30 -70 -143 -52 -78 13 -139 44 -165 85 l-20 32 6 -35 c19 -97 99 -180
174 -180 32 0 32 0 30 -47 -3 -40 -8 -51 -45 -85 -23 -21 -59 -63 -80 -93 -20
-30 -43 -55 -50 -55 -7 0 -33 -21 -58 -47 l-45 -48 -73 1 c-82 0 -148 20 -292
88 -100 47 -204 136 -231 197 l-14 34 -1 -28 c0 -15 7 -44 15 -64 8 -19 15
-36 15 -37 0 0 -44 -1 -97 0 l-98 1 -62 121 -63 122 0 92 c0 51 5 112 10 135
15 66 187 414 223 451 50 53 146 124 186 138 65 24 93 18 136 -27 56 -56 123
-99 158 -99 28 0 29 -1 22 -37 -4 -21 -14 -51 -22 -68 -15 -28 -15 -29 1 -16
9 7 24 39 32 70 9 31 27 69 40 84 30 36 38 66 32 128 l-5 49 71 0 c39 0 107
-9 151 -20 44 -11 105 -20 135 -19 l55 0 -80 25 c-194 61 -207 63 -292 41
l-52 -14 -11 27 c-6 15 -25 40 -41 56 -39 37 -37 66 10 117 35 38 121 88 261
151 l35 16 -60 -5 -60 -5 -1 64 c-1 56 2 68 22 87 27 25 118 49 192 49 61 0
85 -18 101 -77 15 -53 14 -74 -8 -124 -11 -24 -22 -62 -25 -84 -5 -32 -4 -36
4 -17 5 13 14 21 19 18 13 -8 47 41 59 86 14 49 44 94 100 144 45 41 49 64 12
64 -10 0 -39 -20 -64 -45 -39 -37 -48 -42 -52 -27 -16 52 -37 83 -65 98 -66
34 -246 -8 -300 -70 -20 -23 -24 -24 -43 -11 -32 23 -37 18 -11 -11 20 -21 25
-38 26 -78 0 -38 3 -46 9 -31 7 17 9 16 9 -11 1 -27 -5 -33 -58 -59 -77 -36
-127 -85 -148 -145 l-17 -47 -45 14 c-77 24 -202 2 -253 -44 -10 -9 -18 -21
-18 -27 0 -8 3 -7 8 0 4 7 26 17 50 23 51 14 143 -1 192 -30 33 -21 67 -85 77
-145 5 -29 3 -34 -15 -34 -11 0 -38 18 -59 41 -21 22 -50 47 -65 55 -35 18
-112 18 -174 -1 -69 -21 -230 -149 -266 -212 -16 -26 -34 -47 -41 -45 -18 5
-47 44 -47 65 0 27 63 157 94 195 38 44 137 119 168 127 29 7 127 97 177 163
39 51 102 86 142 80 34 -5 36 -3 9 12 -26 14 -90 -2 -145 -36 -30 -19 -34 -20
-16 -5 13 12 19 21 14 21 -15 0 -51 -37 -58 -60 -7 -23 -44 -44 -95 -55 -19
-4 -64 -22 -99 -42 l-64 -34 44 53 c142 174 277 286 449 373 81 41 240 92 355
114 55 11 206 42 335 69 248 52 320 65 320 57 0 -2 -8 -17 -17 -32 -13 -20
-25 -27 -41 -25 -35 5 -75 -15 -118 -59 l-39 -40 60 31 c50 26 67 30 102 25
35 -5 43 -3 52 14 6 11 11 28 11 38 0 41 25 58 97 64 130 11 121 13 121 -25z
m2118 -828 c102 -103 204 -224 204 -242 0 -2 -18 -7 -39 -11 -47 -8 -114 -49
-179 -109 -86 -79 -181 -132 -195 -109 -3 4 -8 29 -12 56 -7 43 -6 47 14 47
28 0 100 66 118 108 10 25 11 42 3 70 -19 68 -30 72 -30 11 0 -48 -5 -65 -33
-105 -41 -59 -64 -75 -77 -54 -5 8 -10 24 -10 36 0 26 -37 82 -68 102 l-23 15
17 -36 c16 -34 16 -39 -1 -104 -47 -180 -45 -217 11 -270 108 -101 293 -13
394 188 31 61 90 119 120 119 29 0 74 -74 120 -196 35 -94 39 -112 29 -132
-18 -32 -67 -60 -119 -68 -25 -4 -53 -11 -62 -16 -25 -12 -24 -70 2 -93 14
-13 20 -31 20 -64 0 -67 -14 -107 -55 -152 -44 -49 -47 -88 -8 -119 19 -15 35
-20 53 -16 85 20 99 20 105 -6 4 -14 5 -69 3 -122 -2 -80 -1 -94 10 -79 35 49
38 134 7 206 -15 35 55 18 103 -26 21 -20 22 -20 22 -1 0 30 -45 90 -79 104
-17 7 -31 14 -31 17 0 2 7 26 16 54 22 66 16 161 -14 217 l-22 43 30 37 c16
20 30 42 30 49 0 7 4 13 9 13 6 0 13 -21 17 -47 3 -27 15 -88 25 -138 10 -49
19 -119 19 -155 0 -36 5 -81 10 -100 33 -113 59 -361 44 -417 -6 -22 -8 -21
-35 13 -16 20 -29 41 -29 47 0 20 -44 57 -67 57 -34 0 -39 -26 -12 -59 13 -16
43 -52 67 -81 41 -50 51 -85 36 -123 -5 -13 -10 -14 -39 -1 -50 21 -133 18
-172 -5 -17 -11 -51 -25 -75 -31 -24 -7 -62 -21 -86 -33 -35 -17 -48 -19 -71
-10 -25 9 -28 8 -24 -8 7 -25 27 -40 64 -48 l31 -6 -36 -44 c-20 -24 -34 -46
-32 -49 8 -7 88 43 115 72 14 14 33 26 43 26 26 0 77 27 110 58 l27 25 36 -38
c19 -22 35 -44 35 -51 0 -35 -225 -168 -354 -209 -76 -25 -81 -25 -126 -10
-25 8 -82 38 -125 65 -43 27 -95 55 -114 61 -47 15 -58 26 -33 34 12 3 43 30
70 60 49 53 72 108 72 171 0 20 3 24 13 17 20 -17 108 -43 142 -43 39 0 119
39 173 86 42 36 62 66 77 114 7 23 5 22 -33 -12 -65 -59 -195 -120 -267 -125
-88 -7 -111 5 -120 63 -4 27 -15 75 -26 108 -10 33 -17 61 -16 61 1 1 36 20
77 43 46 25 82 52 93 70 24 41 22 44 -15 22 -52 -29 -261 -60 -413 -60 -142 0
-186 9 -208 44 -13 20 -12 29 9 92 17 50 24 91 24 153 l0 83 45 50 c39 43 59
79 119 213 l14 30 11 -45 c22 -85 43 -119 117 -185 85 -76 124 -95 194 -95
l50 0 -21 -41 c-11 -23 -38 -60 -60 -84 -48 -52 -49 -60 -4 -34 46 28 79 68
100 124 13 33 23 45 38 45 29 0 82 36 122 83 l35 41 0 -36 c0 -20 -7 -71 -15
-114 -8 -44 -19 -117 -25 -164 -7 -54 -22 -108 -40 -148 l-29 -63 27 20 c44
31 70 63 94 116 20 44 23 65 22 185 0 74 -2 178 -5 231 l-4 95 -36 -51 c-53
-73 -113 -99 -212 -93 -53 3 -84 11 -108 26 -19 12 -58 33 -86 47 -58 27 -101
78 -129 151 -16 41 -16 49 -1 117 46 202 61 387 44 508 l-8 57 98 11 c54 6
112 13 128 14 118 14 109 19 241 -115z m-3933 -298 c-14 -35 -85 -248 -99
-294 -14 -48 -14 -42 -9 112 5 154 6 165 31 202 l26 40 29 -23 c17 -14 26 -28
22 -37z m295 -917 l45 -53 -39 -16 c-22 -9 -63 -17 -93 -18 l-55 -1 -42 60
c-23 33 -40 63 -36 67 10 10 60 16 121 14 52 -1 55 -3 99 -53z m197 -124 c46
-17 82 -23 155 -23 52 -1 109 2 125 7 l30 7 -30 -25 c-16 -14 -67 -44 -113
-67 l-83 -41 -65 12 c-35 6 -96 23 -134 37 l-69 26 14 28 c19 37 65 71 90 66
11 -2 47 -14 80 -27z m2350 -435 c17 -7 45 -25 63 -41 30 -26 31 -29 18 -49
-12 -16 -31 -23 -73 -29 -32 -3 -109 -17 -172 -30 -106 -23 -118 -23 -185 -10
-122 23 -197 55 -219 93 -11 18 -18 34 -16 36 2 2 40 -2 84 -8 44 -6 130 -11
190 -11 109 0 111 0 175 37 66 38 75 39 135 12z m601 -143 c17 -10 64 -26 104
-35 40 -10 105 -30 143 -47 38 -16 74 -29 81 -29 31 -1 37 -16 25 -63 -6 -26
-14 -47 -18 -47 -3 0 -19 14 -35 30 -43 44 -181 106 -303 136 -92 23 -121 26
-198 21 -49 -4 -115 -13 -145 -22 -30 -9 -61 -17 -68 -18 -7 -2 -33 -33 -57
-69 -64 -96 -189 -191 -325 -248 l-75 -31 88 5 c83 6 87 5 87 -14 0 -36 29
-78 75 -110 25 -17 45 -34 45 -37 0 -3 -33 -3 -72 0 -76 6 -192 36 -170 44 8
3 -8 27 -41 66 -30 34 -61 73 -70 86 -9 14 -34 43 -55 66 -22 22 -50 56 -62
75 l-22 35 6 -40 c3 -22 21 -70 40 -107 19 -38 32 -68 30 -68 -12 0 -105 52
-130 73 -16 13 -48 36 -71 51 -46 28 -53 43 -25 53 9 3 73 30 141 59 68 30
131 54 138 54 8 0 31 9 52 19 50 26 231 58 362 64 58 3 135 13 170 22 179 47
306 56 355 26z m-201 -81 c39 -6 106 -22 150 -35 44 -14 121 -36 170 -51 120
-34 168 -52 191 -68 18 -14 18 -15 -6 -41 -14 -15 -37 -33 -52 -41 -27 -14
-30 -13 -85 33 -77 62 -165 100 -254 111 -73 9 -258 -2 -314 -18 l-30 -8 36
-1 c40 -1 49 -10 165 -151 45 -57 75 -82 119 -105 l58 -29 -28 -12 c-25 -10
-37 -8 -85 13 -65 29 -341 172 -353 183 -5 4 3 25 16 46 14 22 33 59 43 84 9
25 23 52 31 61 7 9 10 19 6 24 -5 4 -3 6 2 3 6 -3 19 -2 30 3 28 11 108 10
190 -1z m84 -146 c87 -14 304 -83 324 -103 5 -5 -7 -18 -27 -31 l-36 -22 -76
37 c-42 20 -97 50 -123 68 l-46 31 35 -42 c23 -27 59 -55 103 -76 l68 -33 -56
-32 -57 -32 -41 25 c-23 13 -76 55 -118 94 -42 38 -97 84 -123 101 -25 18 -46
34 -46 37 0 7 99 -3 219 -22z m-1094 -90 c69 -97 103 -121 190 -135 42 -7 84
-19 93 -25 15 -11 14 -14 -13 -25 -16 -8 -59 -13 -95 -12 -69 1 -147 29 -237
86 -42 26 -112 110 -113 133 0 11 71 31 115 32 13 1 33 -18 60 -54z m786 -69
c66 -61 118 -93 195 -120 68 -24 68 -24 39 -35 -16 -6 -48 -13 -71 -17 -37 -5
-51 0 -106 31 -92 55 -165 108 -194 141 l-25 30 15 -38 c24 -61 55 -97 117
-137 52 -34 56 -38 36 -44 -12 -3 -45 -6 -73 -6 -49 0 -53 2 -103 55 -43 46
-90 122 -79 129 2 1 19 10 39 20 19 10 51 31 70 46 l34 28 30 -21 c16 -11 50
-39 76 -62z m-425 -146 c46 -37 136 -80 216 -103 52 -16 56 -20 62 -51 5 -25
29 -59 82 -116 49 -52 86 -103 106 -145 29 -61 29 -66 14 -89 -36 -55 -132
-78 -230 -55 -44 10 -68 35 -126 131 -21 36 -59 92 -84 125 -62 83 -203 222
-248 245 -21 11 -38 21 -38 23 0 1 21 4 48 5 33 1 61 10 92 30 25 16 50 30 56
30 6 1 29 -13 50 -30z"/>
<path d="M9900 7544 l-44 -46 1 -73 2 -73 -36 15 c-47 19 -74 11 -112 -32 -40
-46 -40 -62 0 -33 25 19 42 23 90 21 56 -1 63 -4 105 -45 62 -60 79 -58 79 12
l0 55 74 37 c41 21 94 40 118 44 62 9 53 24 -14 24 -72 0 -130 -26 -169 -73
-25 -30 -31 -34 -46 -23 -52 38 -51 163 2 216 12 12 15 20 7 20 -7 0 -32 -21
-57 -46z"/>
<path d="M9480 7334 c0 -3 5 -14 11 -25 18 -34 0 -104 -40 -155 -47 -62 -48
-112 -2 -202 34 -67 32 -84 -10 -97 -10 -4 -19 -10 -19 -15 0 -11 59 8 80 25
8 7 60 35 115 64 83 42 202 121 183 121 -14 0 -198 -86 -238 -111 l-45 -28 -7
42 c-13 83 -8 130 17 172 14 22 25 54 25 70 0 42 -19 107 -38 128 -15 16 -32
23 -32 11z"/>
<path d="M9220 7023 c71 -50 131 -150 151 -251 15 -82 6 -183 -23 -241 -22
-43 -26 -46 -83 -58 -32 -8 -104 -37 -160 -67 -88 -46 -111 -54 -195 -65 -155
-20 -311 -79 -462 -177 -59 -38 -71 -42 -99 -34 -17 5 -41 17 -52 27 -19 18
-20 17 -8 -5 7 -13 24 -28 39 -35 15 -6 28 -12 30 -13 2 -1 -14 -25 -35 -53
-45 -61 -76 -77 -176 -93 -62 -9 -82 -9 -121 4 -60 20 -44 -3 19 -27 33 -13
65 -16 137 -12 51 3 102 6 113 8 17 3 20 -1 20 -34 0 -20 3 -37 8 -37 4 0 7
-10 7 -23 0 -30 52 -92 103 -121 62 -36 120 -48 185 -40 l57 7 -35 12 c-50 17
-184 94 -214 122 -22 20 -26 32 -26 83 l0 60 72 76 c59 62 88 83 162 119 50
24 129 53 176 65 244 60 416 120 502 176 27 18 28 18 55 -2 16 -12 39 -48 54
-82 35 -85 43 -88 36 -14 -8 71 -25 111 -61 140 l-25 19 21 42 c28 57 35 186
15 266 -13 46 -13 61 -4 67 8 5 7 8 -5 8 -9 0 -19 8 -23 18 -8 27 -78 118
-106 141 -13 10 -35 23 -49 30 l-25 12 25 -18z"/>
<path d="M8234 6472 c5 -14 -5 -21 -45 -35 -59 -21 -130 -82 -153 -131 -26
-56 -18 -61 28 -18 24 22 68 53 97 68 45 22 62 26 107 21 43 -5 54 -3 59 10 4
11 -2 22 -17 32 -12 9 -36 28 -52 43 -21 20 -28 23 -24 10z"/>
<path d="M10832 7089 c-58 -10 -127 -41 -135 -61 -4 -9 -13 -4 -29 14 -12 14
-34 29 -48 33 -25 8 -25 8 4 -19 25 -24 28 -33 24 -71 -6 -50 -26 -79 -106
-148 -31 -27 -64 -61 -74 -75 -11 -18 -27 -25 -55 -28 -43 -3 -205 -45 -199
-51 2 -2 37 3 77 12 41 9 92 19 115 22 l41 5 -10 -48 c-10 -50 -3 -148 12
-173 5 -8 16 -11 24 -8 13 5 15 18 10 76 -8 101 10 141 96 219 75 67 111 127
111 185 0 27 6 40 23 51 29 20 232 59 266 52 24 -5 23 -4 -4 9 -34 16 -66 17
-143 4z"/>
<path d="M9987 5588 c53 -51 106 -110 119 -130 24 -37 80 -215 86 -273 l3 -30
14 25 c9 16 15 58 15 117 l1 92 28 7 c35 7 114 -30 177 -83 l44 -38 -25 45
c-39 71 -130 110 -205 86 -16 -5 -22 1 -33 31 -7 21 -26 55 -42 75 -16 20 -29
38 -29 40 0 2 35 3 78 4 90 0 160 28 227 90 l40 37 -40 -6 c-22 -4 -106 -25
-187 -47 -80 -22 -157 -40 -169 -40 -12 0 -60 20 -106 45 -45 25 -84 45 -87
45 -2 0 39 -42 91 -92z"/>
<path d="M9278 5422 c-118 -119 -128 -131 -145 -189 l-18 -62 -33 21 c-44 27
-105 20 -141 -17 l-26 -27 34 17 c38 19 90 16 137 -6 24 -12 29 -23 39 -79 14
-80 36 -133 77 -184 44 -55 63 -140 44 -198 l-15 -43 24 27 c13 15 29 52 36
83 l12 55 21 -37 c17 -30 32 -42 71 -55 28 -9 68 -17 90 -17 37 0 35 2 -40 29
-60 22 -88 38 -112 66 -18 21 -33 45 -33 54 0 9 -12 39 -26 66 -35 65 -52 123
-60 203 -8 86 15 149 96 262 51 72 106 161 98 158 -2 -1 -60 -58 -130 -127z"/>
<path d="M11095 5243 c-11 -3 -55 -21 -99 -40 -68 -30 -86 -34 -130 -29 l-51
5 45 -21 c70 -34 128 -29 244 21 59 25 109 41 123 38 28 -5 30 8 4 23 -20 10
-98 12 -136 3z"/>
</g>
</svg>
