<?xml version="1.0" standalone="no"?>
<!DOCTYPE svg PUBLIC "-//W3C//DTD SVG 20010904//EN"
 "http://www.w3.org/TR/2001/REC-SVG-20010904/DTD/svg10.dtd">
<svg version="1.0" xmlns="http://www.w3.org/2000/svg"
 width="2048.000000pt" height="1535.000000pt" viewBox="0 0 2048.000000 1535.000000"
 preserveAspectRatio="xMidYMid meet">
<metadata>
Created by potrace 1.16, written by Peter Selinger 2001-2019
</metadata>
<g transform="translate(0.000000,1535.000000) scale(0.100000,-0.100000)"
fill="#000000" stroke="none">
<path d="M9867 9740 c-64 -11 -185 -82 -262 -152 -140 -129 -215 -382 -171
-579 19 -85 61 -180 110 -248 26 -37 35 -63 45 -131 20 -137 23 -150 31 -155
4 -2 133 -4 286 -4 153 1 306 0 340 0 l61 -1 22 112 c11 62 21 125 21 139 0
15 16 51 37 80 91 132 129 266 121 418 -10 166 -107 326 -267 440 -87 61 -266
100 -374 81z m219 -54 c78 -21 152 -65 215 -127 75 -75 105 -129 125 -225 36
-172 0 -320 -142 -586 -18 -33 -27 -69 -31 -122 l-6 -76 -161 -2 c-233 -4
-374 0 -395 11 -13 7 -20 25 -23 59 -5 53 -49 156 -96 225 -17 23 -43 83 -58
132 -111 348 125 722 456 724 36 1 88 -5 116 -13z"/>
<path d="M9728 9566 c-51 -39 -164 -183 -174 -222 -7 -28 1 -54 16 -54 6 0 19
14 28 31 43 80 102 147 161 184 51 33 61 44 59 65 -4 38 -37 36 -90 -4z"/>
<path d="M10652 8447 l-22 -24 36 -49 c58 -77 86 -104 109 -104 23 0 45 17 45
35 0 13 -128 165 -139 165 -4 0 -17 -10 -29 -23z"/>
<path d="M9650 8360 l0 -30 300 0 300 0 0 30 0 30 -300 0 -300 0 0 -30z"/>
<path d="M9793 8293 l-143 -4 0 -44 0 -45 300 0 300 0 0 50 0 50 -157 -2 c-87
-1 -222 -4 -300 -5z"/>
<path d="M9644 8166 c-3 -8 23 -49 58 -94 l63 -80 120 -3 c66 -1 156 -2 199
-1 l79 1 27 49 c14 27 39 65 54 85 27 35 27 36 7 46 -13 7 -123 11 -311 11
-239 0 -292 -2 -296 -14z"/>
<path d="M9695 7740 c-181 -13 -308 -33 -540 -85 -110 -25 -255 -56 -322 -70
-163 -32 -251 -63 -413 -145 -164 -81 -193 -99 -292 -179 -195 -157 -365 -410
-452 -673 -30 -90 -36 -128 -50 -299 -28 -339 -20 -421 54 -588 58 -132 173
-322 236 -391 71 -76 141 -122 251 -164 110 -43 175 -51 292 -37 145 18 163
28 215 126 24 46 58 99 76 119 98 107 279 283 305 296 17 8 43 25 58 37 31 25
62 31 52 11 -4 -7 2 -3 12 10 25 30 90 49 220 63 116 12 181 8 194 -13 7 -10
9 -10 9 0 0 6 5 12 12 12 7 0 6 -6 -4 -17 -8 -10 -22 -53 -33 -95 -24 -103
-17 -223 21 -337 l28 -83 -40 -36 c-22 -21 -66 -56 -97 -79 -62 -47 -79 -77
-22 -38 20 13 65 33 100 45 36 12 68 26 71 32 4 5 20 -3 38 -20 36 -35 68 -52
93 -52 11 0 2 10 -25 26 -44 26 -80 78 -62 89 6 4 17 23 25 42 9 20 36 58 61
85 53 56 57 91 12 96 -35 4 -80 -41 -113 -112 l-24 -49 -18 59 c-25 83 -26
284 0 334 29 59 103 151 139 172 18 12 114 61 213 111 99 50 210 112 246 139
83 60 135 83 225 98 71 11 72 11 205 -32 131 -43 134 -45 153 -83 23 -47 32
-34 14 21 -11 34 -22 44 -86 77 -75 40 -80 45 -44 52 57 11 139 78 176 145 15
27 36 154 36 218 0 21 9 48 20 62 29 37 24 50 -5 15 -40 -48 -52 -76 -59 -144
-12 -110 -36 -140 -184 -240 -43 -29 -69 -40 -80 -35 -9 4 -55 10 -102 13
l-85 6 -52 69 c-35 47 -56 86 -63 120 -6 28 -16 64 -22 79 -10 27 -11 27 -30
10 -17 -15 -19 -26 -14 -67 3 -27 15 -78 27 -114 l22 -65 -33 -68 c-24 -48
-45 -77 -74 -97 -49 -36 -365 -206 -371 -200 -6 6 24 118 40 148 8 15 21 32
29 39 24 20 19 30 -13 28 -16 -1 -27 -5 -25 -8 2 -4 -3 -12 -10 -19 -8 -6 -18
-26 -22 -43 -3 -18 -15 -49 -25 -69 -22 -44 -23 -52 -6 -42 6 4 -4 -7 -23 -25
-19 -17 -64 -45 -100 -63 -62 -32 -70 -33 -220 -39 -85 -3 -163 -10 -173 -14
-21 -9 -57 20 -57 46 0 10 15 41 33 70 30 49 32 58 31 138 -1 47 -6 97 -12
111 -10 24 -11 23 -11 -12 -1 -20 -5 -39 -10 -42 -4 -3 -6 7 -4 22 3 23 2 24
-6 7 -5 -11 -21 -54 -37 -95 -15 -41 -41 -102 -58 -135 -35 -67 -29 -65 -150
-46 -75 12 -123 37 -156 79 l-20 27 6 -30 c21 -95 100 -175 174 -175 29 0 30
-1 30 -47 0 -43 -4 -51 -34 -75 -19 -15 -58 -59 -87 -98 -28 -39 -54 -68 -57
-65 -3 3 -27 -16 -53 -41 -41 -40 -55 -47 -96 -51 -62 -6 -151 17 -286 75 -90
39 -119 57 -177 113 -38 36 -76 81 -85 100 -14 34 -14 34 -15 6 0 -15 7 -44
15 -64 8 -19 15 -36 15 -37 0 0 -44 -1 -97 0 l-98 1 -64 124 -64 125 2 89 c1
48 6 110 12 136 6 27 55 137 109 246 l98 198 83 66 c133 104 196 116 257 49
50 -57 119 -100 158 -100 l32 0 -15 -52 c-9 -29 -21 -59 -27 -67 -8 -11 -8
-13 2 -7 14 8 37 58 47 105 4 18 17 42 30 55 27 27 40 80 32 137 l-5 39 71 0
c40 0 109 -9 155 -20 46 -11 104 -20 130 -20 45 0 43 2 -58 36 -125 43 -187
50 -257 31 l-52 -14 -11 27 c-6 15 -26 42 -45 60 -30 29 -32 35 -23 61 20 59
106 117 308 208 21 9 15 10 -35 6 l-61 -5 2 62 c0 35 2 68 2 75 5 35 185 77
256 59 54 -13 79 -114 49 -197 -11 -30 -23 -67 -27 -84 l-6 -30 21 35 c17 29
19 31 15 10 -5 -24 -4 -24 20 5 13 17 27 45 30 64 9 46 44 97 102 148 35 32
44 45 36 53 -17 17 -47 4 -93 -41 -35 -34 -42 -37 -47 -22 -19 58 -30 75 -61
94 -30 19 -43 21 -99 15 -84 -9 -163 -39 -198 -75 -28 -29 -29 -29 -55 -13
l-26 17 23 -29 c14 -19 22 -42 22 -68 0 -24 4 -37 10 -33 6 4 10 -6 10 -23 0
-25 -7 -32 -61 -57 -71 -35 -133 -97 -149 -153 l-12 -39 -47 14 c-80 25 -221
-3 -261 -52 -14 -17 -14 -18 10 -5 14 8 54 14 90 14 78 0 150 -29 177 -70 35
-54 54 -136 35 -148 -12 -7 -55 23 -85 60 -15 17 -40 37 -57 44 -40 17 -134 8
-193 -18 -75 -33 -212 -149 -242 -204 -23 -42 -29 -47 -46 -38 -10 6 -25 23
-34 39 -13 27 -12 33 24 108 21 44 53 96 71 116 38 44 119 104 176 132 25 12
74 56 124 111 86 97 138 130 187 121 26 -5 26 -4 9 9 -19 14 -40 12 -106 -9
-19 -6 -39 -10 -43 -9 -5 1 -5 -3 -1 -9 5 -8 2 -10 -8 -6 -17 6 -40 -15 -51
-46 -7 -19 -80 -56 -111 -57 -11 0 -48 -16 -84 -35 l-64 -36 48 61 c202 257
465 415 803 481 58 11 187 38 286 59 209 45 356 72 362 66 3 -2 -2 -17 -11
-33 -12 -25 -20 -29 -44 -25 -36 5 -77 -16 -117 -58 l-30 -32 45 23 c31 16 63
23 100 24 l54 0 13 45 c7 24 19 50 25 56 7 6 55 15 106 18 l92 7 0 -38 c0 -21
4 -44 9 -51 5 -8 6 8 3 37 l-5 51 285 0 c157 0 300 -3 317 -6 31 -7 31 -7 14
-27 l-18 -21 29 18 c44 28 162 17 301 -29 61 -20 114 -40 119 -45 4 -4 -17
-14 -47 -20 -42 -10 -63 -10 -88 -1 -31 11 -32 11 -15 -8 22 -24 13 -58 -17
-71 -12 -5 -74 -23 -137 -40 -63 -17 -128 -37 -145 -43 -44 -17 -122 -94 -135
-133 -10 -31 -30 -47 -30 -25 0 5 -12 17 -27 26 l-28 18 28 -30 c23 -25 27
-38 27 -87 0 -31 4 -66 10 -76 9 -17 4 -20 -43 -30 -30 -6 -89 -31 -133 -55
-215 -121 -327 -360 -274 -580 14 -53 77 -201 84 -194 3 2 -5 31 -17 64 -32
89 -31 276 2 358 29 73 125 193 201 252 60 46 125 65 228 65 45 0 112 39 112
64 0 7 -13 25 -30 41 -37 36 -64 112 -51 146 16 43 86 97 148 115 80 23 231
102 250 130 8 13 13 33 10 44 -4 17 0 20 34 20 21 0 57 7 80 16 l40 17 136
-68 c140 -70 151 -85 67 -85 -22 0 -62 6 -87 14 -59 18 -60 11 -4 -14 51 -24
105 -25 149 -4 33 15 35 15 90 -17 47 -27 55 -35 47 -50 -5 -10 -8 -44 -8 -76
l2 -58 7 63 c4 35 11 67 16 72 19 19 359 -228 417 -303 l26 -35 -92 -4 c-78
-4 -101 -9 -153 -36 l-62 -31 -29 48 c-17 26 -45 58 -64 71 l-34 24 21 -25
c69 -78 71 -163 13 -457 -42 -211 -70 -300 -147 -462 -56 -116 -188 -269 -287
-329 -17 -10 -14 -11 19 -6 47 8 142 54 209 101 54 39 56 35 27 -59 -35 -113
-132 -222 -295 -330 -70 -47 -70 -47 -35 -47 90 0 183 41 256 112 l51 49 13
-31 c33 -80 269 -146 418 -117 l42 9 0 -74 c0 -126 -19 -245 -50 -326 -17 -43
-36 -85 -44 -95 -13 -16 -15 -16 -57 3 -53 24 -139 26 -251 6 -110 -20 -171
-5 -277 67 -63 43 -163 61 -233 41 -85 -23 -118 -25 -203 -12 l-80 13 5 35 c8
61 5 120 -5 120 -5 1 -16 -25 -23 -57 -7 -32 -17 -62 -21 -66 -4 -4 -55 -10
-112 -13 -57 -3 -113 -6 -124 -7 -17 -2 -20 5 -23 46 -2 29 3 60 12 79 9 17
16 37 16 45 0 22 -27 15 -50 -14 -20 -25 -22 -36 -17 -101 4 -51 2 -74 -6 -77
-83 -29 -127 -49 -152 -70 l-30 -26 35 17 c26 13 64 17 155 18 l120 1 7 -55
c6 -50 11 -59 61 -106 l54 -51 -79 -47 c-194 -117 -641 -172 -953 -118 -66 11
-142 23 -170 27 -57 8 -94 25 -148 69 -54 43 -75 82 -92 172 -17 92 -18 105
-4 82 5 -10 43 -42 83 -73 58 -43 81 -55 110 -55 42 0 48 15 9 24 -18 4 -55
37 -101 89 -70 79 -111 150 -179 307 -23 53 -23 54 -17 15 3 -22 15 -71 25
-110 11 -38 24 -130 29 -204 5 -74 17 -157 26 -185 28 -84 135 -175 224 -190
19 -3 98 -18 175 -32 113 -20 171 -25 305 -25 154 0 330 17 419 41 19 5 36 8
37 7 5 -5 32 -117 27 -117 -2 0 -14 5 -26 10 -20 9 -20 9 -3 -2 24 -16 36 -29
91 -100 36 -45 56 -61 100 -77 31 -12 65 -21 76 -21 31 0 152 -74 188 -115 44
-51 39 -55 -8 -7 -22 23 -53 48 -70 56 -24 13 -20 6 23 -37 36 -36 60 -73 80
-122 55 -134 145 -265 182 -265 7 0 26 -12 43 -26 92 -77 262 -69 352 16 33
31 39 43 39 78 0 77 -42 148 -145 248 -52 50 -95 97 -95 105 0 12 21 13 115
11 183 -6 368 48 558 162 182 109 247 192 247 314 l0 65 68 -7 c58 -5 64 -4
44 7 -20 12 -16 14 56 24 167 25 333 102 418 196 47 53 59 74 85 157 59 188
60 274 7 535 -11 55 -24 150 -28 210 -31 415 -167 715 -453 1000 -61 61 -139
145 -174 187 -129 155 -406 344 -823 559 -83 43 -393 122 -600 154 -127 19
-447 27 -625 15z m2141 -1002 c126 -129 204 -223 204 -247 0 -7 -4 -10 -9 -7
-22 14 -110 -27 -175 -81 -116 -98 -150 -122 -184 -134 -42 -14 -50 -6 -58 53
-6 45 -6 46 23 52 35 8 97 69 113 109 10 29 1 85 -20 117 -7 11 -10 -1 -10
-41 0 -48 -5 -65 -33 -105 -41 -59 -64 -75 -77 -54 -5 8 -10 24 -10 36 0 26
-37 82 -69 103 l-24 15 17 -31 c21 -42 20 -55 -9 -153 -14 -46 -25 -99 -25
-118 0 -47 26 -98 64 -125 41 -29 133 -29 191 0 55 29 147 127 184 199 17 32
36 66 43 74 20 25 61 50 79 50 29 0 75 -76 120 -196 41 -110 41 -114 25 -139
-21 -32 -88 -64 -133 -65 -17 0 -39 -7 -47 -16 -22 -22 -20 -66 4 -87 15 -13
20 -29 20 -71 0 -68 -12 -99 -55 -148 -42 -46 -45 -79 -9 -115 21 -21 31 -24
57 -18 18 5 48 8 67 9 l35 1 0 -118 c0 -64 1 -117 3 -117 2 0 12 19 22 43 24
51 25 91 5 147 -19 53 -19 50 5 50 26 0 96 -35 104 -52 3 -7 4 0 0 16 -8 42
-38 81 -74 96 -16 7 -30 14 -30 17 0 2 7 27 16 54 21 64 15 159 -15 217 l-22
43 25 29 c13 17 27 39 31 50 3 11 10 20 14 20 12 0 52 -220 62 -340 4 -58 13
-121 18 -140 29 -100 49 -322 35 -377 -6 -22 -8 -21 -35 13 -16 20 -29 43 -29
50 0 19 -51 55 -74 52 -31 -5 -29 -22 9 -69 88 -110 95 -122 95 -160 0 -46
-10 -53 -46 -34 -46 24 -127 19 -182 -10 -26 -14 -53 -25 -61 -25 -7 0 -40
-12 -73 -27 -51 -22 -64 -25 -89 -16 -27 11 -28 10 -17 -10 13 -26 34 -40 67
-47 24 -5 24 -5 -13 -49 -20 -24 -35 -46 -32 -48 7 -7 65 26 104 61 20 18 56
38 80 45 23 6 58 26 77 43 l35 30 35 -37 c19 -20 35 -42 35 -49 0 -41 -218
-170 -364 -215 -82 -25 -111 -20 -201 36 -89 55 -165 93 -186 93 -11 0 -19 5
-19 10 0 6 4 10 9 10 18 0 103 85 122 122 11 22 23 61 26 88 l6 48 42 -19 c76
-34 127 -35 188 -6 58 29 131 87 148 119 6 12 15 35 20 51 l9 31 -38 -36 c-20
-20 -79 -57 -131 -82 -76 -37 -105 -46 -147 -46 -66 0 -104 14 -104 38 0 19
-33 153 -45 184 -5 13 0 20 20 28 55 21 133 74 149 101 22 37 20 42 -9 23 -48
-32 -191 -55 -371 -61 -186 -6 -233 2 -259 41 -13 20 -12 28 6 76 15 38 23 87
26 155 5 92 8 103 33 130 52 57 78 100 112 182 l34 82 23 -77 c21 -72 27 -81
94 -144 86 -81 138 -108 207 -108 l50 0 -21 -41 c-11 -23 -39 -61 -61 -85 -44
-48 -40 -57 12 -21 42 28 67 62 85 113 11 33 19 40 52 48 26 6 55 26 93 66
l56 56 -7 -55 c-35 -277 -59 -388 -98 -451 l-16 -25 35 26 c96 71 128 176 115
373 -5 67 -9 151 -9 188 l0 66 -33 -49 c-23 -34 -49 -57 -85 -75 -46 -23 -61
-26 -130 -22 -66 4 -86 10 -135 39 -32 20 -70 40 -85 47 -33 14 -81 77 -104
139 -16 42 -16 49 -1 116 17 75 41 228 52 333 4 33 1 97 -5 143 -6 46 -10 85
-8 87 2 2 49 8 104 15 98 11 214 25 224 28 3 0 65 -59 136 -131z m-3928 -285
c2 -1 -5 -21 -16 -46 -21 -46 -79 -228 -93 -287 -5 -21 -7 36 -4 137 3 141 6
176 19 189 9 8 21 25 27 36 11 20 11 20 37 -4 15 -12 29 -24 30 -25z m286
-925 c55 -63 52 -68 -52 -92 -61 -14 -68 -14 -84 1 -18 16 -88 117 -88 127 0
6 50 12 122 14 56 2 57 2 102 -50z m192 -125 c56 -21 86 -26 164 -27 52 -1
109 3 125 7 l30 8 -30 -26 c-16 -15 -68 -45 -115 -68 l-84 -41 -76 16 c-91 19
-190 56 -190 70 0 16 76 88 93 88 8 0 46 -12 83 -27z m2364 -439 c14 -7 40
-25 58 -41 31 -26 32 -29 18 -50 -11 -15 -31 -23 -68 -28 -29 -4 -107 -18
-174 -31 -117 -24 -124 -24 -195 -9 -119 24 -190 56 -212 93 -11 18 -18 35
-16 37 2 2 42 -2 89 -8 47 -6 132 -12 190 -11 103 0 107 1 170 36 67 38 87 40
140 12z m595 -144 c22 -12 69 -27 105 -35 36 -7 97 -28 137 -44 40 -17 78 -31
85 -31 33 -1 39 -15 27 -63 -6 -26 -14 -47 -18 -47 -3 0 -19 14 -36 31 -43 44
-178 104 -302 135 -92 23 -121 26 -198 21 -49 -4 -115 -13 -145 -22 -30 -9
-61 -17 -68 -18 -7 -2 -33 -33 -57 -69 -64 -96 -189 -191 -325 -248 l-75 -31
88 6 c83 5 87 4 87 -15 0 -36 29 -78 75 -110 25 -17 45 -34 45 -37 0 -3 -33
-3 -72 0 -76 6 -192 36 -170 44 8 3 -8 27 -41 66 -30 34 -61 73 -70 86 -9 14
-34 43 -55 66 -22 22 -50 56 -62 75 l-22 35 6 -40 c3 -22 21 -70 40 -107 19
-38 32 -68 30 -68 -12 0 -105 52 -130 73 -16 13 -48 36 -71 51 -24 14 -43 30
-43 34 0 9 279 132 298 132 7 0 29 9 50 19 49 25 241 59 372 65 58 3 132 13
165 22 172 46 291 54 350 24z m-200 -80 c39 -6 104 -21 145 -34 41 -13 118
-36 170 -51 122 -34 172 -52 196 -69 18 -14 18 -15 -6 -41 -14 -15 -37 -33
-52 -41 -27 -14 -30 -13 -85 33 -122 98 -237 128 -438 111 -119 -10 -191 -26
-124 -27 40 -1 49 -9 166 -153 47 -58 75 -82 118 -103 58 -29 59 -45 2 -45
-23 0 -387 177 -410 200 -5 4 -1 20 10 35 10 16 34 60 53 99 22 44 44 76 60
83 30 15 101 16 195 3z m83 -146 c86 -14 305 -83 325 -103 5 -5 -7 -18 -27
-31 l-36 -22 -76 37 c-42 20 -97 50 -123 68 l-46 31 35 -42 c23 -27 59 -55
103 -76 l68 -33 -56 -32 -57 -32 -41 25 c-23 13 -76 55 -118 94 -42 38 -97 84
-123 101 -25 18 -46 34 -46 37 0 7 91 -2 218 -22z m-1093 -90 c59 -84 105
-120 164 -133 29 -6 62 -11 75 -11 12 0 31 -6 42 -14 18 -14 18 -15 -11 -27
-16 -7 -59 -12 -95 -12 -71 0 -158 33 -244 92 -51 35 -113 118 -99 132 9 9 77
27 108 28 13 0 34 -19 60 -55z m786 -69 c66 -61 118 -93 195 -120 68 -24 68
-24 39 -35 -16 -6 -48 -13 -71 -17 -37 -5 -51 0 -106 31 -92 55 -165 108 -194
141 l-25 30 15 -38 c24 -61 55 -97 117 -137 l58 -38 -31 -6 c-17 -3 -50 -6
-73 -6 -39 0 -47 5 -98 59 -30 33 -59 73 -65 90 -10 29 -9 31 31 55 23 14 55
36 72 49 l30 25 30 -21 c16 -11 50 -39 76 -62z m-416 -153 c45 -35 197 -102
233 -102 13 0 25 -8 28 -17 20 -62 36 -86 99 -153 47 -50 80 -96 99 -138 26
-59 27 -65 12 -87 -9 -14 -35 -34 -58 -46 -35 -18 -54 -21 -116 -17 -93 6
-108 18 -181 136 -91 148 -260 335 -344 379 l-42 22 56 1 c48 0 65 5 105 34
27 18 54 30 59 26 6 -3 28 -21 50 -38z"/>
<path d="M9917 7560 c-14 -16 -30 -30 -36 -30 -17 0 -33 -78 -25 -127 7 -45 6
-46 -17 -39 -68 22 -78 20 -119 -22 -48 -48 -53 -73 -8 -40 26 18 45 22 91 21
56 -1 61 -3 103 -48 59 -61 80 -58 77 11 -2 46 0 51 32 73 42 28 156 71 191
71 14 0 22 4 19 10 -10 17 -117 11 -160 -9 -22 -10 -54 -34 -71 -53 -26 -29
-34 -33 -47 -23 -22 16 -37 58 -37 106 0 42 31 114 52 122 9 4 7 6 -4 6 -9 1
-28 -12 -41 -29z"/>
<path d="M9491 7319 c19 -36 1 -113 -39 -164 -47 -61 -48 -107 -3 -199 34 -71
32 -88 -10 -101 -10 -4 -19 -10 -19 -15 0 -20 282 127 336 175 l39 35 -100
-45 c-55 -25 -117 -57 -138 -71 -22 -14 -41 -24 -43 -21 -2 2 -7 40 -11 84 -5
75 -4 83 22 127 23 40 27 55 22 96 -7 56 -29 105 -52 114 -13 5 -14 2 -4 -15z"/>
<path d="M10865 7096 c-5 -2 -36 -9 -68 -16 -32 -6 -70 -22 -87 -36 l-29 -25
-11 21 c-6 12 -27 28 -45 36 -49 20 -55 17 -17 -7 36 -24 47 -53 38 -103 -5
-26 -28 -54 -96 -119 -50 -47 -90 -90 -90 -95 0 -5 -21 -12 -46 -16 -60 -8
-210 -49 -197 -53 6 -2 52 5 104 17 128 28 130 27 118 -12 -21 -75 -2 -202 29
-196 14 3 16 14 14 69 -6 108 9 143 94 222 79 74 114 132 114 190 0 27 6 40
23 51 30 20 235 59 266 51 21 -5 23 -4 14 6 -12 12 -106 23 -128 15z"/>
<path d="M9220 7023 c75 -52 132 -146 151 -248 15 -82 5 -187 -23 -243 -22
-44 -26 -47 -88 -62 -63 -16 -138 -49 -210 -95 -25 -16 -64 -26 -132 -34 -156
-18 -298 -71 -461 -172 -83 -52 -110 -55 -151 -20 -18 15 -18 15 -7 -6 6 -13
23 -26 36 -29 30 -8 31 -8 3 -46 -48 -63 -76 -87 -119 -99 -52 -14 -173 -18
-209 -6 -19 6 -17 3 10 -15 31 -21 46 -23 140 -22 58 1 116 3 130 5 23 4 25 1
25 -34 0 -20 3 -37 8 -37 4 0 7 -8 7 -17 0 -31 37 -80 85 -113 62 -42 135 -61
205 -53 l54 6 -34 12 c-47 17 -167 83 -207 114 -31 24 -33 30 -33 88 0 61 0
62 58 125 75 83 73 82 177 133 58 29 138 57 225 79 179 45 346 100 395 131 80
49 82 49 111 31 22 -15 46 -57 80 -141 7 -19 8 -19 11 3 3 12 -1 48 -7 79 -9
42 -21 66 -46 91 -24 24 -31 38 -25 46 17 21 41 128 41 184 0 70 -25 165 -57
221 -35 59 -100 129 -137 147 l-31 14 25 -17z"/>
<path d="M8220 6508 c0 -4 4 -17 9 -31 8 -21 6 -24 -32 -35 -70 -18 -158 -105
-178 -174 l-9 -32 38 37 c20 19 64 52 97 72 54 33 66 36 120 33 50 -2 60 0 63
14 2 11 -11 26 -37 42 -22 14 -47 38 -55 53 -8 16 -15 25 -16 21z"/>
<path d="M9992 5583 c58 -57 110 -118 124 -146 23 -44 68 -199 76 -257 l3 -25
14 25 c9 16 15 58 15 117 l1 93 43 0 c51 0 80 -14 147 -69 27 -22 51 -39 53
-37 2 2 -8 23 -23 46 -19 30 -41 49 -81 67 -53 24 -66 25 -125 7 -11 -3 -19 7
-27 34 -7 22 -25 56 -42 77 -16 21 -30 38 -30 39 0 0 35 1 78 1 89 1 159 28
226 89 35 32 37 36 17 36 -12 0 -95 -20 -185 -45 -90 -25 -174 -45 -187 -45
-12 0 -60 20 -106 45 -45 25 -84 45 -87 45 -2 0 42 -44 96 -97z"/>
<path d="M9396 5542 c-8 -16 -54 -62 -103 -104 -49 -42 -101 -94 -117 -116
-29 -42 -55 -104 -56 -134 0 -16 -3 -15 -35 4 -47 27 -107 20 -144 -17 l-26
-26 37 16 c48 20 74 19 124 -4 39 -18 41 -21 47 -72 6 -63 42 -150 81 -196 15
-18 31 -47 37 -65 12 -44 12 -124 -2 -151 -8 -18 -5 -17 15 6 25 27 46 82 46
122 0 14 7 9 23 -20 27 -47 85 -74 162 -74 l50 0 -85 29 c-67 23 -92 37 -117
66 -18 21 -33 45 -33 54 0 9 -11 39 -25 66 -35 69 -53 129 -60 204 -9 86 15
151 99 267 60 83 112 173 101 173 -2 0 -11 -13 -19 -28z"/>
<path d="M11145 5252 c-44 -4 -123 -32 -175 -59 -37 -20 -55 -24 -100 -19
l-55 5 55 -26 c71 -32 107 -28 235 26 57 25 108 41 122 38 23 -4 31 7 13 18
-20 12 -65 21 -95 17z"/>
</g>
</svg>
