<?xml version="1.0" standalone="no"?>
<!DOCTYPE svg PUBLIC "-//W3C//DTD SVG 20010904//EN"
 "http://www.w3.org/TR/2001/REC-SVG-20010904/DTD/svg10.dtd">
<svg version="1.0" xmlns="http://www.w3.org/2000/svg"
 width="2048.000000pt" height="1535.000000pt" viewBox="0 0 2048.000000 1535.000000"
 preserveAspectRatio="xMidYMid meet">
<metadata>
Created by potrace 1.16, written by Peter Selinger 2001-2019
</metadata>
<g transform="translate(0.000000,1535.000000) scale(0.100000,-0.100000)"
fill="#000000" stroke="none">
<path d="M9867 9740 c-64 -11 -185 -82 -262 -152 -140 -129 -215 -382 -171
-579 19 -85 61 -180 110 -248 26 -37 35 -63 45 -131 20 -137 23 -150 31 -155
4 -2 133 -4 286 -4 153 1 306 0 340 0 l61 -1 22 112 c11 62 21 125 21 139 0
15 16 51 37 80 91 132 129 266 121 418 -10 166 -107 326 -267 440 -87 61 -266
100 -374 81z m219 -54 c78 -21 152 -65 215 -127 75 -75 105 -129 125 -225 36
-172 0 -320 -142 -586 -18 -33 -27 -69 -31 -122 l-6 -76 -161 -2 c-233 -4
-374 0 -395 11 -13 7 -20 25 -23 59 -5 53 -49 156 -96 225 -17 23 -43 83 -58
132 -111 348 125 722 456 724 36 1 88 -5 116 -13z"/>
<path d="M9728 9566 c-51 -39 -164 -183 -174 -222 -7 -28 1 -54 16 -54 6 0 19
14 28 31 43 80 102 147 161 184 51 33 61 44 59 65 -4 38 -37 36 -90 -4z"/>
<path d="M10652 8447 l-22 -24 36 -49 c58 -77 86 -104 109 -104 23 0 45 17 45
35 0 13 -128 165 -139 165 -4 0 -17 -10 -29 -23z"/>
<path d="M9650 8360 l0 -30 300 0 300 0 0 30 0 30 -300 0 -300 0 0 -30z"/>
<path d="M9793 8293 l-143 -4 0 -44 0 -45 300 0 300 0 0 50 0 50 -157 -2 c-87
-1 -222 -4 -300 -5z"/>
<path d="M9644 8166 c-3 -8 23 -49 58 -94 l63 -80 120 -3 c66 -1 156 -2 199
-1 l79 1 27 49 c14 27 39 65 54 85 27 35 27 36 7 46 -13 7 -123 11 -311 11
-239 0 -292 -2 -296 -14z"/>
<path d="M9601 7729 c-124 -11 -281 -40 -541 -99 -118 -26 -235 -51 -260 -55
-134 -21 -422 -145 -585 -253 -83 -54 -249 -218 -323 -317 -65 -88 -162 -274
-206 -397 -37 -103 -48 -175 -67 -458 -10 -155 -10 -185 5 -263 20 -107 75
-234 166 -387 120 -202 203 -280 365 -347 77 -31 104 -37 186 -41 110 -5 222
11 265 37 19 12 43 45 67 93 28 58 63 103 153 198 117 124 220 220 236 220 4
0 27 14 50 30 23 17 48 28 55 26 7 -3 13 -1 13 4 0 5 30 19 68 30 50 16 106
23 220 27 163 7 170 4 139 -42 -7 -11 -22 -55 -32 -98 -17 -69 -18 -87 -7
-171 6 -52 21 -118 32 -146 34 -87 26 -105 -77 -174 -71 -47 -68 -56 9 -25 40
16 83 34 95 41 19 10 27 6 63 -26 22 -20 45 -36 50 -36 6 0 -5 14 -24 31 -42
37 -53 64 -34 87 8 9 20 31 27 47 6 17 25 44 42 59 49 47 64 73 49 91 -7 8
-18 15 -25 15 -26 0 -74 -52 -104 -112 -17 -33 -33 -54 -35 -47 -2 8 -9 30
-16 49 -6 19 -15 82 -21 139 -12 125 1 183 61 272 56 82 86 103 297 208 103
52 222 118 263 146 41 29 86 58 100 65 32 17 134 39 182 40 58 0 269 -75 296
-105 12 -15 22 -20 22 -13 0 29 -34 60 -103 95 -68 34 -71 36 -47 46 85 33
106 46 144 91 24 28 49 61 55 74 10 19 32 231 25 240 -8 12 -32 -62 -37 -114
-8 -103 -35 -138 -171 -229 l-78 -53 -36 15 c-25 10 -56 14 -92 11 -30 -3 -60
-3 -67 -1 -7 2 -35 35 -63 73 -37 50 -55 85 -67 135 -15 60 -34 88 -50 72 -13
-14 -2 -102 21 -168 l25 -71 -36 -72 c-27 -55 -45 -78 -81 -103 -40 -26 -217
-124 -341 -188 l-34 -17 6 38 c12 68 27 111 53 149 30 45 26 54 -12 22 -27
-23 -66 -113 -65 -151 0 -21 -25 -45 -87 -83 -73 -44 -119 -54 -227 -54 -55 1
-131 -4 -168 -11 -59 -10 -70 -9 -84 4 -23 24 -19 59 11 105 36 53 46 127 31
206 -11 52 -13 56 -14 25 -1 -37 -21 -66 -21 -31 0 10 -11 -11 -24 -47 -13
-36 -40 -100 -60 -144 l-36 -79 -38 6 c-20 3 -65 10 -98 16 -60 9 -136 47
-148 73 -3 7 -3 2 0 -12 11 -45 55 -111 87 -131 18 -10 49 -22 70 -25 37 -6
37 -7 37 -53 0 -42 -4 -51 -45 -91 -25 -25 -62 -69 -82 -97 -20 -29 -42 -53
-49 -53 -6 0 -45 -33 -87 -73 -67 -66 -175 -137 -208 -137 -7 0 -20 -7 -29
-15 -15 -14 -25 -14 -88 0 -81 17 -181 50 -196 65 -15 15 13 59 55 87 l35 23
63 -25 c91 -37 213 -51 277 -32 l49 15 -51 1 c-63 1 -152 28 -270 80 -124 56
-224 139 -254 213 -15 38 -11 4 5 -42 8 -23 15 -46 15 -50 0 -5 -35 -8 -77 -8
-43 1 -87 -1 -98 -3 -16 -3 -31 18 -87 128 -61 119 -68 139 -68 190 1 137 16
187 116 393 52 107 107 208 122 223 15 16 59 53 99 84 64 49 78 55 132 60 l61
6 53 -50 c71 -67 102 -86 145 -88 31 -1 42 5 64 33 31 39 43 87 34 137 -6 31
-4 35 20 41 32 8 121 -1 194 -20 30 -8 82 -17 115 -20 l60 -6 -60 19 c-33 10
-73 24 -90 30 -72 29 -155 31 -236 6 -12 -4 -24 7 -42 37 -47 80 -100 108
-207 108 -62 0 -117 -13 -145 -34 -18 -13 -15 -14 36 -9 73 7 163 -18 199 -57
28 -30 63 -131 53 -156 -9 -25 -32 -15 -92 40 -72 66 -106 75 -198 52 -66 -16
-102 -39 -227 -141 -58 -47 -111 -150 -172 -335 -31 -94 -39 -135 -44 -225 -6
-99 -7 -103 -9 -40 -2 39 -3 147 -1 240 1 131 5 177 17 200 9 17 21 40 27 52
11 23 26 31 26 14 0 -5 12 -17 28 -27 26 -17 26 -16 -5 20 -18 20 -33 44 -33
52 0 9 21 56 47 106 38 74 58 100 112 145 36 30 85 64 109 74 50 22 116 82
169 153 24 32 54 57 87 73 46 22 48 24 16 18 -19 -4 -54 -19 -77 -35 -27 -19
-43 -25 -46 -17 -3 7 -8 -1 -12 -16 -8 -31 -56 -60 -116 -71 -20 -3 -61 -22
-92 -40 -31 -19 -57 -30 -57 -24 0 27 173 215 261 283 179 140 355 213 664
276 105 21 267 54 360 74 94 19 183 35 198 35 l29 0 -19 -32 c-16 -27 -26 -33
-56 -34 -35 -1 -57 -12 -107 -54 l-25 -21 44 21 c31 16 57 21 93 18 l51 -3 12
48 c7 27 16 52 21 57 5 5 53 12 106 16 l97 7 4 -39 4 -39 1 37 c2 34 4 37 43
43 56 10 599 -5 599 -16 0 -5 33 -9 73 -9 72 0 216 -35 314 -77 l38 -16 -35
-13 c-19 -7 -54 -13 -77 -13 -41 -1 -43 -3 -43 -31 0 -37 -6 -40 -155 -80 -66
-18 -133 -37 -150 -43 -41 -15 -125 -95 -142 -135 -10 -23 -19 -32 -29 -28 -9
3 -12 2 -9 -5 4 -5 8 -36 10 -67 1 -31 6 -66 10 -78 6 -19 2 -22 -40 -27 -64
-9 -177 -71 -246 -135 -178 -164 -224 -380 -128 -603 12 -27 23 -48 25 -46 2
1 -4 30 -13 62 -35 135 -12 302 55 403 36 54 112 134 173 182 43 34 53 37 158
49 91 11 118 18 137 36 29 27 30 37 5 59 -27 25 -61 100 -61 135 0 56 73 118
172 147 63 19 160 66 206 101 25 19 32 31 32 58 0 32 2 34 28 29 16 -3 50 3
82 15 l54 20 85 -44 c47 -25 129 -65 181 -91 52 -25 114 -58 138 -72 255 -158
407 -278 454 -357 4 -6 -25 -10 -80 -10 -77 0 -95 -4 -156 -33 -38 -18 -67
-34 -65 -37 3 -2 36 0 74 5 39 5 113 14 166 20 l95 11 113 -107 c99 -95 231
-252 231 -276 0 -4 -14 -8 -32 -8 -45 0 -110 -34 -171 -90 -81 -74 -167 -130
-198 -130 -32 0 -34 5 -43 108 -7 77 -36 146 -68 162 -19 10 -21 10 -10 -1 19
-20 15 -73 -14 -179 -31 -116 -25 -160 31 -209 31 -27 43 -31 93 -31 111 0
211 77 286 220 40 75 70 107 114 120 30 8 34 6 63 -37 17 -25 51 -97 75 -160
42 -111 43 -116 26 -139 -22 -31 -90 -64 -130 -64 -35 0 -72 -29 -72 -57 0 -9
10 -28 23 -41 18 -20 22 -34 20 -88 -1 -67 -13 -94 -61 -146 -29 -32 -32 -71
-6 -99 16 -18 26 -20 90 -14 l71 7 7 -75 c4 -41 4 -91 1 -111 -10 -52 1 -45
20 14 15 46 15 54 1 104 -9 30 -16 57 -16 60 0 15 61 3 93 -18 28 -19 35 -21
30 -8 -12 34 -53 79 -83 92 -23 9 -29 17 -24 29 40 93 39 188 -1 260 l-25 43
29 33 c16 19 32 43 36 54 10 32 23 25 31 -16 3 -21 15 -80 25 -132 11 -51 19
-119 19 -150 0 -31 7 -87 15 -126 28 -130 54 -330 49 -380 -8 -76 -12 -82 -31
-54 -9 13 -20 26 -24 29 -3 3 -14 20 -23 37 -27 54 -86 80 -86 38 0 -7 27 -46
60 -85 57 -68 60 -74 60 -126 0 -30 -2 -54 -5 -54 -3 0 -16 7 -29 15 -13 9
-46 18 -74 22 -43 5 -60 1 -105 -21 -30 -14 -60 -26 -67 -26 -7 0 -39 -12 -71
-26 -37 -17 -69 -25 -89 -22 -29 4 -29 3 -16 -16 7 -12 27 -25 45 -30 17 -5
31 -13 31 -17 0 -5 -14 -24 -31 -44 -42 -48 -23 -44 51 11 35 26 82 53 105 61
24 8 53 25 65 39 13 13 29 24 36 24 6 0 28 -18 48 -40 30 -33 35 -44 26 -60
-21 -39 -205 -146 -330 -192 -68 -25 -71 -27 -30 -22 182 23 375 113 454 212
52 64 97 191 116 322 11 78 -2 212 -36 360 -8 36 -19 117 -24 180 -13 171 -44
321 -98 476 -75 213 -160 341 -381 569 -75 78 -158 167 -184 198 -86 102 -406
328 -601 424 -50 25 -116 60 -146 78 -97 59 -419 145 -668 179 -123 17 -520
20 -691 5z m-1407 -2196 c52 -55 55 -66 23 -80 -37 -17 -134 -36 -150 -30 -16
6 -97 119 -97 136 0 14 25 19 107 20 l72 1 45 -47z"/>
<path d="M9917 7560 c-14 -16 -30 -30 -36 -30 -17 0 -33 -78 -25 -127 7 -45 6
-46 -17 -39 -68 22 -78 20 -119 -22 -48 -48 -53 -73 -8 -40 26 18 45 22 91 21
56 -1 61 -3 103 -48 59 -61 80 -58 77 11 -2 46 0 51 32 73 42 28 156 71 191
71 14 0 22 4 19 10 -10 17 -117 11 -160 -9 -22 -10 -54 -34 -71 -53 -26 -29
-34 -33 -47 -23 -22 16 -37 58 -37 106 0 42 31 114 52 122 9 4 7 6 -4 6 -9 1
-28 -12 -41 -29z"/>
<path d="M8907 7345 c-77 -16 -140 -48 -163 -83 -15 -23 -16 -23 -37 -5 l-21
18 21 -28 c12 -16 19 -36 16 -47 -3 -11 -1 -20 5 -20 6 0 13 -17 15 -37 2 -21
4 -8 3 29 0 52 4 71 19 87 25 28 104 50 188 53 64 3 70 1 92 -24 13 -15 28
-49 34 -77 9 -42 8 -56 -8 -93 -10 -24 -22 -54 -25 -68 -7 -24 -6 -24 9 3 19
33 29 35 22 5 -6 -22 -6 -22 13 2 11 14 23 41 26 60 7 32 68 130 82 130 19 1
54 42 48 55 -5 14 -9 14 -34 1 -16 -8 -43 -31 -61 -51 -27 -31 -32 -34 -38
-18 -40 114 -78 134 -206 108z"/>
<path d="M9495 7265 c-1 -45 -6 -70 -20 -90 -48 -67 -55 -82 -55 -116 0 -22
12 -61 30 -94 35 -66 37 -82 13 -102 -28 -23 -5 -12 123 54 65 35 133 74 149
88 l30 25 -60 -26 c-33 -14 -67 -28 -75 -32 -8 -3 -38 -20 -66 -38 l-51 -32
-11 63 c-17 88 -15 103 15 154 30 52 34 121 9 170 -25 48 -31 43 -31 -24z"/>
<path d="M10865 7096 c-5 -2 -36 -9 -68 -16 -32 -6 -70 -22 -87 -36 l-29 -25
-11 21 c-6 12 -27 28 -45 36 -49 20 -55 17 -17 -7 36 -24 47 -53 38 -103 -5
-26 -28 -54 -96 -119 -50 -47 -90 -90 -90 -95 0 -5 -21 -12 -46 -16 -60 -8
-210 -49 -197 -53 6 -2 52 5 104 17 128 28 130 27 118 -12 -21 -75 -2 -202 29
-196 14 3 16 14 14 69 -6 108 9 143 94 222 79 74 114 132 114 190 0 27 6 40
23 51 30 20 235 59 266 51 21 -5 23 -4 14 6 -12 12 -106 23 -128 15z"/>
<path d="M9300 6948 c59 -77 83 -165 78 -281 -3 -73 -9 -103 -28 -142 -24 -48
-27 -50 -75 -57 -30 -4 -93 -29 -161 -63 -95 -49 -124 -58 -193 -66 -149 -17
-348 -95 -488 -190 -44 -31 -71 -35 -106 -18 -21 10 -21 10 -3 -5 11 -9 26
-16 33 -16 23 0 15 -14 -44 -77 -56 -59 -61 -61 -129 -73 -40 -7 -96 -11 -125
-8 l-54 5 35 -16 c33 -15 154 -20 245 -9 26 3 30 -1 33 -22 12 -93 48 -148
130 -196 40 -24 60 -28 132 -30 47 -2 76 -1 65 2 -43 12 -208 110 -231 137
-13 16 -24 41 -24 57 0 65 14 94 77 160 89 96 216 159 387 196 91 19 320 91
371 116 22 11 55 31 72 45 31 23 34 23 64 8 22 -12 39 -35 59 -78 l29 -62 1
38 c0 49 -21 97 -55 130 l-28 25 17 37 c60 127 34 307 -64 440 -22 29 -44 57
-50 60 -6 4 7 -17 30 -47z"/>
<path d="M11292 6915 c35 -61 30 -171 -20 -421 -40 -198 -70 -292 -144 -454
-50 -107 -156 -234 -258 -309 -33 -24 -38 -31 -20 -26 46 13 147 62 201 99 30
20 56 31 57 26 7 -20 -20 -115 -46 -164 -35 -65 -148 -176 -247 -243 l-80 -54
50 7 c112 16 198 62 253 137 56 75 73 127 79 242 5 96 7 102 38 135 46 50 67
85 104 172 19 43 37 76 41 73 3 -2 12 -29 19 -59 12 -56 51 -124 79 -140 9 -5
36 -29 60 -53 46 -45 115 -73 179 -73 18 0 33 -2 33 -5 0 -15 -44 -89 -73
-122 l-32 -37 33 20 c35 20 76 79 87 126 5 20 15 28 43 33 25 5 53 24 99 70
72 72 73 72 48 -68 -8 -47 -21 -133 -30 -191 -10 -71 -23 -123 -41 -158 l-26
-53 46 45 c82 79 109 206 85 395 -7 55 -12 116 -12 136 l1 35 -52 -51 c-65
-64 -107 -78 -204 -66 -41 5 -86 18 -104 30 -18 11 -57 32 -85 46 -58 29 -81
56 -119 139 -24 53 -24 57 -10 108 33 117 51 264 51 408 0 130 -2 150 -23 196
-13 29 -37 65 -54 80 l-30 29 24 -40z"/>
<path d="M8220 6508 c0 -4 4 -17 9 -31 8 -21 6 -24 -32 -35 -70 -18 -158 -105
-178 -174 l-9 -32 38 37 c20 19 64 52 97 72 54 33 66 36 120 33 50 -2 60 0 63
14 2 11 -11 26 -37 42 -22 14 -47 38 -55 53 -8 16 -15 25 -16 21z"/>
<path d="M9992 5583 c58 -57 110 -118 124 -146 23 -44 68 -199 76 -257 l3 -25
14 25 c9 16 15 58 15 117 l1 93 43 0 c51 0 80 -14 147 -69 27 -22 51 -39 53
-37 2 2 -8 23 -23 46 -19 30 -41 49 -81 67 -53 24 -66 25 -125 7 -11 -3 -19 7
-27 34 -7 22 -25 56 -42 77 -16 21 -30 38 -30 39 0 0 35 1 78 1 89 1 159 28
226 89 35 32 37 36 17 36 -12 0 -95 -20 -185 -45 -90 -25 -174 -45 -187 -45
-12 0 -60 20 -106 45 -45 25 -84 45 -87 45 -2 0 42 -44 96 -97z"/>
<path d="M9396 5542 c-8 -16 -54 -62 -103 -104 -49 -42 -101 -94 -117 -116
-29 -42 -55 -104 -56 -134 0 -16 -3 -15 -35 4 -47 27 -107 20 -144 -17 l-26
-26 37 16 c48 20 74 19 124 -4 39 -18 41 -21 47 -72 6 -63 42 -150 81 -196 15
-18 31 -47 37 -65 12 -44 12 -124 -2 -151 -8 -18 -5 -17 15 6 25 27 46 82 46
122 0 14 7 9 23 -20 27 -47 85 -74 162 -74 l50 0 -85 29 c-67 23 -92 37 -117
66 -18 21 -33 45 -33 54 0 9 -11 39 -25 66 -35 69 -53 129 -60 204 -9 86 15
151 99 267 60 83 112 173 101 173 -2 0 -11 -13 -19 -28z"/>
<path d="M11700 5521 c-35 -20 -187 -43 -340 -52 -173 -9 -227 -3 -264 29 -18
16 -18 16 -7 -5 29 -55 192 -113 322 -113 102 0 265 67 303 125 17 26 12 31
-14 16z"/>
<path d="M11540 5298 c0 -143 -17 -242 -55 -330 -18 -43 -31 -78 -28 -78 2 0
27 21 54 47 63 58 89 108 89 168 0 25 4 45 9 45 5 0 30 -10 56 -21 70 -31 131
-29 190 5 60 36 122 91 141 127 21 41 18 44 -18 13 -18 -15 -73 -47 -122 -71
-80 -38 -97 -43 -160 -43 -39 0 -76 4 -82 8 -6 4 -19 42 -28 86 -10 43 -24 92
-32 110 -12 29 -13 25 -14 -66z"/>
<path d="M11145 5252 c-44 -4 -123 -32 -175 -59 -37 -20 -55 -24 -100 -19
l-55 5 55 -26 c71 -32 107 -28 235 26 57 25 108 41 122 38 23 -4 31 7 13 18
-20 12 -65 21 -95 17z"/>
<path d="M10031 5189 c-27 -29 -36 -79 -23 -131 6 -23 9 -45 6 -49 -2 -4 -33
-17 -68 -29 -73 -24 -127 -56 -66 -40 19 6 83 10 142 10 l108 0 0 -27 c0 -62
20 -101 70 -140 27 -21 48 -42 46 -47 -1 -6 -37 -31 -80 -57 -81 -48 -172 -75
-391 -116 -143 -26 -404 -24 -590 6 -82 13 -167 28 -187 33 -43 10 -134 76
-159 115 -13 21 -59 192 -59 221 0 2 23 -16 50 -41 92 -83 180 -130 180 -97 0
6 -6 10 -14 10 -7 0 -49 40 -93 90 -61 68 -92 114 -129 190 -51 107 -66 117
-39 28 9 -29 20 -118 26 -197 13 -179 30 -231 100 -296 58 -54 111 -80 194
-94 33 -5 113 -19 178 -30 309 -54 711 -1 1022 133 70 30 141 58 158 62 17 3
41 13 52 20 32 21 219 54 360 64 74 5 177 19 240 34 137 32 239 34 293 6 21
-11 65 -25 97 -32 33 -6 96 -27 140 -46 83 -36 226 -58 211 -33 -4 6 -17 11
-29 11 -30 1 -100 33 -174 81 -61 40 -185 91 -274 111 -36 9 -69 8 -155 -6
-152 -23 -209 -11 -323 67 -62 42 -173 58 -241 34 -26 -9 -67 -17 -91 -17 -42
0 -161 19 -243 39 -22 5 -51 8 -65 6 -14 -2 -59 -7 -98 -10 l-73 -5 0 55 c0
32 7 69 16 87 21 40 4 58 -25 27z m714 -219 c22 -10 54 -30 70 -44 29 -25 29
-27 15 -53 -14 -25 -23 -29 -85 -35 -39 -4 -119 -18 -180 -32 -60 -13 -114
-22 -119 -19 -5 3 -38 12 -75 19 -107 20 -179 51 -196 84 -8 16 -15 34 -15 40
0 13 75 13 120 0 19 -6 84 -11 143 -12 106 -1 110 0 175 35 78 41 93 43 147
17z"/>
<path d="M11125 4786 c-5 -3 -44 -10 -85 -17 l-75 -13 107 -7 c76 -4 137 -15
215 -38 59 -18 146 -44 193 -57 168 -50 199 -66 186 -99 -7 -19 -155 -115
-177 -115 -18 0 -150 63 -194 93 l-30 20 30 -33 c17 -18 61 -47 99 -65 l68
-32 -58 -32 c-31 -17 -63 -31 -69 -31 -19 0 -78 43 -176 130 -88 77 -129 108
-129 95 0 -4 32 -45 71 -92 71 -84 145 -143 181 -143 31 0 20 -18 -18 -30 -35
-12 -42 -10 -214 77 l-177 88 50 -45 c71 -64 126 -98 203 -125 64 -22 67 -24
42 -34 -80 -30 -107 -32 -154 -11 -49 21 -161 96 -206 138 -37 34 -36 15 2
-36 29 -41 123 -112 147 -112 7 0 13 -4 13 -10 0 -6 -36 -10 -89 -10 l-89 0
-50 55 c-51 55 -85 126 -64 133 5 1 34 20 63 40 61 42 121 116 138 170 7 21
15 44 18 52 3 8 -11 -8 -30 -36 -31 -45 -76 -83 -204 -172 -18 -12 -65 -36
-105 -53 l-73 -30 69 6 c38 4 75 9 83 12 8 3 13 -3 13 -18 0 -36 33 -83 85
-120 l47 -34 -63 -3 c-35 -1 -89 4 -119 12 -30 8 -57 13 -59 10 -7 -6 131 -65
180 -76 43 -10 48 -14 59 -51 7 -26 36 -65 80 -112 70 -74 130 -175 130 -219
0 -29 -34 -58 -96 -82 -38 -14 -54 -15 -111 -6 -81 14 -100 30 -178 157 -88
142 -226 292 -285 310 -15 5 -6 -6 25 -27 32 -22 70 -64 108 -119 53 -76 107
-169 107 -184 0 -17 -23 13 -73 97 -30 51 -74 113 -97 138 -34 37 -37 38 -16
10 13 -19 41 -73 61 -119 39 -93 115 -213 148 -236 12 -8 29 -15 38 -15 9 0
20 -7 23 -16 8 -21 80 -51 142 -59 103 -14 236 54 249 128 13 71 -49 179 -152
267 -53 45 -93 93 -93 112 0 2 66 4 148 4 138 1 153 3 247 34 130 42 188 68
291 130 100 61 188 139 214 191 23 45 40 156 22 145 -7 -4 -12 -17 -12 -29 0
-47 -15 -49 -56 -11 -76 72 -292 150 -439 159 -38 3 -74 3 -80 1z"/>
<path d="M11011 4639 c-41 -5 -76 -11 -79 -14 -3 -3 29 -5 72 -5 157 0 293
-28 511 -105 32 -11 -40 49 -94 78 -99 54 -221 68 -410 46z"/>
<path d="M10285 4575 c10 -43 41 -111 66 -146 12 -17 19 -32 17 -34 -8 -8
-113 46 -153 79 -22 18 -51 39 -65 46 -14 7 -31 20 -38 29 -34 41 7 -19 50
-75 59 -74 86 -90 172 -104 37 -6 80 -19 94 -30 15 -11 45 -27 66 -36 l39 -16
-44 52 c-24 29 -53 64 -63 78 -11 15 -36 45 -57 67 -20 22 -49 58 -64 80 -25
38 -26 39 -20 10z"/>
<path d="M9964 4485 c3 -11 8 -33 12 -50 10 -46 49 -108 92 -147 44 -39 109
-64 192 -71 l55 -5 -45 21 -45 21 60 6 c59 7 117 29 131 51 4 8 -1 9 -17 3
-13 -5 -55 -9 -94 -9 -62 0 -80 5 -158 44 -88 43 -123 71 -165 126 -17 22 -22
24 -18 10z"/>
</g>
</svg>
